M48
;DRILL file {Pcbnew (2012-01-19 BZR 3256)-stable} date 4/2/2012 4:25:51 PM
;FORMAT={-:-/ absolute / inch / decimal}
FMAT,2
INCH,TZ
T1C0.032
T2C0.039
T3C0.040
T4C0.120
%
G90
G05
M72
T1
X0.000Y0.000
X0.000Y-0.100
X0.000Y-0.200
X0.000Y-0.300
X0.000Y-0.400
X0.000Y-0.500
X0.000Y-0.600
X0.000Y-0.700
X0.000Y-0.800
X0.000Y-0.900
X0.000Y-1.000
X0.000Y-1.100
X0.000Y-1.200
X0.000Y-1.300
X0.000Y-1.400
X0.000Y-1.500
X0.600Y0.000
X0.600Y-0.100
X0.600Y-0.200
X0.600Y-0.300
X0.600Y-0.400
X0.600Y-0.500
X0.600Y-0.600
X0.600Y-0.700
X0.600Y-0.800
X0.600Y-0.900
X0.600Y-1.000
X0.600Y-1.100
X0.600Y-1.200
X0.600Y-1.300
X0.600Y-1.400
X0.600Y-1.500
X0.650Y1.100
X0.650Y1.000
X0.650Y0.900
X0.650Y0.800
X0.650Y0.700
X0.650Y0.600
X0.650Y0.500
X0.650Y0.400
X0.775Y0.200
X0.775Y0.000
X0.900Y-0.150
X0.900Y-0.250
X0.900Y-0.350
X0.900Y-0.450
X0.900Y-0.550
X0.900Y-0.650
X0.900Y-0.750
X0.900Y-0.850
X0.900Y-1.200
X0.900Y-1.300
X0.900Y-1.400
X0.900Y-1.500
X0.900Y-1.600
X0.900Y-1.700
X0.900Y-1.800
X0.900Y-1.900
X0.925Y0.150
X0.925Y0.000
X0.925Y-1.000
X0.950Y1.100
X0.950Y1.000
X0.950Y0.900
X0.950Y0.800
X0.950Y0.700
X0.950Y0.600
X0.950Y0.500
X0.950Y0.400
X1.075Y1.050
X1.075Y0.850
X1.125Y0.000
X1.125Y-1.000
X1.150Y0.500
X1.200Y-0.070
X1.200Y-0.150
X1.200Y-0.250
X1.200Y-0.350
X1.200Y-0.450
X1.200Y-0.550
X1.200Y-0.650
X1.200Y-0.750
X1.200Y-0.850
X1.200Y-1.200
X1.200Y-1.300
X1.200Y-1.400
X1.200Y-1.500
X1.200Y-1.600
X1.200Y-1.700
X1.200Y-1.800
X1.200Y-1.900
X1.225Y0.150
X1.300Y-0.550
X1.300Y-0.750
X1.300Y-1.200
X1.300Y-1.800
X1.450Y0.500
X1.500Y-0.070
X1.600Y-0.550
X1.600Y-0.750
X1.600Y-1.200
X1.600Y-1.800
T2
X1.280Y0.760
X1.280Y0.660
T3
X-0.605Y-0.325
X-0.605Y-0.435
X-0.605Y-0.545
X-0.605Y-0.655
X-0.605Y-0.760
X-0.605Y-0.870
X-0.605Y-0.980
X-0.605Y-1.090
X-0.605Y-1.200
X-0.605Y-1.305
X-0.605Y-1.415
X-0.605Y-1.525
X-0.495Y-0.270
X-0.495Y-0.380
X-0.495Y-0.490
X-0.495Y-0.595
X-0.495Y-0.705
X-0.495Y-0.815
X-0.495Y-0.925
X-0.495Y-1.035
X-0.495Y-1.140
X-0.495Y-1.250
X-0.495Y-1.360
X-0.495Y-1.470
X-0.495Y-1.580
T4
X-0.550Y0.000
X-0.550Y-1.850
T0
M30
