M48
;DRILL file {Pcbnew (2012-01-19 BZR 3256)-stable} date 12/4/2012 8:10:26 AM
;FORMAT={-:-/ absolute / inch / decimal}
FMAT,2
INCH,TZ
T1C0.020
T2C0.032
T3C0.039
T4C0.040
T5C0.120
%
G90
G05
M72
T1
X-0.275Y1.800
X-0.270Y0.810
X-0.184Y1.012
X-0.175Y1.375
X-0.175Y0.835
X-0.170Y0.790
X-0.150Y1.250
X-0.150Y0.375
X-0.135Y1.335
X-0.125Y0.700
X-0.110Y0.800
X-0.090Y1.560
X-0.005Y1.460
X0.025Y0.375
X0.050Y0.625
X0.055Y1.800
X0.100Y0.650
X0.125Y1.325
X0.150Y0.665
X0.198Y1.423
X0.200Y0.450
X0.210Y1.230
X0.245Y1.495
X0.260Y1.360
X0.260Y1.210
X0.260Y0.755
X0.320Y0.485
X0.405Y1.240
X0.410Y0.965
X0.425Y0.875
X0.445Y1.300
X0.475Y1.405
X0.481Y0.680
X0.490Y1.150
X0.490Y0.905
X0.510Y1.545
X0.515Y0.590
X0.525Y0.425
X0.540Y1.045
X0.540Y0.915
X0.625Y1.175
X0.625Y1.015
X0.665Y1.625
X0.680Y1.755
X0.745Y1.525
X0.755Y0.715
X0.760Y1.735
X0.760Y0.815
X0.765Y1.070
X0.780Y1.820
X0.805Y0.445
X0.805Y0.335
X0.810Y0.500
X0.835Y0.845
X0.875Y1.525
X0.880Y1.320
X0.885Y1.155
X0.945Y0.785
X0.950Y1.740
X0.950Y0.450
X0.960Y1.220
X0.990Y1.665
X0.990Y1.535
X0.995Y1.320
X1.000Y1.830
X1.000Y1.120
X1.025Y1.745
X1.025Y1.445
X1.050Y0.965
X1.075Y1.155
X1.085Y1.830
X1.095Y1.375
X1.095Y1.315
X1.095Y1.200
X1.120Y1.435
X1.140Y0.905
X1.150Y1.055
X1.215Y0.830
X1.225Y1.030
X1.246Y1.148
X1.255Y1.225
X1.290Y1.680
X1.315Y0.625
X1.320Y1.715
X1.320Y1.635
X1.365Y1.905
X1.365Y1.755
X1.395Y0.650
X1.405Y1.250
X1.410Y1.755
X1.415Y0.725
X1.425Y0.575
X1.440Y0.925
X1.450Y1.145
X1.465Y0.690
X1.480Y1.250
X1.495Y1.000
X1.495Y0.920
X1.500Y1.205
X1.510Y0.370
X1.511Y0.450
X1.522Y1.510
X1.525Y0.550
X1.530Y1.765
X1.530Y1.625
X1.615Y1.725
X1.630Y0.460
X1.650Y1.800
X1.675Y0.650
X1.675Y0.340
X1.690Y1.760
X1.735Y1.055
X1.750Y1.460
X1.754Y1.870
X1.754Y1.715
X1.755Y1.320
X1.755Y1.140
X1.775Y1.505
X1.800Y1.577
X1.805Y1.020
X1.825Y0.700
X1.826Y1.320
X1.830Y0.340
X1.835Y0.770
X1.848Y0.923
X1.850Y0.650
X1.850Y0.500
X1.855Y1.471
X1.855Y1.420
X1.875Y1.545
X1.875Y1.060
X1.877Y1.689
X1.885Y0.470
X1.885Y0.340
X1.900Y0.924
X1.925Y1.755
X1.942Y1.156
X1.960Y1.225
X1.965Y1.020
X1.970Y1.403
X1.978Y1.112
X1.985Y1.175
X1.990Y1.560
X1.993Y1.624
X1.995Y1.325
X2.005Y1.041
X2.034Y1.076
X2.050Y0.790
X2.050Y0.700
X2.060Y0.965
X2.078Y1.018
X2.090Y0.420
X2.100Y0.800
X2.100Y0.550
X2.115Y0.868
X2.125Y0.645
X2.140Y0.359
X2.145Y1.680
X2.180Y0.390
X2.190Y0.790
X2.190Y1.640
X2.230Y1.745
X2.235Y0.600
X2.240Y1.595
X2.240Y1.460
X2.250Y1.285
X2.250Y0.500
X2.259Y1.025
X2.270Y1.425
X2.280Y1.225
X2.285Y1.125
X2.345Y1.590
X2.350Y1.425
X2.352Y1.001
X2.640Y1.725
X2.650Y1.280
X2.685Y1.700
X2.725Y1.850
X2.735Y1.460
X2.740Y1.195
X2.750Y0.500
X2.755Y0.390
X2.770Y1.795
X2.850Y1.850
X2.875Y1.495
X2.885Y1.795
X2.895Y1.665
X2.895Y0.935
X2.925Y0.625
X2.925Y0.395
X2.970Y1.155
X3.020Y0.590
X3.020Y0.425
X3.130Y1.740
X3.132Y0.857
X3.138Y0.799
X3.319Y0.670
X3.330Y0.622
X3.430Y0.960
X3.435Y1.225
X3.470Y0.440
X3.479Y1.263
X3.505Y1.640
X3.640Y1.640
X3.650Y1.183
X3.675Y0.930
X3.695Y1.520
X3.754Y1.634
X3.755Y1.580
X3.800Y1.030
X3.845Y1.725
X3.960Y1.780
X4.000Y1.825
X4.070Y1.820
X4.075Y1.055
X4.125Y0.905
X4.165Y1.525
X4.165Y1.020
X4.194Y0.765
X4.230Y0.734
X4.240Y1.230
X4.245Y1.425
X4.250Y1.750
X4.330Y1.865
X4.335Y1.685
X4.350Y1.040
X4.359Y0.878
X4.365Y1.105
X4.375Y1.000
X4.380Y1.475
X4.400Y1.800
X4.400Y1.725
X4.450Y1.800
X4.450Y1.725
X4.450Y0.850
X4.478Y0.948
X4.495Y1.110
X4.520Y1.430
X4.557Y1.049
X4.560Y0.950
X4.616Y1.471
X4.645Y0.335
X4.675Y0.960
X4.710Y0.335
X4.720Y0.840
X4.745Y1.340
X4.750Y1.225
X4.860Y1.750
X4.900Y1.325
X4.905Y1.235
X4.910Y1.425
X4.985Y1.525
X4.990Y1.370
X4.990Y1.240
X4.995Y1.425
X5.140Y1.200
X5.155Y1.370
X5.155Y1.285
X5.230Y1.430
X5.237Y1.667
X5.275Y1.630
X5.330Y1.530
X5.340Y1.330
X5.340Y1.220
X5.390Y1.300
X5.425Y1.125
X5.475Y1.630
X5.535Y1.125
X5.560Y1.665
X5.655Y0.565
X5.900Y0.650
X5.900Y0.500
X6.050Y1.750
X6.055Y1.885
X6.150Y0.425
X6.500Y1.300
X6.500Y0.350
X6.600Y0.750
X6.750Y1.150
X6.750Y1.050
T2
X-0.430Y1.555
X-0.330Y1.555
X1.300Y1.575
X2.175Y1.575
X3.050Y1.575
X3.925Y1.575
X4.800Y1.575
X5.675Y1.575
T3
X-0.655Y1.820
X-0.555Y1.820
X-0.455Y1.820
X-0.355Y1.820
X3.470Y0.570
X3.570Y0.570
X3.670Y0.570
X3.770Y0.570
X4.452Y0.584
X4.550Y0.486
X4.648Y0.584
X6.680Y1.820
X6.780Y1.820
X6.880Y1.820
X6.915Y1.675
X6.915Y1.575
X6.915Y1.475
X6.915Y1.375
X6.915Y1.235
X6.915Y1.135
X6.915Y1.035
X6.915Y0.935
X6.915Y0.795
X6.915Y0.695
X6.915Y0.595
X6.915Y0.495
X6.915Y0.355
X6.915Y0.255
X6.915Y0.155
X6.915Y0.055
X6.980Y1.820
T4
X0.385Y1.815
X0.385Y1.715
X0.385Y1.615
X0.485Y1.815
X0.485Y1.715
X0.485Y1.615
X0.700Y1.575
X0.700Y1.475
X0.700Y1.375
X0.700Y1.275
X0.700Y1.175
X0.700Y1.075
X1.300Y1.475
X1.300Y1.375
X1.300Y1.275
X1.300Y1.175
X1.300Y1.075
X1.300Y0.975
X1.300Y0.875
X1.575Y1.575
X1.575Y1.475
X1.575Y1.375
X1.575Y1.275
X1.575Y1.175
X1.575Y1.075
X2.175Y1.475
X2.175Y1.375
X2.175Y1.275
X2.175Y1.175
X2.175Y1.075
X2.175Y0.975
X2.175Y0.875
X2.450Y1.575
X2.450Y1.475
X2.450Y1.375
X2.450Y1.275
X2.450Y1.175
X2.450Y1.075
X3.050Y1.475
X3.050Y1.375
X3.050Y1.275
X3.050Y1.175
X3.050Y1.075
X3.050Y0.975
X3.050Y0.875
X3.325Y1.575
X3.325Y1.475
X3.325Y1.375
X3.325Y1.275
X3.325Y1.175
X3.325Y1.075
X3.925Y1.475
X3.925Y1.375
X3.925Y1.275
X3.925Y1.175
X3.925Y1.075
X3.925Y0.975
X3.925Y0.875
X4.200Y1.575
X4.200Y1.475
X4.200Y1.375
X4.200Y1.275
X4.200Y1.175
X4.200Y1.075
X4.800Y1.475
X4.800Y1.375
X4.800Y1.275
X4.800Y1.175
X4.800Y1.075
X4.800Y0.975
X4.800Y0.875
X5.075Y1.575
X5.075Y1.475
X5.075Y1.375
X5.075Y1.275
X5.075Y1.175
X5.075Y1.075
X5.675Y1.475
X5.675Y1.375
X5.675Y1.275
X5.675Y1.175
X5.675Y1.075
X5.675Y0.975
X5.675Y0.875
X6.425Y0.950
X6.425Y0.850
X6.425Y0.750
X6.600Y1.300
X6.600Y1.200
X6.600Y0.950
X6.600Y0.850
X6.600Y0.750
X6.750Y0.950
X6.750Y0.850
X6.750Y0.750
T5
X0.000Y1.650
X0.000Y0.150
X6.375Y1.650
X6.375Y0.150
T0
M30
