G04 (created by PCBNEW-RS274X (2012-01-19 BZR 3256)-stable) date 11/28/2012 10:05:24 AM*
G01*
G70*
G90*
%MOIN*%
G04 Gerber Fmt 3.4, Leading zero omitted, Abs format*
%FSLAX34Y34*%
G04 APERTURE LIST*
%ADD10C,0.006000*%
%ADD11C,0.012000*%
%ADD12C,0.007500*%
%ADD13C,0.015000*%
%ADD14C,0.008000*%
%ADD15C,0.010000*%
G04 APERTURE END LIST*
G54D10*
G54D11*
X89779Y-32250D02*
X89808Y-32212D01*
X89865Y-32174D01*
X90008Y-32174D01*
X90065Y-32212D01*
X90094Y-32250D01*
X90122Y-32326D01*
X90122Y-32402D01*
X90094Y-32517D01*
X89751Y-32974D01*
X90122Y-32974D01*
X88822Y-32974D02*
X88479Y-32974D01*
X88651Y-32974D02*
X88651Y-32174D01*
X88594Y-32288D01*
X88536Y-32364D01*
X88479Y-32402D01*
X88615Y-28290D02*
X88615Y-28824D01*
X88472Y-27986D02*
X88329Y-28557D01*
X88701Y-28557D01*
X89751Y-28024D02*
X90122Y-28024D01*
X89922Y-28329D01*
X90008Y-28329D01*
X90065Y-28367D01*
X90094Y-28405D01*
X90122Y-28481D01*
X90122Y-28671D01*
X90094Y-28748D01*
X90065Y-28786D01*
X90008Y-28824D01*
X89836Y-28824D01*
X89779Y-28786D01*
X89751Y-28748D01*
X87224Y-28756D02*
X86424Y-28756D01*
X86424Y-28528D01*
X86462Y-28470D01*
X86500Y-28442D01*
X86576Y-28413D01*
X86690Y-28413D01*
X86767Y-28442D01*
X86805Y-28470D01*
X86843Y-28528D01*
X86843Y-28756D01*
X87224Y-28070D02*
X87186Y-28128D01*
X87110Y-28156D01*
X86424Y-28156D01*
X87224Y-27585D02*
X86805Y-27585D01*
X86729Y-27614D01*
X86690Y-27671D01*
X86690Y-27785D01*
X86729Y-27842D01*
X87186Y-27585D02*
X87224Y-27642D01*
X87224Y-27785D01*
X87186Y-27842D01*
X87110Y-27871D01*
X87033Y-27871D01*
X86957Y-27842D01*
X86919Y-27785D01*
X86919Y-27642D01*
X86881Y-27585D01*
X86690Y-27356D02*
X87224Y-27213D01*
X86690Y-27071D02*
X87224Y-27213D01*
X87414Y-27271D01*
X87452Y-27299D01*
X87490Y-27356D01*
X87186Y-26614D02*
X87224Y-26671D01*
X87224Y-26785D01*
X87186Y-26842D01*
X87110Y-26871D01*
X86805Y-26871D01*
X86729Y-26842D01*
X86690Y-26785D01*
X86690Y-26671D01*
X86729Y-26614D01*
X86805Y-26585D01*
X86881Y-26585D01*
X86957Y-26871D01*
X87224Y-26328D02*
X86690Y-26328D01*
X86843Y-26328D02*
X86767Y-26300D01*
X86729Y-26271D01*
X86690Y-26214D01*
X86690Y-26157D01*
X86974Y-34136D02*
X86174Y-34136D01*
X86745Y-33936D01*
X86174Y-33736D01*
X86974Y-33736D01*
X86974Y-33193D02*
X86555Y-33193D01*
X86479Y-33222D01*
X86440Y-33279D01*
X86440Y-33393D01*
X86479Y-33450D01*
X86936Y-33193D02*
X86974Y-33250D01*
X86974Y-33393D01*
X86936Y-33450D01*
X86860Y-33479D01*
X86783Y-33479D01*
X86707Y-33450D01*
X86669Y-33393D01*
X86669Y-33250D01*
X86631Y-33193D01*
X86974Y-32907D02*
X86440Y-32907D01*
X86174Y-32907D02*
X86212Y-32936D01*
X86250Y-32907D01*
X86212Y-32879D01*
X86174Y-32907D01*
X86250Y-32907D01*
X86440Y-32621D02*
X86974Y-32621D01*
X86517Y-32621D02*
X86479Y-32593D01*
X86440Y-32535D01*
X86440Y-32450D01*
X86479Y-32393D01*
X86555Y-32364D01*
X86974Y-32364D01*
X74188Y-38824D02*
X73845Y-38824D01*
X74017Y-38824D02*
X74017Y-38024D01*
X73960Y-38138D01*
X73902Y-38214D01*
X73845Y-38252D01*
X74559Y-38024D02*
X74616Y-38024D01*
X74673Y-38062D01*
X74702Y-38100D01*
X74731Y-38176D01*
X74759Y-38329D01*
X74759Y-38519D01*
X74731Y-38671D01*
X74702Y-38748D01*
X74673Y-38786D01*
X74616Y-38824D01*
X74559Y-38824D01*
X74502Y-38786D01*
X74473Y-38748D01*
X74445Y-38671D01*
X74416Y-38519D01*
X74416Y-38329D01*
X74445Y-38176D01*
X74473Y-38100D01*
X74502Y-38062D01*
X74559Y-38024D01*
X75130Y-38024D02*
X75187Y-38024D01*
X75244Y-38062D01*
X75273Y-38100D01*
X75302Y-38176D01*
X75330Y-38329D01*
X75330Y-38519D01*
X75302Y-38671D01*
X75273Y-38748D01*
X75244Y-38786D01*
X75187Y-38824D01*
X75130Y-38824D01*
X75073Y-38786D01*
X75044Y-38748D01*
X75016Y-38671D01*
X74987Y-38519D01*
X74987Y-38329D01*
X75016Y-38176D01*
X75044Y-38100D01*
X75073Y-38062D01*
X75130Y-38024D01*
X75673Y-38367D02*
X75615Y-38329D01*
X75587Y-38290D01*
X75558Y-38214D01*
X75558Y-38176D01*
X75587Y-38100D01*
X75615Y-38062D01*
X75673Y-38024D01*
X75787Y-38024D01*
X75844Y-38062D01*
X75873Y-38100D01*
X75901Y-38176D01*
X75901Y-38214D01*
X75873Y-38290D01*
X75844Y-38329D01*
X75787Y-38367D01*
X75673Y-38367D01*
X75615Y-38405D01*
X75587Y-38443D01*
X75558Y-38519D01*
X75558Y-38671D01*
X75587Y-38748D01*
X75615Y-38786D01*
X75673Y-38824D01*
X75787Y-38824D01*
X75844Y-38786D01*
X75873Y-38748D01*
X75901Y-38671D01*
X75901Y-38519D01*
X75873Y-38443D01*
X75844Y-38405D01*
X75787Y-38367D01*
X76158Y-38519D02*
X76615Y-38519D01*
X77015Y-38024D02*
X77072Y-38024D01*
X77129Y-38062D01*
X77158Y-38100D01*
X77187Y-38176D01*
X77215Y-38329D01*
X77215Y-38519D01*
X77187Y-38671D01*
X77158Y-38748D01*
X77129Y-38786D01*
X77072Y-38824D01*
X77015Y-38824D01*
X76958Y-38786D01*
X76929Y-38748D01*
X76901Y-38671D01*
X76872Y-38519D01*
X76872Y-38329D01*
X76901Y-38176D01*
X76929Y-38100D01*
X76958Y-38062D01*
X77015Y-38024D01*
X77586Y-38024D02*
X77643Y-38024D01*
X77700Y-38062D01*
X77729Y-38100D01*
X77758Y-38176D01*
X77786Y-38329D01*
X77786Y-38519D01*
X77758Y-38671D01*
X77729Y-38748D01*
X77700Y-38786D01*
X77643Y-38824D01*
X77586Y-38824D01*
X77529Y-38786D01*
X77500Y-38748D01*
X77472Y-38671D01*
X77443Y-38519D01*
X77443Y-38329D01*
X77472Y-38176D01*
X77500Y-38100D01*
X77529Y-38062D01*
X77586Y-38024D01*
X78357Y-38824D02*
X78014Y-38824D01*
X78186Y-38824D02*
X78186Y-38024D01*
X78129Y-38138D01*
X78071Y-38214D01*
X78014Y-38252D01*
X79071Y-38824D02*
X79071Y-38290D01*
X79071Y-38443D02*
X79099Y-38367D01*
X79128Y-38329D01*
X79185Y-38290D01*
X79242Y-38290D01*
X79670Y-38786D02*
X79613Y-38824D01*
X79499Y-38824D01*
X79442Y-38786D01*
X79413Y-38710D01*
X79413Y-38405D01*
X79442Y-38329D01*
X79499Y-38290D01*
X79613Y-38290D01*
X79670Y-38329D01*
X79699Y-38405D01*
X79699Y-38481D01*
X79413Y-38557D01*
X79899Y-38290D02*
X80042Y-38824D01*
X80184Y-38290D01*
G54D12*
X87807Y-25212D02*
X87807Y-24945D01*
X87807Y-24812D02*
X87793Y-24831D01*
X87807Y-24850D01*
X87822Y-24831D01*
X87807Y-24812D01*
X87807Y-24850D01*
X87936Y-24850D02*
X87950Y-24831D01*
X87979Y-24812D01*
X88050Y-24812D01*
X88079Y-24831D01*
X88093Y-24850D01*
X88108Y-24888D01*
X88108Y-24926D01*
X88093Y-24983D01*
X87922Y-25212D01*
X88108Y-25212D01*
X88365Y-25193D02*
X88336Y-25212D01*
X88279Y-25212D01*
X88251Y-25193D01*
X88236Y-25174D01*
X88222Y-25136D01*
X88222Y-25021D01*
X88236Y-24983D01*
X88251Y-24964D01*
X88279Y-24945D01*
X88336Y-24945D01*
X88365Y-24964D01*
X88722Y-24945D02*
X88722Y-25345D01*
X88722Y-24964D02*
X88751Y-24945D01*
X88808Y-24945D01*
X88837Y-24964D01*
X88851Y-24983D01*
X88865Y-25021D01*
X88865Y-25136D01*
X88851Y-25174D01*
X88837Y-25193D01*
X88808Y-25212D01*
X88751Y-25212D01*
X88722Y-25193D01*
X89122Y-24945D02*
X89122Y-25212D01*
X88993Y-24945D02*
X88993Y-25155D01*
X89008Y-25193D01*
X89036Y-25212D01*
X89079Y-25212D01*
X89108Y-25193D01*
X89122Y-25174D01*
X89264Y-24945D02*
X89264Y-25345D01*
X89264Y-24964D02*
X89293Y-24945D01*
X89350Y-24945D01*
X89379Y-24964D01*
X89393Y-24983D01*
X89407Y-25021D01*
X89407Y-25136D01*
X89393Y-25174D01*
X89379Y-25193D01*
X89350Y-25212D01*
X89293Y-25212D01*
X89264Y-25193D01*
G54D13*
X17100Y-22650D02*
X14100Y-22650D01*
X17100Y-25150D02*
X17100Y-22650D01*
X14100Y-25150D02*
X17100Y-25150D01*
X72750Y-36300D02*
X72750Y-39300D01*
X70250Y-36300D02*
X72750Y-36300D01*
X70250Y-39300D02*
X70250Y-36300D01*
X60800Y-36300D02*
X55800Y-36300D01*
X60800Y-39300D02*
X60800Y-36300D01*
X55800Y-39300D02*
X55800Y-36300D01*
X25000Y-36300D02*
X25000Y-39300D01*
X27500Y-36300D02*
X25000Y-36300D01*
X27500Y-39300D02*
X27500Y-36300D01*
X14029Y-39370D02*
X92769Y-39370D01*
X14030Y-19685D02*
X14030Y-39370D01*
X92770Y-19685D02*
X14030Y-19685D01*
X92770Y-39370D02*
X92770Y-19685D01*
X92750Y-26150D02*
X92750Y-30150D01*
X92750Y-30150D02*
X91250Y-30150D01*
X91250Y-30150D02*
X91250Y-26150D01*
X91250Y-26150D02*
X92750Y-26150D01*
X92750Y-34950D02*
X92750Y-38950D01*
X92750Y-38950D02*
X91250Y-38950D01*
X91250Y-38950D02*
X91250Y-34950D01*
X91250Y-34950D02*
X92750Y-34950D01*
X92750Y-30550D02*
X92750Y-34550D01*
X92750Y-34550D02*
X91250Y-34550D01*
X91250Y-34550D02*
X91250Y-30550D01*
X91250Y-30550D02*
X92750Y-30550D01*
X92750Y-21750D02*
X92750Y-25750D01*
X92750Y-25750D02*
X91250Y-25750D01*
X91250Y-25750D02*
X91250Y-21750D01*
X91250Y-21750D02*
X92750Y-21750D01*
X88800Y-19700D02*
X92800Y-19700D01*
X92800Y-19700D02*
X92800Y-21200D01*
X92800Y-21200D02*
X88800Y-21200D01*
X88800Y-21200D02*
X88800Y-19700D01*
X15450Y-19700D02*
X19450Y-19700D01*
X19450Y-19700D02*
X19450Y-21200D01*
X19450Y-21200D02*
X15450Y-21200D01*
X15450Y-21200D02*
X15450Y-19700D01*
G54D14*
X27850Y-20350D02*
X27850Y-23350D01*
X25850Y-23350D02*
X25850Y-20350D01*
X25850Y-20350D02*
X27850Y-20350D01*
X27850Y-23350D02*
X25850Y-23350D01*
G54D13*
X69378Y-35325D02*
X69378Y-32175D01*
X69378Y-32175D02*
X66622Y-32175D01*
X66622Y-32175D02*
X66622Y-35325D01*
X66622Y-35325D02*
X69378Y-35325D01*
G54D10*
X90500Y-32000D02*
X89500Y-32000D01*
X89500Y-32000D02*
X89500Y-29000D01*
X89500Y-29000D02*
X90500Y-29000D01*
X90500Y-29000D02*
X90500Y-32000D01*
X89500Y-31000D02*
X90500Y-31000D01*
X89000Y-32000D02*
X88000Y-32000D01*
X88000Y-32000D02*
X88000Y-29000D01*
X88000Y-29000D02*
X89000Y-29000D01*
X89000Y-29000D02*
X89000Y-32000D01*
X88000Y-31000D02*
X89000Y-31000D01*
X86250Y-29000D02*
X87250Y-29000D01*
X87250Y-29000D02*
X87250Y-32000D01*
X87250Y-32000D02*
X86250Y-32000D01*
X86250Y-32000D02*
X86250Y-29000D01*
X87250Y-30000D02*
X86250Y-30000D01*
G54D13*
X87150Y-37500D02*
X87132Y-37674D01*
X87082Y-37842D01*
X86999Y-37998D01*
X86888Y-38134D01*
X86753Y-38246D01*
X86598Y-38329D01*
X86430Y-38381D01*
X86256Y-38399D01*
X86082Y-38384D01*
X85913Y-38334D01*
X85758Y-38253D01*
X85621Y-38143D01*
X85508Y-38008D01*
X85423Y-37854D01*
X85370Y-37687D01*
X85351Y-37512D01*
X85365Y-37338D01*
X85414Y-37169D01*
X85494Y-37013D01*
X85603Y-36875D01*
X85737Y-36761D01*
X85890Y-36676D01*
X86057Y-36621D01*
X86232Y-36601D01*
X86406Y-36614D01*
X86575Y-36661D01*
X86732Y-36741D01*
X86870Y-36849D01*
X86985Y-36982D01*
X87072Y-37134D01*
X87127Y-37301D01*
X87149Y-37475D01*
X87150Y-37500D01*
X23400Y-37500D02*
X23382Y-37674D01*
X23332Y-37842D01*
X23249Y-37998D01*
X23138Y-38134D01*
X23003Y-38246D01*
X22848Y-38329D01*
X22680Y-38381D01*
X22506Y-38399D01*
X22332Y-38384D01*
X22163Y-38334D01*
X22008Y-38253D01*
X21871Y-38143D01*
X21758Y-38008D01*
X21673Y-37854D01*
X21620Y-37687D01*
X21601Y-37512D01*
X21615Y-37338D01*
X21664Y-37169D01*
X21744Y-37013D01*
X21853Y-36875D01*
X21987Y-36761D01*
X22140Y-36676D01*
X22307Y-36621D01*
X22482Y-36601D01*
X22656Y-36614D01*
X22825Y-36661D01*
X22982Y-36741D01*
X23120Y-36849D01*
X23235Y-36982D01*
X23322Y-37134D01*
X23377Y-37301D01*
X23399Y-37475D01*
X23400Y-37500D01*
X87150Y-22500D02*
X87132Y-22674D01*
X87082Y-22842D01*
X86999Y-22998D01*
X86888Y-23134D01*
X86753Y-23246D01*
X86598Y-23329D01*
X86430Y-23381D01*
X86256Y-23399D01*
X86082Y-23384D01*
X85913Y-23334D01*
X85758Y-23253D01*
X85621Y-23143D01*
X85508Y-23008D01*
X85423Y-22854D01*
X85370Y-22687D01*
X85351Y-22512D01*
X85365Y-22338D01*
X85414Y-22169D01*
X85494Y-22013D01*
X85603Y-21875D01*
X85737Y-21761D01*
X85890Y-21676D01*
X86057Y-21621D01*
X86232Y-21601D01*
X86406Y-21614D01*
X86575Y-21661D01*
X86732Y-21741D01*
X86870Y-21849D01*
X86985Y-21982D01*
X87072Y-22134D01*
X87127Y-22301D01*
X87149Y-22475D01*
X87150Y-22500D01*
X23400Y-22500D02*
X23382Y-22674D01*
X23332Y-22842D01*
X23249Y-22998D01*
X23138Y-23134D01*
X23003Y-23246D01*
X22848Y-23329D01*
X22680Y-23381D01*
X22506Y-23399D01*
X22332Y-23384D01*
X22163Y-23334D01*
X22008Y-23253D01*
X21871Y-23143D01*
X21758Y-23008D01*
X21673Y-22854D01*
X21620Y-22687D01*
X21601Y-22512D01*
X21615Y-22338D01*
X21664Y-22169D01*
X21744Y-22013D01*
X21853Y-21875D01*
X21987Y-21761D01*
X22140Y-21676D01*
X22307Y-21621D01*
X22482Y-21601D01*
X22656Y-21614D01*
X22825Y-21661D01*
X22982Y-21741D01*
X23120Y-21849D01*
X23235Y-21982D01*
X23322Y-22134D01*
X23377Y-22301D01*
X23399Y-22475D01*
X23400Y-22500D01*
G54D10*
X88000Y-25500D02*
X89000Y-25500D01*
X89000Y-25500D02*
X89000Y-27500D01*
X89000Y-27500D02*
X88000Y-27500D01*
X88000Y-27500D02*
X88000Y-25500D01*
G54D13*
X46000Y-20750D02*
X46000Y-31750D01*
X46000Y-31750D02*
X54000Y-31750D01*
X54000Y-31750D02*
X54000Y-20750D01*
X54000Y-20750D02*
X46000Y-20750D01*
X54750Y-20750D02*
X54750Y-31750D01*
X54750Y-31750D02*
X62750Y-31750D01*
X62750Y-31750D02*
X62750Y-20750D01*
X62750Y-20750D02*
X54750Y-20750D01*
X37250Y-20750D02*
X37250Y-31750D01*
X37250Y-31750D02*
X45250Y-31750D01*
X45250Y-31750D02*
X45250Y-20750D01*
X45250Y-20750D02*
X37250Y-20750D01*
X63500Y-20750D02*
X63500Y-31750D01*
X63500Y-31750D02*
X71500Y-31750D01*
X71500Y-31750D02*
X71500Y-20750D01*
X71500Y-20750D02*
X63500Y-20750D01*
X72250Y-20750D02*
X72250Y-31750D01*
X72250Y-31750D02*
X80250Y-31750D01*
X80250Y-31750D02*
X80250Y-20750D01*
X80250Y-20750D02*
X72250Y-20750D01*
X28500Y-20750D02*
X28500Y-31750D01*
X28500Y-31750D02*
X36500Y-31750D01*
X36500Y-31750D02*
X36500Y-20750D01*
X36500Y-20750D02*
X28500Y-20750D01*
G54D11*
X91143Y-29163D02*
X90543Y-29163D01*
X90543Y-28935D01*
X90571Y-28877D01*
X90600Y-28849D01*
X90657Y-28820D01*
X90743Y-28820D01*
X90800Y-28849D01*
X90829Y-28877D01*
X90857Y-28935D01*
X90857Y-29163D01*
X90543Y-28277D02*
X90543Y-28563D01*
X90829Y-28592D01*
X90800Y-28563D01*
X90771Y-28506D01*
X90771Y-28363D01*
X90800Y-28306D01*
X90829Y-28277D01*
X90886Y-28249D01*
X91029Y-28249D01*
X91086Y-28277D01*
X91114Y-28306D01*
X91143Y-28363D01*
X91143Y-28506D01*
X91114Y-28563D01*
X91086Y-28592D01*
X90543Y-27878D02*
X90543Y-27821D01*
X90571Y-27764D01*
X90600Y-27735D01*
X90657Y-27706D01*
X90771Y-27678D01*
X90914Y-27678D01*
X91029Y-27706D01*
X91086Y-27735D01*
X91114Y-27764D01*
X91143Y-27821D01*
X91143Y-27878D01*
X91114Y-27935D01*
X91086Y-27964D01*
X91029Y-27992D01*
X90914Y-28021D01*
X90771Y-28021D01*
X90657Y-27992D01*
X90600Y-27964D01*
X90571Y-27935D01*
X90543Y-27878D01*
X91143Y-27393D02*
X91143Y-27278D01*
X91114Y-27221D01*
X91086Y-27193D01*
X91000Y-27135D01*
X90886Y-27107D01*
X90657Y-27107D01*
X90600Y-27135D01*
X90571Y-27164D01*
X90543Y-27221D01*
X90543Y-27335D01*
X90571Y-27393D01*
X90600Y-27421D01*
X90657Y-27450D01*
X90800Y-27450D01*
X90857Y-27421D01*
X90886Y-27393D01*
X90914Y-27335D01*
X90914Y-27221D01*
X90886Y-27164D01*
X90857Y-27135D01*
X90800Y-27107D01*
X90943Y-37863D02*
X90343Y-37863D01*
X90343Y-37635D01*
X90371Y-37577D01*
X90400Y-37549D01*
X90457Y-37520D01*
X90543Y-37520D01*
X90600Y-37549D01*
X90629Y-37577D01*
X90657Y-37635D01*
X90657Y-37863D01*
X90343Y-36977D02*
X90343Y-37263D01*
X90629Y-37292D01*
X90600Y-37263D01*
X90571Y-37206D01*
X90571Y-37063D01*
X90600Y-37006D01*
X90629Y-36977D01*
X90686Y-36949D01*
X90829Y-36949D01*
X90886Y-36977D01*
X90914Y-37006D01*
X90943Y-37063D01*
X90943Y-37206D01*
X90914Y-37263D01*
X90886Y-37292D01*
X90943Y-36378D02*
X90943Y-36721D01*
X90943Y-36549D02*
X90343Y-36549D01*
X90429Y-36606D01*
X90486Y-36664D01*
X90514Y-36721D01*
X90943Y-35807D02*
X90943Y-36150D01*
X90943Y-35978D02*
X90343Y-35978D01*
X90429Y-36035D01*
X90486Y-36093D01*
X90514Y-36150D01*
X91143Y-33613D02*
X90543Y-33613D01*
X90543Y-33385D01*
X90571Y-33327D01*
X90600Y-33299D01*
X90657Y-33270D01*
X90743Y-33270D01*
X90800Y-33299D01*
X90829Y-33327D01*
X90857Y-33385D01*
X90857Y-33613D01*
X90543Y-32727D02*
X90543Y-33013D01*
X90829Y-33042D01*
X90800Y-33013D01*
X90771Y-32956D01*
X90771Y-32813D01*
X90800Y-32756D01*
X90829Y-32727D01*
X90886Y-32699D01*
X91029Y-32699D01*
X91086Y-32727D01*
X91114Y-32756D01*
X91143Y-32813D01*
X91143Y-32956D01*
X91114Y-33013D01*
X91086Y-33042D01*
X91143Y-32128D02*
X91143Y-32471D01*
X91143Y-32299D02*
X90543Y-32299D01*
X90629Y-32356D01*
X90686Y-32414D01*
X90714Y-32471D01*
X90600Y-31900D02*
X90571Y-31871D01*
X90543Y-31814D01*
X90543Y-31671D01*
X90571Y-31614D01*
X90600Y-31585D01*
X90657Y-31557D01*
X90714Y-31557D01*
X90800Y-31585D01*
X91143Y-31928D01*
X91143Y-31557D01*
X91093Y-24813D02*
X90493Y-24813D01*
X90493Y-24585D01*
X90521Y-24527D01*
X90550Y-24499D01*
X90607Y-24470D01*
X90693Y-24470D01*
X90750Y-24499D01*
X90779Y-24527D01*
X90807Y-24585D01*
X90807Y-24813D01*
X90493Y-23927D02*
X90493Y-24213D01*
X90779Y-24242D01*
X90750Y-24213D01*
X90721Y-24156D01*
X90721Y-24013D01*
X90750Y-23956D01*
X90779Y-23927D01*
X90836Y-23899D01*
X90979Y-23899D01*
X91036Y-23927D01*
X91064Y-23956D01*
X91093Y-24013D01*
X91093Y-24156D01*
X91064Y-24213D01*
X91036Y-24242D01*
X91093Y-23328D02*
X91093Y-23671D01*
X91093Y-23499D02*
X90493Y-23499D01*
X90579Y-23556D01*
X90636Y-23614D01*
X90664Y-23671D01*
X90493Y-22957D02*
X90493Y-22900D01*
X90521Y-22843D01*
X90550Y-22814D01*
X90607Y-22785D01*
X90721Y-22757D01*
X90864Y-22757D01*
X90979Y-22785D01*
X91036Y-22814D01*
X91064Y-22843D01*
X91093Y-22900D01*
X91093Y-22957D01*
X91064Y-23014D01*
X91036Y-23043D01*
X90979Y-23071D01*
X90864Y-23100D01*
X90721Y-23100D01*
X90607Y-23071D01*
X90550Y-23043D01*
X90521Y-23014D01*
X90493Y-22957D01*
X88537Y-22043D02*
X88537Y-21443D01*
X88765Y-21443D01*
X88823Y-21471D01*
X88851Y-21500D01*
X88880Y-21557D01*
X88880Y-21643D01*
X88851Y-21700D01*
X88823Y-21729D01*
X88765Y-21757D01*
X88537Y-21757D01*
X89423Y-21443D02*
X89137Y-21443D01*
X89108Y-21729D01*
X89137Y-21700D01*
X89194Y-21671D01*
X89337Y-21671D01*
X89394Y-21700D01*
X89423Y-21729D01*
X89451Y-21786D01*
X89451Y-21929D01*
X89423Y-21986D01*
X89394Y-22014D01*
X89337Y-22043D01*
X89194Y-22043D01*
X89137Y-22014D01*
X89108Y-21986D01*
X89822Y-21443D02*
X89879Y-21443D01*
X89936Y-21471D01*
X89965Y-21500D01*
X89994Y-21557D01*
X90022Y-21671D01*
X90022Y-21814D01*
X89994Y-21929D01*
X89965Y-21986D01*
X89936Y-22014D01*
X89879Y-22043D01*
X89822Y-22043D01*
X89765Y-22014D01*
X89736Y-21986D01*
X89708Y-21929D01*
X89679Y-21814D01*
X89679Y-21671D01*
X89708Y-21557D01*
X89736Y-21500D01*
X89765Y-21471D01*
X89822Y-21443D01*
X90222Y-21443D02*
X90593Y-21443D01*
X90393Y-21671D01*
X90479Y-21671D01*
X90536Y-21700D01*
X90565Y-21729D01*
X90593Y-21786D01*
X90593Y-21929D01*
X90565Y-21986D01*
X90536Y-22014D01*
X90479Y-22043D01*
X90307Y-22043D01*
X90250Y-22014D01*
X90222Y-21986D01*
X16487Y-22193D02*
X16487Y-21593D01*
X16715Y-21593D01*
X16773Y-21621D01*
X16801Y-21650D01*
X16830Y-21707D01*
X16830Y-21793D01*
X16801Y-21850D01*
X16773Y-21879D01*
X16715Y-21907D01*
X16487Y-21907D01*
X17373Y-21593D02*
X17087Y-21593D01*
X17058Y-21879D01*
X17087Y-21850D01*
X17144Y-21821D01*
X17287Y-21821D01*
X17344Y-21850D01*
X17373Y-21879D01*
X17401Y-21936D01*
X17401Y-22079D01*
X17373Y-22136D01*
X17344Y-22164D01*
X17287Y-22193D01*
X17144Y-22193D01*
X17087Y-22164D01*
X17058Y-22136D01*
X17772Y-21593D02*
X17829Y-21593D01*
X17886Y-21621D01*
X17915Y-21650D01*
X17944Y-21707D01*
X17972Y-21821D01*
X17972Y-21964D01*
X17944Y-22079D01*
X17915Y-22136D01*
X17886Y-22164D01*
X17829Y-22193D01*
X17772Y-22193D01*
X17715Y-22164D01*
X17686Y-22136D01*
X17658Y-22079D01*
X17629Y-21964D01*
X17629Y-21821D01*
X17658Y-21707D01*
X17686Y-21650D01*
X17715Y-21621D01*
X17772Y-21593D01*
X18486Y-21793D02*
X18486Y-22193D01*
X18343Y-21564D02*
X18200Y-21993D01*
X18572Y-21993D01*
G54D14*
X25662Y-23676D02*
X25262Y-23676D01*
X25262Y-23523D01*
X25281Y-23485D01*
X25300Y-23466D01*
X25338Y-23447D01*
X25395Y-23447D01*
X25433Y-23466D01*
X25452Y-23485D01*
X25471Y-23523D01*
X25471Y-23676D01*
X25262Y-23085D02*
X25262Y-23276D01*
X25452Y-23295D01*
X25433Y-23276D01*
X25414Y-23238D01*
X25414Y-23142D01*
X25433Y-23104D01*
X25452Y-23085D01*
X25490Y-23066D01*
X25586Y-23066D01*
X25624Y-23085D01*
X25643Y-23104D01*
X25662Y-23142D01*
X25662Y-23238D01*
X25643Y-23276D01*
X25624Y-23295D01*
X25262Y-22819D02*
X25262Y-22780D01*
X25281Y-22742D01*
X25300Y-22723D01*
X25338Y-22704D01*
X25414Y-22685D01*
X25510Y-22685D01*
X25586Y-22704D01*
X25624Y-22723D01*
X25643Y-22742D01*
X25662Y-22780D01*
X25662Y-22819D01*
X25643Y-22857D01*
X25624Y-22876D01*
X25586Y-22895D01*
X25510Y-22914D01*
X25414Y-22914D01*
X25338Y-22895D01*
X25300Y-22876D01*
X25281Y-22857D01*
X25262Y-22819D01*
X25300Y-22533D02*
X25281Y-22514D01*
X25262Y-22476D01*
X25262Y-22380D01*
X25281Y-22342D01*
X25300Y-22323D01*
X25338Y-22304D01*
X25376Y-22304D01*
X25433Y-22323D01*
X25662Y-22552D01*
X25662Y-22304D01*
G54D11*
X70023Y-34143D02*
X69823Y-33857D01*
X69680Y-34143D02*
X69680Y-33543D01*
X69908Y-33543D01*
X69966Y-33571D01*
X69994Y-33600D01*
X70023Y-33657D01*
X70023Y-33743D01*
X69994Y-33800D01*
X69966Y-33829D01*
X69908Y-33857D01*
X69680Y-33857D01*
X70194Y-33543D02*
X70394Y-34143D01*
X70594Y-33543D01*
X71080Y-33543D02*
X70794Y-33543D01*
X70765Y-33829D01*
X70794Y-33800D01*
X70851Y-33771D01*
X70994Y-33771D01*
X71051Y-33800D01*
X71080Y-33829D01*
X71108Y-33886D01*
X71108Y-34029D01*
X71080Y-34086D01*
X71051Y-34114D01*
X70994Y-34143D01*
X70851Y-34143D01*
X70794Y-34114D01*
X70765Y-34086D01*
X71479Y-33543D02*
X71536Y-33543D01*
X71593Y-33571D01*
X71622Y-33600D01*
X71651Y-33657D01*
X71679Y-33771D01*
X71679Y-33914D01*
X71651Y-34029D01*
X71622Y-34086D01*
X71593Y-34114D01*
X71536Y-34143D01*
X71479Y-34143D01*
X71422Y-34114D01*
X71393Y-34086D01*
X71365Y-34029D01*
X71336Y-33914D01*
X71336Y-33771D01*
X71365Y-33657D01*
X71393Y-33600D01*
X71422Y-33571D01*
X71479Y-33543D01*
X72250Y-34143D02*
X71907Y-34143D01*
X72079Y-34143D02*
X72079Y-33543D01*
X72022Y-33629D01*
X71964Y-33686D01*
X71907Y-33714D01*
G54D10*
X89412Y-31126D02*
X89012Y-31126D01*
X89412Y-30897D02*
X89183Y-31069D01*
X89012Y-30897D02*
X89240Y-31126D01*
X89145Y-30554D02*
X89412Y-30554D01*
X88993Y-30650D02*
X89279Y-30745D01*
X89279Y-30497D01*
X89012Y-30269D02*
X89012Y-30230D01*
X89031Y-30192D01*
X89050Y-30173D01*
X89088Y-30154D01*
X89164Y-30135D01*
X89260Y-30135D01*
X89336Y-30154D01*
X89374Y-30173D01*
X89393Y-30192D01*
X89412Y-30230D01*
X89412Y-30269D01*
X89393Y-30307D01*
X89374Y-30326D01*
X89336Y-30345D01*
X89260Y-30364D01*
X89164Y-30364D01*
X89088Y-30345D01*
X89050Y-30326D01*
X89031Y-30307D01*
X89012Y-30269D01*
X89412Y-29754D02*
X89412Y-29983D01*
X89412Y-29869D02*
X89012Y-29869D01*
X89069Y-29907D01*
X89107Y-29945D01*
X89126Y-29983D01*
X87912Y-31176D02*
X87512Y-31176D01*
X87912Y-30947D02*
X87683Y-31119D01*
X87512Y-30947D02*
X87740Y-31176D01*
X87645Y-30604D02*
X87912Y-30604D01*
X87493Y-30700D02*
X87779Y-30795D01*
X87779Y-30547D01*
X87512Y-30319D02*
X87512Y-30280D01*
X87531Y-30242D01*
X87550Y-30223D01*
X87588Y-30204D01*
X87664Y-30185D01*
X87760Y-30185D01*
X87836Y-30204D01*
X87874Y-30223D01*
X87893Y-30242D01*
X87912Y-30280D01*
X87912Y-30319D01*
X87893Y-30357D01*
X87874Y-30376D01*
X87836Y-30395D01*
X87760Y-30414D01*
X87664Y-30414D01*
X87588Y-30395D01*
X87550Y-30376D01*
X87531Y-30357D01*
X87512Y-30319D01*
X87550Y-30033D02*
X87531Y-30014D01*
X87512Y-29976D01*
X87512Y-29880D01*
X87531Y-29842D01*
X87550Y-29823D01*
X87588Y-29804D01*
X87626Y-29804D01*
X87683Y-29823D01*
X87912Y-30052D01*
X87912Y-29804D01*
X86212Y-31076D02*
X85812Y-31076D01*
X86212Y-30847D02*
X85983Y-31019D01*
X85812Y-30847D02*
X86040Y-31076D01*
X85945Y-30504D02*
X86212Y-30504D01*
X85793Y-30600D02*
X86079Y-30695D01*
X86079Y-30447D01*
X85812Y-30219D02*
X85812Y-30180D01*
X85831Y-30142D01*
X85850Y-30123D01*
X85888Y-30104D01*
X85964Y-30085D01*
X86060Y-30085D01*
X86136Y-30104D01*
X86174Y-30123D01*
X86193Y-30142D01*
X86212Y-30180D01*
X86212Y-30219D01*
X86193Y-30257D01*
X86174Y-30276D01*
X86136Y-30295D01*
X86060Y-30314D01*
X85964Y-30314D01*
X85888Y-30295D01*
X85850Y-30276D01*
X85831Y-30257D01*
X85812Y-30219D01*
X85812Y-29952D02*
X85812Y-29704D01*
X85964Y-29838D01*
X85964Y-29780D01*
X85983Y-29742D01*
X86002Y-29723D01*
X86040Y-29704D01*
X86136Y-29704D01*
X86174Y-29723D01*
X86193Y-29742D01*
X86212Y-29780D01*
X86212Y-29895D01*
X86193Y-29933D01*
X86174Y-29952D01*
X89371Y-27008D02*
X89071Y-27008D01*
X89071Y-26893D01*
X89086Y-26865D01*
X89100Y-26850D01*
X89129Y-26836D01*
X89171Y-26836D01*
X89200Y-26850D01*
X89214Y-26865D01*
X89229Y-26893D01*
X89229Y-27008D01*
X89071Y-26565D02*
X89071Y-26708D01*
X89214Y-26722D01*
X89200Y-26708D01*
X89186Y-26679D01*
X89186Y-26608D01*
X89200Y-26579D01*
X89214Y-26565D01*
X89243Y-26550D01*
X89314Y-26550D01*
X89343Y-26565D01*
X89357Y-26579D01*
X89371Y-26608D01*
X89371Y-26679D01*
X89357Y-26708D01*
X89343Y-26722D01*
X89071Y-26364D02*
X89071Y-26336D01*
X89086Y-26307D01*
X89100Y-26293D01*
X89129Y-26279D01*
X89186Y-26264D01*
X89257Y-26264D01*
X89314Y-26279D01*
X89343Y-26293D01*
X89357Y-26307D01*
X89371Y-26336D01*
X89371Y-26364D01*
X89357Y-26393D01*
X89343Y-26407D01*
X89314Y-26422D01*
X89257Y-26436D01*
X89186Y-26436D01*
X89129Y-26422D01*
X89100Y-26407D01*
X89086Y-26393D01*
X89071Y-26364D01*
X89071Y-26007D02*
X89071Y-26064D01*
X89086Y-26093D01*
X89100Y-26107D01*
X89143Y-26136D01*
X89200Y-26150D01*
X89314Y-26150D01*
X89343Y-26136D01*
X89357Y-26121D01*
X89371Y-26093D01*
X89371Y-26036D01*
X89357Y-26007D01*
X89343Y-25993D01*
X89314Y-25978D01*
X89243Y-25978D01*
X89214Y-25993D01*
X89200Y-26007D01*
X89186Y-26036D01*
X89186Y-26093D01*
X89200Y-26121D01*
X89214Y-26136D01*
X89243Y-26150D01*
G54D14*
X48933Y-20412D02*
X48933Y-20012D01*
X49028Y-20012D01*
X49086Y-20031D01*
X49124Y-20069D01*
X49143Y-20107D01*
X49162Y-20183D01*
X49162Y-20240D01*
X49143Y-20317D01*
X49124Y-20355D01*
X49086Y-20393D01*
X49028Y-20412D01*
X48933Y-20412D01*
X49314Y-20393D02*
X49371Y-20412D01*
X49467Y-20412D01*
X49505Y-20393D01*
X49524Y-20374D01*
X49543Y-20336D01*
X49543Y-20298D01*
X49524Y-20260D01*
X49505Y-20240D01*
X49467Y-20221D01*
X49390Y-20202D01*
X49352Y-20183D01*
X49333Y-20164D01*
X49314Y-20126D01*
X49314Y-20088D01*
X49333Y-20050D01*
X49352Y-20031D01*
X49390Y-20012D01*
X49486Y-20012D01*
X49543Y-20031D01*
X49714Y-20412D02*
X49714Y-20012D01*
X49867Y-20012D01*
X49905Y-20031D01*
X49924Y-20050D01*
X49943Y-20088D01*
X49943Y-20145D01*
X49924Y-20183D01*
X49905Y-20202D01*
X49867Y-20221D01*
X49714Y-20221D01*
X50286Y-20145D02*
X50286Y-20412D01*
X50190Y-19993D02*
X50095Y-20279D01*
X50343Y-20279D01*
X50571Y-20012D02*
X50610Y-20012D01*
X50648Y-20031D01*
X50667Y-20050D01*
X50686Y-20088D01*
X50705Y-20164D01*
X50705Y-20260D01*
X50686Y-20336D01*
X50667Y-20374D01*
X50648Y-20393D01*
X50610Y-20412D01*
X50571Y-20412D01*
X50533Y-20393D01*
X50514Y-20374D01*
X50495Y-20336D01*
X50476Y-20260D01*
X50476Y-20164D01*
X50495Y-20088D01*
X50514Y-20050D01*
X50533Y-20031D01*
X50571Y-20012D01*
X51086Y-20412D02*
X50857Y-20412D01*
X50971Y-20412D02*
X50971Y-20012D01*
X50933Y-20069D01*
X50895Y-20107D01*
X50857Y-20126D01*
X57683Y-20412D02*
X57683Y-20012D01*
X57778Y-20012D01*
X57836Y-20031D01*
X57874Y-20069D01*
X57893Y-20107D01*
X57912Y-20183D01*
X57912Y-20240D01*
X57893Y-20317D01*
X57874Y-20355D01*
X57836Y-20393D01*
X57778Y-20412D01*
X57683Y-20412D01*
X58064Y-20393D02*
X58121Y-20412D01*
X58217Y-20412D01*
X58255Y-20393D01*
X58274Y-20374D01*
X58293Y-20336D01*
X58293Y-20298D01*
X58274Y-20260D01*
X58255Y-20240D01*
X58217Y-20221D01*
X58140Y-20202D01*
X58102Y-20183D01*
X58083Y-20164D01*
X58064Y-20126D01*
X58064Y-20088D01*
X58083Y-20050D01*
X58102Y-20031D01*
X58140Y-20012D01*
X58236Y-20012D01*
X58293Y-20031D01*
X58464Y-20412D02*
X58464Y-20012D01*
X58617Y-20012D01*
X58655Y-20031D01*
X58674Y-20050D01*
X58693Y-20088D01*
X58693Y-20145D01*
X58674Y-20183D01*
X58655Y-20202D01*
X58617Y-20221D01*
X58464Y-20221D01*
X58845Y-20050D02*
X58864Y-20031D01*
X58902Y-20012D01*
X58998Y-20012D01*
X59036Y-20031D01*
X59055Y-20050D01*
X59074Y-20088D01*
X59074Y-20126D01*
X59055Y-20183D01*
X58826Y-20412D01*
X59074Y-20412D01*
X59321Y-20012D02*
X59360Y-20012D01*
X59398Y-20031D01*
X59417Y-20050D01*
X59436Y-20088D01*
X59455Y-20164D01*
X59455Y-20260D01*
X59436Y-20336D01*
X59417Y-20374D01*
X59398Y-20393D01*
X59360Y-20412D01*
X59321Y-20412D01*
X59283Y-20393D01*
X59264Y-20374D01*
X59245Y-20336D01*
X59226Y-20260D01*
X59226Y-20164D01*
X59245Y-20088D01*
X59264Y-20050D01*
X59283Y-20031D01*
X59321Y-20012D01*
X59836Y-20412D02*
X59607Y-20412D01*
X59721Y-20412D02*
X59721Y-20012D01*
X59683Y-20069D01*
X59645Y-20107D01*
X59607Y-20126D01*
X40183Y-20412D02*
X40183Y-20012D01*
X40278Y-20012D01*
X40336Y-20031D01*
X40374Y-20069D01*
X40393Y-20107D01*
X40412Y-20183D01*
X40412Y-20240D01*
X40393Y-20317D01*
X40374Y-20355D01*
X40336Y-20393D01*
X40278Y-20412D01*
X40183Y-20412D01*
X40564Y-20393D02*
X40621Y-20412D01*
X40717Y-20412D01*
X40755Y-20393D01*
X40774Y-20374D01*
X40793Y-20336D01*
X40793Y-20298D01*
X40774Y-20260D01*
X40755Y-20240D01*
X40717Y-20221D01*
X40640Y-20202D01*
X40602Y-20183D01*
X40583Y-20164D01*
X40564Y-20126D01*
X40564Y-20088D01*
X40583Y-20050D01*
X40602Y-20031D01*
X40640Y-20012D01*
X40736Y-20012D01*
X40793Y-20031D01*
X40964Y-20412D02*
X40964Y-20012D01*
X41117Y-20012D01*
X41155Y-20031D01*
X41174Y-20050D01*
X41193Y-20088D01*
X41193Y-20145D01*
X41174Y-20183D01*
X41155Y-20202D01*
X41117Y-20221D01*
X40964Y-20221D01*
X41536Y-20145D02*
X41536Y-20412D01*
X41440Y-19993D02*
X41345Y-20279D01*
X41593Y-20279D01*
X41821Y-20012D02*
X41860Y-20012D01*
X41898Y-20031D01*
X41917Y-20050D01*
X41936Y-20088D01*
X41955Y-20164D01*
X41955Y-20260D01*
X41936Y-20336D01*
X41917Y-20374D01*
X41898Y-20393D01*
X41860Y-20412D01*
X41821Y-20412D01*
X41783Y-20393D01*
X41764Y-20374D01*
X41745Y-20336D01*
X41726Y-20260D01*
X41726Y-20164D01*
X41745Y-20088D01*
X41764Y-20050D01*
X41783Y-20031D01*
X41821Y-20012D01*
X42107Y-20050D02*
X42126Y-20031D01*
X42164Y-20012D01*
X42260Y-20012D01*
X42298Y-20031D01*
X42317Y-20050D01*
X42336Y-20088D01*
X42336Y-20126D01*
X42317Y-20183D01*
X42088Y-20412D01*
X42336Y-20412D01*
X66433Y-20412D02*
X66433Y-20012D01*
X66528Y-20012D01*
X66586Y-20031D01*
X66624Y-20069D01*
X66643Y-20107D01*
X66662Y-20183D01*
X66662Y-20240D01*
X66643Y-20317D01*
X66624Y-20355D01*
X66586Y-20393D01*
X66528Y-20412D01*
X66433Y-20412D01*
X66814Y-20393D02*
X66871Y-20412D01*
X66967Y-20412D01*
X67005Y-20393D01*
X67024Y-20374D01*
X67043Y-20336D01*
X67043Y-20298D01*
X67024Y-20260D01*
X67005Y-20240D01*
X66967Y-20221D01*
X66890Y-20202D01*
X66852Y-20183D01*
X66833Y-20164D01*
X66814Y-20126D01*
X66814Y-20088D01*
X66833Y-20050D01*
X66852Y-20031D01*
X66890Y-20012D01*
X66986Y-20012D01*
X67043Y-20031D01*
X67214Y-20412D02*
X67214Y-20012D01*
X67367Y-20012D01*
X67405Y-20031D01*
X67424Y-20050D01*
X67443Y-20088D01*
X67443Y-20145D01*
X67424Y-20183D01*
X67405Y-20202D01*
X67367Y-20221D01*
X67214Y-20221D01*
X67576Y-20012D02*
X67824Y-20012D01*
X67690Y-20164D01*
X67748Y-20164D01*
X67786Y-20183D01*
X67805Y-20202D01*
X67824Y-20240D01*
X67824Y-20336D01*
X67805Y-20374D01*
X67786Y-20393D01*
X67748Y-20412D01*
X67633Y-20412D01*
X67595Y-20393D01*
X67576Y-20374D01*
X68071Y-20012D02*
X68110Y-20012D01*
X68148Y-20031D01*
X68167Y-20050D01*
X68186Y-20088D01*
X68205Y-20164D01*
X68205Y-20260D01*
X68186Y-20336D01*
X68167Y-20374D01*
X68148Y-20393D01*
X68110Y-20412D01*
X68071Y-20412D01*
X68033Y-20393D01*
X68014Y-20374D01*
X67995Y-20336D01*
X67976Y-20260D01*
X67976Y-20164D01*
X67995Y-20088D01*
X68014Y-20050D01*
X68033Y-20031D01*
X68071Y-20012D01*
X68357Y-20050D02*
X68376Y-20031D01*
X68414Y-20012D01*
X68510Y-20012D01*
X68548Y-20031D01*
X68567Y-20050D01*
X68586Y-20088D01*
X68586Y-20126D01*
X68567Y-20183D01*
X68338Y-20412D01*
X68586Y-20412D01*
X75183Y-20412D02*
X75183Y-20012D01*
X75278Y-20012D01*
X75336Y-20031D01*
X75374Y-20069D01*
X75393Y-20107D01*
X75412Y-20183D01*
X75412Y-20240D01*
X75393Y-20317D01*
X75374Y-20355D01*
X75336Y-20393D01*
X75278Y-20412D01*
X75183Y-20412D01*
X75564Y-20393D02*
X75621Y-20412D01*
X75717Y-20412D01*
X75755Y-20393D01*
X75774Y-20374D01*
X75793Y-20336D01*
X75793Y-20298D01*
X75774Y-20260D01*
X75755Y-20240D01*
X75717Y-20221D01*
X75640Y-20202D01*
X75602Y-20183D01*
X75583Y-20164D01*
X75564Y-20126D01*
X75564Y-20088D01*
X75583Y-20050D01*
X75602Y-20031D01*
X75640Y-20012D01*
X75736Y-20012D01*
X75793Y-20031D01*
X75964Y-20412D02*
X75964Y-20012D01*
X76117Y-20012D01*
X76155Y-20031D01*
X76174Y-20050D01*
X76193Y-20088D01*
X76193Y-20145D01*
X76174Y-20183D01*
X76155Y-20202D01*
X76117Y-20221D01*
X75964Y-20221D01*
X76326Y-20012D02*
X76574Y-20012D01*
X76440Y-20164D01*
X76498Y-20164D01*
X76536Y-20183D01*
X76555Y-20202D01*
X76574Y-20240D01*
X76574Y-20336D01*
X76555Y-20374D01*
X76536Y-20393D01*
X76498Y-20412D01*
X76383Y-20412D01*
X76345Y-20393D01*
X76326Y-20374D01*
X76821Y-20012D02*
X76860Y-20012D01*
X76898Y-20031D01*
X76917Y-20050D01*
X76936Y-20088D01*
X76955Y-20164D01*
X76955Y-20260D01*
X76936Y-20336D01*
X76917Y-20374D01*
X76898Y-20393D01*
X76860Y-20412D01*
X76821Y-20412D01*
X76783Y-20393D01*
X76764Y-20374D01*
X76745Y-20336D01*
X76726Y-20260D01*
X76726Y-20164D01*
X76745Y-20088D01*
X76764Y-20050D01*
X76783Y-20031D01*
X76821Y-20012D01*
X77336Y-20412D02*
X77107Y-20412D01*
X77221Y-20412D02*
X77221Y-20012D01*
X77183Y-20069D01*
X77145Y-20107D01*
X77107Y-20126D01*
X31433Y-20412D02*
X31433Y-20012D01*
X31528Y-20012D01*
X31586Y-20031D01*
X31624Y-20069D01*
X31643Y-20107D01*
X31662Y-20183D01*
X31662Y-20240D01*
X31643Y-20317D01*
X31624Y-20355D01*
X31586Y-20393D01*
X31528Y-20412D01*
X31433Y-20412D01*
X31814Y-20393D02*
X31871Y-20412D01*
X31967Y-20412D01*
X32005Y-20393D01*
X32024Y-20374D01*
X32043Y-20336D01*
X32043Y-20298D01*
X32024Y-20260D01*
X32005Y-20240D01*
X31967Y-20221D01*
X31890Y-20202D01*
X31852Y-20183D01*
X31833Y-20164D01*
X31814Y-20126D01*
X31814Y-20088D01*
X31833Y-20050D01*
X31852Y-20031D01*
X31890Y-20012D01*
X31986Y-20012D01*
X32043Y-20031D01*
X32214Y-20412D02*
X32214Y-20012D01*
X32367Y-20012D01*
X32405Y-20031D01*
X32424Y-20050D01*
X32443Y-20088D01*
X32443Y-20145D01*
X32424Y-20183D01*
X32405Y-20202D01*
X32367Y-20221D01*
X32214Y-20221D01*
X32595Y-20050D02*
X32614Y-20031D01*
X32652Y-20012D01*
X32748Y-20012D01*
X32786Y-20031D01*
X32805Y-20050D01*
X32824Y-20088D01*
X32824Y-20126D01*
X32805Y-20183D01*
X32576Y-20412D01*
X32824Y-20412D01*
X33071Y-20012D02*
X33110Y-20012D01*
X33148Y-20031D01*
X33167Y-20050D01*
X33186Y-20088D01*
X33205Y-20164D01*
X33205Y-20260D01*
X33186Y-20336D01*
X33167Y-20374D01*
X33148Y-20393D01*
X33110Y-20412D01*
X33071Y-20412D01*
X33033Y-20393D01*
X33014Y-20374D01*
X32995Y-20336D01*
X32976Y-20260D01*
X32976Y-20164D01*
X32995Y-20088D01*
X33014Y-20050D01*
X33033Y-20031D01*
X33071Y-20012D01*
X33357Y-20050D02*
X33376Y-20031D01*
X33414Y-20012D01*
X33510Y-20012D01*
X33548Y-20031D01*
X33567Y-20050D01*
X33586Y-20088D01*
X33586Y-20126D01*
X33567Y-20183D01*
X33338Y-20412D01*
X33586Y-20412D01*
G54D10*
G36*
X84250Y-39000D02*
X84250Y-37500D01*
X80750Y-37500D01*
X80750Y-39000D01*
X84250Y-39000D01*
X84250Y-39000D01*
G37*
G54D15*
X84250Y-39000D02*
X84250Y-37500D01*
X80750Y-37500D01*
X80750Y-39000D01*
X84250Y-39000D01*
M02*
