G04 (created by PCBNEW-RS274X (2012-01-19 BZR 3256)-stable) date 12/4/2012 8:12:11 AM*
G01*
G70*
G90*
%MOIN*%
G04 Gerber Fmt 3.4, Leading zero omitted, Abs format*
%FSLAX34Y34*%
G04 APERTURE LIST*
%ADD10C,0.006000*%
%ADD11C,0.015000*%
%ADD12C,0.007900*%
%ADD13C,0.005000*%
%ADD14C,0.007500*%
%ADD15C,0.008000*%
%ADD16C,0.012000*%
G04 APERTURE END LIST*
G54D10*
G54D11*
X14029Y-39370D02*
X92769Y-39370D01*
X14030Y-19685D02*
X14030Y-39370D01*
X92770Y-19685D02*
X14030Y-19685D01*
X92770Y-39370D02*
X92770Y-19685D01*
X30036Y-21706D02*
X30036Y-21903D01*
X30036Y-21903D02*
X29839Y-21805D01*
X29839Y-21805D02*
X30036Y-21706D01*
G54D12*
X40400Y-30800D02*
X41600Y-30800D01*
X41600Y-30800D02*
X41600Y-34650D01*
X41600Y-34650D02*
X40400Y-34650D01*
X40400Y-34650D02*
X40400Y-30800D01*
X42733Y-30962D02*
X42733Y-31041D01*
X42575Y-31001D02*
X42811Y-31080D01*
X42811Y-31080D02*
X42811Y-30923D01*
X42811Y-30923D02*
X42575Y-31001D01*
X29650Y-30800D02*
X30850Y-30800D01*
X30850Y-30800D02*
X30850Y-34650D01*
X30850Y-34650D02*
X29650Y-34650D01*
X29650Y-34650D02*
X29650Y-30800D01*
X31983Y-30962D02*
X31983Y-31041D01*
X31825Y-31001D02*
X32061Y-31080D01*
X32061Y-31080D02*
X32061Y-30923D01*
X32061Y-30923D02*
X31825Y-31001D01*
G54D13*
X87150Y-27600D02*
X87149Y-27609D01*
X87146Y-27619D01*
X87141Y-27627D01*
X87135Y-27635D01*
X87127Y-27641D01*
X87119Y-27646D01*
X87110Y-27648D01*
X87100Y-27649D01*
X87091Y-27649D01*
X87082Y-27646D01*
X87073Y-27641D01*
X87066Y-27635D01*
X87059Y-27628D01*
X87055Y-27619D01*
X87052Y-27610D01*
X87051Y-27600D01*
X87051Y-27591D01*
X87054Y-27582D01*
X87058Y-27573D01*
X87065Y-27566D01*
X87072Y-27559D01*
X87080Y-27555D01*
X87090Y-27552D01*
X87099Y-27551D01*
X87108Y-27551D01*
X87118Y-27554D01*
X87126Y-27558D01*
X87134Y-27564D01*
X87140Y-27572D01*
X87145Y-27580D01*
X87148Y-27589D01*
X87149Y-27599D01*
X87150Y-27600D01*
X87100Y-28050D02*
X87100Y-27650D01*
X87100Y-27650D02*
X86500Y-27650D01*
X86500Y-27650D02*
X86500Y-28050D01*
X86500Y-28450D02*
X86500Y-28850D01*
X86500Y-28850D02*
X87100Y-28850D01*
X87100Y-28850D02*
X87100Y-28450D01*
X88850Y-27600D02*
X88849Y-27609D01*
X88846Y-27619D01*
X88841Y-27627D01*
X88835Y-27635D01*
X88827Y-27641D01*
X88819Y-27646D01*
X88810Y-27648D01*
X88800Y-27649D01*
X88791Y-27649D01*
X88782Y-27646D01*
X88773Y-27641D01*
X88766Y-27635D01*
X88759Y-27628D01*
X88755Y-27619D01*
X88752Y-27610D01*
X88751Y-27600D01*
X88751Y-27591D01*
X88754Y-27582D01*
X88758Y-27573D01*
X88765Y-27566D01*
X88772Y-27559D01*
X88780Y-27555D01*
X88790Y-27552D01*
X88799Y-27551D01*
X88808Y-27551D01*
X88818Y-27554D01*
X88826Y-27558D01*
X88834Y-27564D01*
X88840Y-27572D01*
X88845Y-27580D01*
X88848Y-27589D01*
X88849Y-27599D01*
X88850Y-27600D01*
X88800Y-28050D02*
X88800Y-27650D01*
X88800Y-27650D02*
X88200Y-27650D01*
X88200Y-27650D02*
X88200Y-28050D01*
X88200Y-28450D02*
X88200Y-28850D01*
X88200Y-28850D02*
X88800Y-28850D01*
X88800Y-28850D02*
X88800Y-28450D01*
X81100Y-31600D02*
X81099Y-31609D01*
X81096Y-31619D01*
X81091Y-31627D01*
X81085Y-31635D01*
X81077Y-31641D01*
X81069Y-31646D01*
X81060Y-31648D01*
X81050Y-31649D01*
X81041Y-31649D01*
X81032Y-31646D01*
X81023Y-31641D01*
X81016Y-31635D01*
X81009Y-31628D01*
X81005Y-31619D01*
X81002Y-31610D01*
X81001Y-31600D01*
X81001Y-31591D01*
X81004Y-31582D01*
X81008Y-31573D01*
X81015Y-31566D01*
X81022Y-31559D01*
X81030Y-31555D01*
X81040Y-31552D01*
X81049Y-31551D01*
X81058Y-31551D01*
X81068Y-31554D01*
X81076Y-31558D01*
X81084Y-31564D01*
X81090Y-31572D01*
X81095Y-31580D01*
X81098Y-31589D01*
X81099Y-31599D01*
X81100Y-31600D01*
X81050Y-32050D02*
X81050Y-31650D01*
X81050Y-31650D02*
X80450Y-31650D01*
X80450Y-31650D02*
X80450Y-32050D01*
X80450Y-32450D02*
X80450Y-32850D01*
X80450Y-32850D02*
X81050Y-32850D01*
X81050Y-32850D02*
X81050Y-32450D01*
X82400Y-34450D02*
X82399Y-34459D01*
X82396Y-34469D01*
X82391Y-34477D01*
X82385Y-34485D01*
X82377Y-34491D01*
X82369Y-34496D01*
X82360Y-34498D01*
X82350Y-34499D01*
X82341Y-34499D01*
X82332Y-34496D01*
X82323Y-34491D01*
X82316Y-34485D01*
X82309Y-34478D01*
X82305Y-34469D01*
X82302Y-34460D01*
X82301Y-34450D01*
X82301Y-34441D01*
X82304Y-34432D01*
X82308Y-34423D01*
X82315Y-34416D01*
X82322Y-34409D01*
X82330Y-34405D01*
X82340Y-34402D01*
X82349Y-34401D01*
X82358Y-34401D01*
X82368Y-34404D01*
X82376Y-34408D01*
X82384Y-34414D01*
X82390Y-34422D01*
X82395Y-34430D01*
X82398Y-34439D01*
X82399Y-34449D01*
X82400Y-34450D01*
X82800Y-34450D02*
X82400Y-34450D01*
X82400Y-34450D02*
X82400Y-35050D01*
X82400Y-35050D02*
X82800Y-35050D01*
X83200Y-35050D02*
X83600Y-35050D01*
X83600Y-35050D02*
X83600Y-34450D01*
X83600Y-34450D02*
X83200Y-34450D01*
X21000Y-30400D02*
X20999Y-30409D01*
X20996Y-30419D01*
X20991Y-30427D01*
X20985Y-30435D01*
X20977Y-30441D01*
X20969Y-30446D01*
X20960Y-30448D01*
X20950Y-30449D01*
X20941Y-30449D01*
X20932Y-30446D01*
X20923Y-30441D01*
X20916Y-30435D01*
X20909Y-30428D01*
X20905Y-30419D01*
X20902Y-30410D01*
X20901Y-30400D01*
X20901Y-30391D01*
X20904Y-30382D01*
X20908Y-30373D01*
X20915Y-30366D01*
X20922Y-30359D01*
X20930Y-30355D01*
X20940Y-30352D01*
X20949Y-30351D01*
X20958Y-30351D01*
X20968Y-30354D01*
X20976Y-30358D01*
X20984Y-30364D01*
X20990Y-30372D01*
X20995Y-30380D01*
X20998Y-30389D01*
X20999Y-30399D01*
X21000Y-30400D01*
X20950Y-29950D02*
X20950Y-30350D01*
X20950Y-30350D02*
X21550Y-30350D01*
X21550Y-30350D02*
X21550Y-29950D01*
X21550Y-29550D02*
X21550Y-29150D01*
X21550Y-29150D02*
X20950Y-29150D01*
X20950Y-29150D02*
X20950Y-29550D01*
X25150Y-21850D02*
X25149Y-21859D01*
X25146Y-21869D01*
X25141Y-21877D01*
X25135Y-21885D01*
X25127Y-21891D01*
X25119Y-21896D01*
X25110Y-21898D01*
X25100Y-21899D01*
X25091Y-21899D01*
X25082Y-21896D01*
X25073Y-21891D01*
X25066Y-21885D01*
X25059Y-21878D01*
X25055Y-21869D01*
X25052Y-21860D01*
X25051Y-21850D01*
X25051Y-21841D01*
X25054Y-21832D01*
X25058Y-21823D01*
X25065Y-21816D01*
X25072Y-21809D01*
X25080Y-21805D01*
X25090Y-21802D01*
X25099Y-21801D01*
X25108Y-21801D01*
X25118Y-21804D01*
X25126Y-21808D01*
X25134Y-21814D01*
X25140Y-21822D01*
X25145Y-21830D01*
X25148Y-21839D01*
X25149Y-21849D01*
X25150Y-21850D01*
X25100Y-21400D02*
X25100Y-21800D01*
X25100Y-21800D02*
X25700Y-21800D01*
X25700Y-21800D02*
X25700Y-21400D01*
X25700Y-21000D02*
X25700Y-20600D01*
X25700Y-20600D02*
X25100Y-20600D01*
X25100Y-20600D02*
X25100Y-21000D01*
X27450Y-24300D02*
X27449Y-24309D01*
X27446Y-24319D01*
X27441Y-24327D01*
X27435Y-24335D01*
X27427Y-24341D01*
X27419Y-24346D01*
X27410Y-24348D01*
X27400Y-24349D01*
X27391Y-24349D01*
X27382Y-24346D01*
X27373Y-24341D01*
X27366Y-24335D01*
X27359Y-24328D01*
X27355Y-24319D01*
X27352Y-24310D01*
X27351Y-24300D01*
X27351Y-24291D01*
X27354Y-24282D01*
X27358Y-24273D01*
X27365Y-24266D01*
X27372Y-24259D01*
X27380Y-24255D01*
X27390Y-24252D01*
X27399Y-24251D01*
X27408Y-24251D01*
X27418Y-24254D01*
X27426Y-24258D01*
X27434Y-24264D01*
X27440Y-24272D01*
X27445Y-24280D01*
X27448Y-24289D01*
X27449Y-24299D01*
X27450Y-24300D01*
X26950Y-24300D02*
X27350Y-24300D01*
X27350Y-24300D02*
X27350Y-23700D01*
X27350Y-23700D02*
X26950Y-23700D01*
X26550Y-23700D02*
X26150Y-23700D01*
X26150Y-23700D02*
X26150Y-24300D01*
X26150Y-24300D02*
X26550Y-24300D01*
X20250Y-30400D02*
X20249Y-30409D01*
X20246Y-30419D01*
X20241Y-30427D01*
X20235Y-30435D01*
X20227Y-30441D01*
X20219Y-30446D01*
X20210Y-30448D01*
X20200Y-30449D01*
X20191Y-30449D01*
X20182Y-30446D01*
X20173Y-30441D01*
X20166Y-30435D01*
X20159Y-30428D01*
X20155Y-30419D01*
X20152Y-30410D01*
X20151Y-30400D01*
X20151Y-30391D01*
X20154Y-30382D01*
X20158Y-30373D01*
X20165Y-30366D01*
X20172Y-30359D01*
X20180Y-30355D01*
X20190Y-30352D01*
X20199Y-30351D01*
X20208Y-30351D01*
X20218Y-30354D01*
X20226Y-30358D01*
X20234Y-30364D01*
X20240Y-30372D01*
X20245Y-30380D01*
X20248Y-30389D01*
X20249Y-30399D01*
X20250Y-30400D01*
X20200Y-29950D02*
X20200Y-30350D01*
X20200Y-30350D02*
X20800Y-30350D01*
X20800Y-30350D02*
X20800Y-29950D01*
X20800Y-29550D02*
X20800Y-29150D01*
X20800Y-29150D02*
X20200Y-29150D01*
X20200Y-29150D02*
X20200Y-29550D01*
X28650Y-30600D02*
X28649Y-30609D01*
X28646Y-30619D01*
X28641Y-30627D01*
X28635Y-30635D01*
X28627Y-30641D01*
X28619Y-30646D01*
X28610Y-30648D01*
X28600Y-30649D01*
X28591Y-30649D01*
X28582Y-30646D01*
X28573Y-30641D01*
X28566Y-30635D01*
X28559Y-30628D01*
X28555Y-30619D01*
X28552Y-30610D01*
X28551Y-30600D01*
X28551Y-30591D01*
X28554Y-30582D01*
X28558Y-30573D01*
X28565Y-30566D01*
X28572Y-30559D01*
X28580Y-30555D01*
X28590Y-30552D01*
X28599Y-30551D01*
X28608Y-30551D01*
X28618Y-30554D01*
X28626Y-30558D01*
X28634Y-30564D01*
X28640Y-30572D01*
X28645Y-30580D01*
X28648Y-30589D01*
X28649Y-30599D01*
X28650Y-30600D01*
X28600Y-31050D02*
X28600Y-30650D01*
X28600Y-30650D02*
X28000Y-30650D01*
X28000Y-30650D02*
X28000Y-31050D01*
X28000Y-31450D02*
X28000Y-31850D01*
X28000Y-31850D02*
X28600Y-31850D01*
X28600Y-31850D02*
X28600Y-31450D01*
X27850Y-30600D02*
X27849Y-30609D01*
X27846Y-30619D01*
X27841Y-30627D01*
X27835Y-30635D01*
X27827Y-30641D01*
X27819Y-30646D01*
X27810Y-30648D01*
X27800Y-30649D01*
X27791Y-30649D01*
X27782Y-30646D01*
X27773Y-30641D01*
X27766Y-30635D01*
X27759Y-30628D01*
X27755Y-30619D01*
X27752Y-30610D01*
X27751Y-30600D01*
X27751Y-30591D01*
X27754Y-30582D01*
X27758Y-30573D01*
X27765Y-30566D01*
X27772Y-30559D01*
X27780Y-30555D01*
X27790Y-30552D01*
X27799Y-30551D01*
X27808Y-30551D01*
X27818Y-30554D01*
X27826Y-30558D01*
X27834Y-30564D01*
X27840Y-30572D01*
X27845Y-30580D01*
X27848Y-30589D01*
X27849Y-30599D01*
X27850Y-30600D01*
X27800Y-31050D02*
X27800Y-30650D01*
X27800Y-30650D02*
X27200Y-30650D01*
X27200Y-30650D02*
X27200Y-31050D01*
X27200Y-31450D02*
X27200Y-31850D01*
X27200Y-31850D02*
X27800Y-31850D01*
X27800Y-31850D02*
X27800Y-31450D01*
X39450Y-30700D02*
X39449Y-30709D01*
X39446Y-30719D01*
X39441Y-30727D01*
X39435Y-30735D01*
X39427Y-30741D01*
X39419Y-30746D01*
X39410Y-30748D01*
X39400Y-30749D01*
X39391Y-30749D01*
X39382Y-30746D01*
X39373Y-30741D01*
X39366Y-30735D01*
X39359Y-30728D01*
X39355Y-30719D01*
X39352Y-30710D01*
X39351Y-30700D01*
X39351Y-30691D01*
X39354Y-30682D01*
X39358Y-30673D01*
X39365Y-30666D01*
X39372Y-30659D01*
X39380Y-30655D01*
X39390Y-30652D01*
X39399Y-30651D01*
X39408Y-30651D01*
X39418Y-30654D01*
X39426Y-30658D01*
X39434Y-30664D01*
X39440Y-30672D01*
X39445Y-30680D01*
X39448Y-30689D01*
X39449Y-30699D01*
X39450Y-30700D01*
X39400Y-31150D02*
X39400Y-30750D01*
X39400Y-30750D02*
X38800Y-30750D01*
X38800Y-30750D02*
X38800Y-31150D01*
X38800Y-31550D02*
X38800Y-31950D01*
X38800Y-31950D02*
X39400Y-31950D01*
X39400Y-31950D02*
X39400Y-31550D01*
X38700Y-30700D02*
X38699Y-30709D01*
X38696Y-30719D01*
X38691Y-30727D01*
X38685Y-30735D01*
X38677Y-30741D01*
X38669Y-30746D01*
X38660Y-30748D01*
X38650Y-30749D01*
X38641Y-30749D01*
X38632Y-30746D01*
X38623Y-30741D01*
X38616Y-30735D01*
X38609Y-30728D01*
X38605Y-30719D01*
X38602Y-30710D01*
X38601Y-30700D01*
X38601Y-30691D01*
X38604Y-30682D01*
X38608Y-30673D01*
X38615Y-30666D01*
X38622Y-30659D01*
X38630Y-30655D01*
X38640Y-30652D01*
X38649Y-30651D01*
X38658Y-30651D01*
X38668Y-30654D01*
X38676Y-30658D01*
X38684Y-30664D01*
X38690Y-30672D01*
X38695Y-30680D01*
X38698Y-30689D01*
X38699Y-30699D01*
X38700Y-30700D01*
X38650Y-31150D02*
X38650Y-30750D01*
X38650Y-30750D02*
X38050Y-30750D01*
X38050Y-30750D02*
X38050Y-31150D01*
X38050Y-31550D02*
X38050Y-31950D01*
X38050Y-31950D02*
X38650Y-31950D01*
X38650Y-31950D02*
X38650Y-31550D01*
G54D11*
X65586Y-29806D02*
X65586Y-30003D01*
X65586Y-30003D02*
X65389Y-29905D01*
X65389Y-29905D02*
X65586Y-29806D01*
X71036Y-21256D02*
X71036Y-21453D01*
X71036Y-21453D02*
X70839Y-21355D01*
X70839Y-21355D02*
X71036Y-21256D01*
X76864Y-26994D02*
X76864Y-26797D01*
X76864Y-26797D02*
X77061Y-26895D01*
X77061Y-26895D02*
X76864Y-26994D01*
X75786Y-23256D02*
X75786Y-23453D01*
X75786Y-23453D02*
X75589Y-23355D01*
X75589Y-23355D02*
X75786Y-23256D01*
X74064Y-26944D02*
X74064Y-26747D01*
X74064Y-26747D02*
X74261Y-26845D01*
X74261Y-26845D02*
X74064Y-26944D01*
X34886Y-28856D02*
X34886Y-29053D01*
X34886Y-29053D02*
X34689Y-28955D01*
X34689Y-28955D02*
X34886Y-28856D01*
X32686Y-28206D02*
X32686Y-28403D01*
X32686Y-28403D02*
X32489Y-28305D01*
X32489Y-28305D02*
X32686Y-28206D01*
X35336Y-21006D02*
X35336Y-21203D01*
X35336Y-21203D02*
X35139Y-21105D01*
X35139Y-21105D02*
X35336Y-21006D01*
X59114Y-27394D02*
X59114Y-27197D01*
X59114Y-27197D02*
X59311Y-27295D01*
X59311Y-27295D02*
X59114Y-27394D01*
X58536Y-23156D02*
X58536Y-23353D01*
X58536Y-23353D02*
X58339Y-23255D01*
X58339Y-23255D02*
X58536Y-23156D01*
X56664Y-28094D02*
X56664Y-27897D01*
X56664Y-27897D02*
X56861Y-27995D01*
X56861Y-27995D02*
X56664Y-28094D01*
X68736Y-29806D02*
X68736Y-30003D01*
X68736Y-30003D02*
X68539Y-29905D01*
X68539Y-29905D02*
X68736Y-29806D01*
X65036Y-21356D02*
X65036Y-21553D01*
X65036Y-21553D02*
X64839Y-21455D01*
X64839Y-21455D02*
X65036Y-21356D01*
X39136Y-29056D02*
X39136Y-29253D01*
X39136Y-29253D02*
X38939Y-29155D01*
X38939Y-29155D02*
X39136Y-29056D01*
X38636Y-21606D02*
X38636Y-21803D01*
X38636Y-21803D02*
X38439Y-21705D01*
X38439Y-21705D02*
X38636Y-21606D01*
X43186Y-29056D02*
X43186Y-29253D01*
X43186Y-29253D02*
X42989Y-29155D01*
X42989Y-29155D02*
X43186Y-29056D01*
X47714Y-27944D02*
X47714Y-27747D01*
X47714Y-27747D02*
X47911Y-27845D01*
X47911Y-27845D02*
X47714Y-27944D01*
X50414Y-27844D02*
X50414Y-27647D01*
X50414Y-27647D02*
X50611Y-27745D01*
X50611Y-27745D02*
X50414Y-27844D01*
X49936Y-23256D02*
X49936Y-23453D01*
X49936Y-23453D02*
X49739Y-23355D01*
X49739Y-23355D02*
X49936Y-23256D01*
X44306Y-20856D02*
X44306Y-21053D01*
X44306Y-21053D02*
X44109Y-20955D01*
X44109Y-20955D02*
X44306Y-20856D01*
G54D12*
X83983Y-31519D02*
X83117Y-31519D01*
X83117Y-31519D02*
X83117Y-34196D01*
X83117Y-34196D02*
X82015Y-34196D01*
X82015Y-34196D02*
X82015Y-31519D01*
X82015Y-31519D02*
X81267Y-31519D01*
X81267Y-31519D02*
X81267Y-27464D01*
X81267Y-27464D02*
X85833Y-27464D01*
X85833Y-27464D02*
X85833Y-31519D01*
X85833Y-31519D02*
X85085Y-31519D01*
X85085Y-31519D02*
X85085Y-34196D01*
X85085Y-34196D02*
X83983Y-34196D01*
X83983Y-34196D02*
X83983Y-31519D01*
G54D11*
X42667Y-22058D02*
X42667Y-27963D01*
X42667Y-27963D02*
X39872Y-27963D01*
X39872Y-27963D02*
X39872Y-22097D01*
X39872Y-22097D02*
X42667Y-22097D01*
X42581Y-22323D02*
X42577Y-22361D01*
X42565Y-22399D01*
X42547Y-22433D01*
X42522Y-22463D01*
X42492Y-22488D01*
X42458Y-22507D01*
X42421Y-22518D01*
X42382Y-22522D01*
X42344Y-22519D01*
X42307Y-22508D01*
X42272Y-22490D01*
X42242Y-22465D01*
X42216Y-22435D01*
X42198Y-22401D01*
X42186Y-22364D01*
X42182Y-22325D01*
X42185Y-22287D01*
X42196Y-22250D01*
X42213Y-22215D01*
X42238Y-22185D01*
X42267Y-22159D01*
X42301Y-22140D01*
X42339Y-22128D01*
X42377Y-22124D01*
X42415Y-22127D01*
X42453Y-22137D01*
X42488Y-22155D01*
X42518Y-22179D01*
X42544Y-22208D01*
X42563Y-22242D01*
X42576Y-22279D01*
X42580Y-22318D01*
X42581Y-22323D01*
X44008Y-22262D02*
X44008Y-22312D01*
X43708Y-22312D02*
X44108Y-22162D01*
X44108Y-22162D02*
X44108Y-22412D01*
X44108Y-22412D02*
X43708Y-22312D01*
X33867Y-22058D02*
X33867Y-27963D01*
X33867Y-27963D02*
X31072Y-27963D01*
X31072Y-27963D02*
X31072Y-22097D01*
X31072Y-22097D02*
X33867Y-22097D01*
X33781Y-22323D02*
X33777Y-22361D01*
X33765Y-22399D01*
X33747Y-22433D01*
X33722Y-22463D01*
X33692Y-22488D01*
X33658Y-22507D01*
X33621Y-22518D01*
X33582Y-22522D01*
X33544Y-22519D01*
X33507Y-22508D01*
X33472Y-22490D01*
X33442Y-22465D01*
X33416Y-22435D01*
X33398Y-22401D01*
X33386Y-22364D01*
X33382Y-22325D01*
X33385Y-22287D01*
X33396Y-22250D01*
X33413Y-22215D01*
X33438Y-22185D01*
X33467Y-22159D01*
X33501Y-22140D01*
X33539Y-22128D01*
X33577Y-22124D01*
X33615Y-22127D01*
X33653Y-22137D01*
X33688Y-22155D01*
X33718Y-22179D01*
X33744Y-22208D01*
X33763Y-22242D01*
X33776Y-22279D01*
X33780Y-22318D01*
X33781Y-22323D01*
X35208Y-22262D02*
X35208Y-22312D01*
X34908Y-22312D02*
X35308Y-22162D01*
X35308Y-22162D02*
X35308Y-22412D01*
X35308Y-22412D02*
X34908Y-22312D01*
X68867Y-22458D02*
X68867Y-28363D01*
X68867Y-28363D02*
X66072Y-28363D01*
X66072Y-28363D02*
X66072Y-22497D01*
X66072Y-22497D02*
X68867Y-22497D01*
X68781Y-22723D02*
X68777Y-22761D01*
X68765Y-22799D01*
X68747Y-22833D01*
X68722Y-22863D01*
X68692Y-22888D01*
X68658Y-22907D01*
X68621Y-22918D01*
X68582Y-22922D01*
X68544Y-22919D01*
X68507Y-22908D01*
X68472Y-22890D01*
X68442Y-22865D01*
X68416Y-22835D01*
X68398Y-22801D01*
X68386Y-22764D01*
X68382Y-22725D01*
X68385Y-22687D01*
X68396Y-22650D01*
X68413Y-22615D01*
X68438Y-22585D01*
X68467Y-22559D01*
X68501Y-22540D01*
X68539Y-22528D01*
X68577Y-22524D01*
X68615Y-22527D01*
X68653Y-22537D01*
X68688Y-22555D01*
X68718Y-22579D01*
X68744Y-22608D01*
X68763Y-22642D01*
X68776Y-22679D01*
X68780Y-22718D01*
X68781Y-22723D01*
X70208Y-22662D02*
X70208Y-22712D01*
X69908Y-22712D02*
X70308Y-22562D01*
X70308Y-22562D02*
X70308Y-22812D01*
X70308Y-22812D02*
X69908Y-22712D01*
X22950Y-32450D02*
X22946Y-32488D01*
X22934Y-32526D01*
X22916Y-32560D01*
X22891Y-32590D01*
X22861Y-32615D01*
X22827Y-32634D01*
X22790Y-32645D01*
X22751Y-32649D01*
X22713Y-32646D01*
X22676Y-32635D01*
X22641Y-32617D01*
X22611Y-32592D01*
X22585Y-32562D01*
X22567Y-32528D01*
X22555Y-32491D01*
X22551Y-32452D01*
X22554Y-32414D01*
X22565Y-32377D01*
X22582Y-32342D01*
X22607Y-32312D01*
X22636Y-32286D01*
X22670Y-32267D01*
X22708Y-32255D01*
X22746Y-32251D01*
X22784Y-32254D01*
X22822Y-32264D01*
X22857Y-32282D01*
X22887Y-32306D01*
X22913Y-32335D01*
X22932Y-32369D01*
X22945Y-32406D01*
X22949Y-32445D01*
X22950Y-32450D01*
X25500Y-32650D02*
X22500Y-32650D01*
X22500Y-32650D02*
X22500Y-25850D01*
X22500Y-25850D02*
X25500Y-25850D01*
X25500Y-25850D02*
X25500Y-32650D01*
X21400Y-32550D02*
X21400Y-32500D01*
X21700Y-32500D02*
X21300Y-32650D01*
X21300Y-32650D02*
X21300Y-32400D01*
X21300Y-32400D02*
X21700Y-32500D01*
G54D13*
X19250Y-22000D02*
X19249Y-22009D01*
X19246Y-22019D01*
X19241Y-22027D01*
X19235Y-22035D01*
X19227Y-22041D01*
X19219Y-22046D01*
X19210Y-22048D01*
X19200Y-22049D01*
X19191Y-22049D01*
X19182Y-22046D01*
X19173Y-22041D01*
X19166Y-22035D01*
X19159Y-22028D01*
X19155Y-22019D01*
X19152Y-22010D01*
X19151Y-22000D01*
X19151Y-21991D01*
X19154Y-21982D01*
X19158Y-21973D01*
X19165Y-21966D01*
X19172Y-21959D01*
X19180Y-21955D01*
X19190Y-21952D01*
X19199Y-21951D01*
X19208Y-21951D01*
X19218Y-21954D01*
X19226Y-21958D01*
X19234Y-21964D01*
X19240Y-21972D01*
X19245Y-21980D01*
X19248Y-21989D01*
X19249Y-21999D01*
X19250Y-22000D01*
X18750Y-22000D02*
X19150Y-22000D01*
X19150Y-22000D02*
X19150Y-21400D01*
X19150Y-21400D02*
X18750Y-21400D01*
X18350Y-21400D02*
X17950Y-21400D01*
X17950Y-21400D02*
X17950Y-22000D01*
X17950Y-22000D02*
X18350Y-22000D01*
G54D10*
X29665Y-21221D02*
X29665Y-21464D01*
X29650Y-21493D01*
X29636Y-21507D01*
X29607Y-21521D01*
X29550Y-21521D01*
X29522Y-21507D01*
X29507Y-21493D01*
X29493Y-21464D01*
X29493Y-21221D01*
X29365Y-21250D02*
X29351Y-21236D01*
X29322Y-21221D01*
X29251Y-21221D01*
X29222Y-21236D01*
X29208Y-21250D01*
X29193Y-21279D01*
X29193Y-21307D01*
X29208Y-21350D01*
X29379Y-21521D01*
X29193Y-21521D01*
X29007Y-21221D02*
X28979Y-21221D01*
X28950Y-21236D01*
X28936Y-21250D01*
X28922Y-21279D01*
X28907Y-21336D01*
X28907Y-21407D01*
X28922Y-21464D01*
X28936Y-21493D01*
X28950Y-21507D01*
X28979Y-21521D01*
X29007Y-21521D01*
X29036Y-21507D01*
X29050Y-21493D01*
X29065Y-21464D01*
X29079Y-21407D01*
X29079Y-21336D01*
X29065Y-21279D01*
X29050Y-21250D01*
X29036Y-21236D01*
X29007Y-21221D01*
X28650Y-21221D02*
X28707Y-21221D01*
X28736Y-21236D01*
X28750Y-21250D01*
X28779Y-21293D01*
X28793Y-21350D01*
X28793Y-21464D01*
X28779Y-21493D01*
X28764Y-21507D01*
X28736Y-21521D01*
X28679Y-21521D01*
X28650Y-21507D01*
X28636Y-21493D01*
X28621Y-21464D01*
X28621Y-21393D01*
X28636Y-21364D01*
X28650Y-21350D01*
X28679Y-21336D01*
X28736Y-21336D01*
X28764Y-21350D01*
X28779Y-21364D01*
X28793Y-21393D01*
G54D14*
X41515Y-30262D02*
X41515Y-30586D01*
X41500Y-30624D01*
X41486Y-30643D01*
X41457Y-30662D01*
X41400Y-30662D01*
X41372Y-30643D01*
X41357Y-30624D01*
X41343Y-30586D01*
X41343Y-30262D01*
X41058Y-30262D02*
X41201Y-30262D01*
X41215Y-30452D01*
X41201Y-30433D01*
X41172Y-30414D01*
X41101Y-30414D01*
X41072Y-30433D01*
X41058Y-30452D01*
X41043Y-30490D01*
X41043Y-30586D01*
X41058Y-30624D01*
X41072Y-30643D01*
X41101Y-30662D01*
X41172Y-30662D01*
X41201Y-30643D01*
X41215Y-30624D01*
X40857Y-30262D02*
X40829Y-30262D01*
X40800Y-30281D01*
X40786Y-30300D01*
X40772Y-30338D01*
X40757Y-30414D01*
X40757Y-30510D01*
X40772Y-30586D01*
X40786Y-30624D01*
X40800Y-30643D01*
X40829Y-30662D01*
X40857Y-30662D01*
X40886Y-30643D01*
X40900Y-30624D01*
X40915Y-30586D01*
X40929Y-30510D01*
X40929Y-30414D01*
X40915Y-30338D01*
X40900Y-30300D01*
X40886Y-30281D01*
X40857Y-30262D01*
X40657Y-30262D02*
X40471Y-30262D01*
X40571Y-30414D01*
X40529Y-30414D01*
X40500Y-30433D01*
X40486Y-30452D01*
X40471Y-30490D01*
X40471Y-30586D01*
X40486Y-30624D01*
X40500Y-30643D01*
X40529Y-30662D01*
X40614Y-30662D01*
X40643Y-30643D01*
X40657Y-30624D01*
X30765Y-30262D02*
X30765Y-30586D01*
X30750Y-30624D01*
X30736Y-30643D01*
X30707Y-30662D01*
X30650Y-30662D01*
X30622Y-30643D01*
X30607Y-30624D01*
X30593Y-30586D01*
X30593Y-30262D01*
X30308Y-30262D02*
X30451Y-30262D01*
X30465Y-30452D01*
X30451Y-30433D01*
X30422Y-30414D01*
X30351Y-30414D01*
X30322Y-30433D01*
X30308Y-30452D01*
X30293Y-30490D01*
X30293Y-30586D01*
X30308Y-30624D01*
X30322Y-30643D01*
X30351Y-30662D01*
X30422Y-30662D01*
X30451Y-30643D01*
X30465Y-30624D01*
X30107Y-30262D02*
X30079Y-30262D01*
X30050Y-30281D01*
X30036Y-30300D01*
X30022Y-30338D01*
X30007Y-30414D01*
X30007Y-30510D01*
X30022Y-30586D01*
X30036Y-30624D01*
X30050Y-30643D01*
X30079Y-30662D01*
X30107Y-30662D01*
X30136Y-30643D01*
X30150Y-30624D01*
X30165Y-30586D01*
X30179Y-30510D01*
X30179Y-30414D01*
X30165Y-30338D01*
X30150Y-30300D01*
X30136Y-30281D01*
X30107Y-30262D01*
X29721Y-30662D02*
X29893Y-30662D01*
X29807Y-30662D02*
X29807Y-30262D01*
X29836Y-30319D01*
X29864Y-30357D01*
X29893Y-30376D01*
G54D13*
X86901Y-26770D02*
X86782Y-26687D01*
X86901Y-26628D02*
X86651Y-26628D01*
X86651Y-26723D01*
X86663Y-26747D01*
X86675Y-26758D01*
X86699Y-26770D01*
X86735Y-26770D01*
X86758Y-26758D01*
X86770Y-26747D01*
X86782Y-26723D01*
X86782Y-26628D01*
X86651Y-26997D02*
X86651Y-26878D01*
X86770Y-26866D01*
X86758Y-26878D01*
X86746Y-26901D01*
X86746Y-26961D01*
X86758Y-26985D01*
X86770Y-26997D01*
X86794Y-27008D01*
X86854Y-27008D01*
X86877Y-26997D01*
X86889Y-26985D01*
X86901Y-26961D01*
X86901Y-26901D01*
X86889Y-26878D01*
X86877Y-26866D01*
X86651Y-27163D02*
X86651Y-27187D01*
X86663Y-27211D01*
X86675Y-27223D01*
X86699Y-27235D01*
X86746Y-27246D01*
X86806Y-27246D01*
X86854Y-27235D01*
X86877Y-27223D01*
X86889Y-27211D01*
X86901Y-27187D01*
X86901Y-27163D01*
X86889Y-27139D01*
X86877Y-27127D01*
X86854Y-27116D01*
X86806Y-27104D01*
X86746Y-27104D01*
X86699Y-27116D01*
X86675Y-27127D01*
X86663Y-27139D01*
X86651Y-27163D01*
X86651Y-27473D02*
X86651Y-27354D01*
X86770Y-27342D01*
X86758Y-27354D01*
X86746Y-27377D01*
X86746Y-27437D01*
X86758Y-27461D01*
X86770Y-27473D01*
X86794Y-27484D01*
X86854Y-27484D01*
X86877Y-27473D01*
X86889Y-27461D01*
X86901Y-27437D01*
X86901Y-27377D01*
X86889Y-27354D01*
X86877Y-27342D01*
X88051Y-27770D02*
X87932Y-27687D01*
X88051Y-27628D02*
X87801Y-27628D01*
X87801Y-27723D01*
X87813Y-27747D01*
X87825Y-27758D01*
X87849Y-27770D01*
X87885Y-27770D01*
X87908Y-27758D01*
X87920Y-27747D01*
X87932Y-27723D01*
X87932Y-27628D01*
X87801Y-27997D02*
X87801Y-27878D01*
X87920Y-27866D01*
X87908Y-27878D01*
X87896Y-27901D01*
X87896Y-27961D01*
X87908Y-27985D01*
X87920Y-27997D01*
X87944Y-28008D01*
X88004Y-28008D01*
X88027Y-27997D01*
X88039Y-27985D01*
X88051Y-27961D01*
X88051Y-27901D01*
X88039Y-27878D01*
X88027Y-27866D01*
X87801Y-28163D02*
X87801Y-28187D01*
X87813Y-28211D01*
X87825Y-28223D01*
X87849Y-28235D01*
X87896Y-28246D01*
X87956Y-28246D01*
X88004Y-28235D01*
X88027Y-28223D01*
X88039Y-28211D01*
X88051Y-28187D01*
X88051Y-28163D01*
X88039Y-28139D01*
X88027Y-28127D01*
X88004Y-28116D01*
X87956Y-28104D01*
X87896Y-28104D01*
X87849Y-28116D01*
X87825Y-28127D01*
X87813Y-28139D01*
X87801Y-28163D01*
X87885Y-28461D02*
X88051Y-28461D01*
X87789Y-28401D02*
X87968Y-28342D01*
X87968Y-28496D01*
X80351Y-31970D02*
X80232Y-31887D01*
X80351Y-31828D02*
X80101Y-31828D01*
X80101Y-31923D01*
X80113Y-31947D01*
X80125Y-31958D01*
X80149Y-31970D01*
X80185Y-31970D01*
X80208Y-31958D01*
X80220Y-31947D01*
X80232Y-31923D01*
X80232Y-31828D01*
X80101Y-32197D02*
X80101Y-32078D01*
X80220Y-32066D01*
X80208Y-32078D01*
X80196Y-32101D01*
X80196Y-32161D01*
X80208Y-32185D01*
X80220Y-32197D01*
X80244Y-32208D01*
X80304Y-32208D01*
X80327Y-32197D01*
X80339Y-32185D01*
X80351Y-32161D01*
X80351Y-32101D01*
X80339Y-32078D01*
X80327Y-32066D01*
X80101Y-32363D02*
X80101Y-32387D01*
X80113Y-32411D01*
X80125Y-32423D01*
X80149Y-32435D01*
X80196Y-32446D01*
X80256Y-32446D01*
X80304Y-32435D01*
X80327Y-32423D01*
X80339Y-32411D01*
X80351Y-32387D01*
X80351Y-32363D01*
X80339Y-32339D01*
X80327Y-32327D01*
X80304Y-32316D01*
X80256Y-32304D01*
X80196Y-32304D01*
X80149Y-32316D01*
X80125Y-32327D01*
X80113Y-32339D01*
X80101Y-32363D01*
X80101Y-32530D02*
X80101Y-32684D01*
X80196Y-32601D01*
X80196Y-32637D01*
X80208Y-32661D01*
X80220Y-32673D01*
X80244Y-32684D01*
X80304Y-32684D01*
X80327Y-32673D01*
X80339Y-32661D01*
X80351Y-32637D01*
X80351Y-32565D01*
X80339Y-32542D01*
X80327Y-32530D01*
X83280Y-35377D02*
X83292Y-35389D01*
X83327Y-35401D01*
X83351Y-35401D01*
X83387Y-35389D01*
X83411Y-35365D01*
X83422Y-35342D01*
X83434Y-35294D01*
X83434Y-35258D01*
X83422Y-35211D01*
X83411Y-35187D01*
X83387Y-35163D01*
X83351Y-35151D01*
X83327Y-35151D01*
X83292Y-35163D01*
X83280Y-35175D01*
X83053Y-35151D02*
X83172Y-35151D01*
X83184Y-35270D01*
X83172Y-35258D01*
X83149Y-35246D01*
X83089Y-35246D01*
X83065Y-35258D01*
X83053Y-35270D01*
X83042Y-35294D01*
X83042Y-35354D01*
X83053Y-35377D01*
X83065Y-35389D01*
X83089Y-35401D01*
X83149Y-35401D01*
X83172Y-35389D01*
X83184Y-35377D01*
X82887Y-35151D02*
X82863Y-35151D01*
X82839Y-35163D01*
X82827Y-35175D01*
X82815Y-35199D01*
X82804Y-35246D01*
X82804Y-35306D01*
X82815Y-35354D01*
X82827Y-35377D01*
X82839Y-35389D01*
X82863Y-35401D01*
X82887Y-35401D01*
X82911Y-35389D01*
X82923Y-35377D01*
X82934Y-35354D01*
X82946Y-35306D01*
X82946Y-35246D01*
X82934Y-35199D01*
X82923Y-35175D01*
X82911Y-35163D01*
X82887Y-35151D01*
X82566Y-35401D02*
X82708Y-35401D01*
X82637Y-35401D02*
X82637Y-35151D01*
X82661Y-35187D01*
X82685Y-35211D01*
X82708Y-35223D01*
X21777Y-29470D02*
X21789Y-29458D01*
X21801Y-29423D01*
X21801Y-29399D01*
X21789Y-29363D01*
X21765Y-29339D01*
X21742Y-29328D01*
X21694Y-29316D01*
X21658Y-29316D01*
X21611Y-29328D01*
X21587Y-29339D01*
X21563Y-29363D01*
X21551Y-29399D01*
X21551Y-29423D01*
X21563Y-29458D01*
X21575Y-29470D01*
X21551Y-29697D02*
X21551Y-29578D01*
X21670Y-29566D01*
X21658Y-29578D01*
X21646Y-29601D01*
X21646Y-29661D01*
X21658Y-29685D01*
X21670Y-29697D01*
X21694Y-29708D01*
X21754Y-29708D01*
X21777Y-29697D01*
X21789Y-29685D01*
X21801Y-29661D01*
X21801Y-29601D01*
X21789Y-29578D01*
X21777Y-29566D01*
X21551Y-29863D02*
X21551Y-29887D01*
X21563Y-29911D01*
X21575Y-29923D01*
X21599Y-29935D01*
X21646Y-29946D01*
X21706Y-29946D01*
X21754Y-29935D01*
X21777Y-29923D01*
X21789Y-29911D01*
X21801Y-29887D01*
X21801Y-29863D01*
X21789Y-29839D01*
X21777Y-29827D01*
X21754Y-29816D01*
X21706Y-29804D01*
X21646Y-29804D01*
X21599Y-29816D01*
X21575Y-29827D01*
X21563Y-29839D01*
X21551Y-29863D01*
X21575Y-30042D02*
X21563Y-30054D01*
X21551Y-30077D01*
X21551Y-30137D01*
X21563Y-30161D01*
X21575Y-30173D01*
X21599Y-30184D01*
X21623Y-30184D01*
X21658Y-30173D01*
X21801Y-30030D01*
X21801Y-30184D01*
X25001Y-20920D02*
X24882Y-20837D01*
X25001Y-20778D02*
X24751Y-20778D01*
X24751Y-20873D01*
X24763Y-20897D01*
X24775Y-20908D01*
X24799Y-20920D01*
X24835Y-20920D01*
X24858Y-20908D01*
X24870Y-20897D01*
X24882Y-20873D01*
X24882Y-20778D01*
X24751Y-21147D02*
X24751Y-21028D01*
X24870Y-21016D01*
X24858Y-21028D01*
X24846Y-21051D01*
X24846Y-21111D01*
X24858Y-21135D01*
X24870Y-21147D01*
X24894Y-21158D01*
X24954Y-21158D01*
X24977Y-21147D01*
X24989Y-21135D01*
X25001Y-21111D01*
X25001Y-21051D01*
X24989Y-21028D01*
X24977Y-21016D01*
X24751Y-21313D02*
X24751Y-21337D01*
X24763Y-21361D01*
X24775Y-21373D01*
X24799Y-21385D01*
X24846Y-21396D01*
X24906Y-21396D01*
X24954Y-21385D01*
X24977Y-21373D01*
X24989Y-21361D01*
X25001Y-21337D01*
X25001Y-21313D01*
X24989Y-21289D01*
X24977Y-21277D01*
X24954Y-21266D01*
X24906Y-21254D01*
X24846Y-21254D01*
X24799Y-21266D01*
X24775Y-21277D01*
X24763Y-21289D01*
X24751Y-21313D01*
X25001Y-21634D02*
X25001Y-21492D01*
X25001Y-21563D02*
X24751Y-21563D01*
X24787Y-21539D01*
X24811Y-21515D01*
X24823Y-21492D01*
X26980Y-24701D02*
X27063Y-24582D01*
X27122Y-24701D02*
X27122Y-24451D01*
X27027Y-24451D01*
X27003Y-24463D01*
X26992Y-24475D01*
X26980Y-24499D01*
X26980Y-24535D01*
X26992Y-24558D01*
X27003Y-24570D01*
X27027Y-24582D01*
X27122Y-24582D01*
X26753Y-24451D02*
X26872Y-24451D01*
X26884Y-24570D01*
X26872Y-24558D01*
X26849Y-24546D01*
X26789Y-24546D01*
X26765Y-24558D01*
X26753Y-24570D01*
X26742Y-24594D01*
X26742Y-24654D01*
X26753Y-24677D01*
X26765Y-24689D01*
X26789Y-24701D01*
X26849Y-24701D01*
X26872Y-24689D01*
X26884Y-24677D01*
X26587Y-24451D02*
X26563Y-24451D01*
X26539Y-24463D01*
X26527Y-24475D01*
X26515Y-24499D01*
X26504Y-24546D01*
X26504Y-24606D01*
X26515Y-24654D01*
X26527Y-24677D01*
X26539Y-24689D01*
X26563Y-24701D01*
X26587Y-24701D01*
X26611Y-24689D01*
X26623Y-24677D01*
X26634Y-24654D01*
X26646Y-24606D01*
X26646Y-24546D01*
X26634Y-24499D01*
X26623Y-24475D01*
X26611Y-24463D01*
X26587Y-24451D01*
X26408Y-24475D02*
X26396Y-24463D01*
X26373Y-24451D01*
X26313Y-24451D01*
X26289Y-24463D01*
X26277Y-24475D01*
X26266Y-24499D01*
X26266Y-24523D01*
X26277Y-24558D01*
X26420Y-24701D01*
X26266Y-24701D01*
X21027Y-29470D02*
X21039Y-29458D01*
X21051Y-29423D01*
X21051Y-29399D01*
X21039Y-29363D01*
X21015Y-29339D01*
X20992Y-29328D01*
X20944Y-29316D01*
X20908Y-29316D01*
X20861Y-29328D01*
X20837Y-29339D01*
X20813Y-29363D01*
X20801Y-29399D01*
X20801Y-29423D01*
X20813Y-29458D01*
X20825Y-29470D01*
X20801Y-29697D02*
X20801Y-29578D01*
X20920Y-29566D01*
X20908Y-29578D01*
X20896Y-29601D01*
X20896Y-29661D01*
X20908Y-29685D01*
X20920Y-29697D01*
X20944Y-29708D01*
X21004Y-29708D01*
X21027Y-29697D01*
X21039Y-29685D01*
X21051Y-29661D01*
X21051Y-29601D01*
X21039Y-29578D01*
X21027Y-29566D01*
X20801Y-29863D02*
X20801Y-29887D01*
X20813Y-29911D01*
X20825Y-29923D01*
X20849Y-29935D01*
X20896Y-29946D01*
X20956Y-29946D01*
X21004Y-29935D01*
X21027Y-29923D01*
X21039Y-29911D01*
X21051Y-29887D01*
X21051Y-29863D01*
X21039Y-29839D01*
X21027Y-29827D01*
X21004Y-29816D01*
X20956Y-29804D01*
X20896Y-29804D01*
X20849Y-29816D01*
X20825Y-29827D01*
X20813Y-29839D01*
X20801Y-29863D01*
X20801Y-30030D02*
X20801Y-30184D01*
X20896Y-30101D01*
X20896Y-30137D01*
X20908Y-30161D01*
X20920Y-30173D01*
X20944Y-30184D01*
X21004Y-30184D01*
X21027Y-30173D01*
X21039Y-30161D01*
X21051Y-30137D01*
X21051Y-30065D01*
X21039Y-30042D01*
X21027Y-30030D01*
X28327Y-29870D02*
X28339Y-29858D01*
X28351Y-29823D01*
X28351Y-29799D01*
X28339Y-29763D01*
X28315Y-29739D01*
X28292Y-29728D01*
X28244Y-29716D01*
X28208Y-29716D01*
X28161Y-29728D01*
X28137Y-29739D01*
X28113Y-29763D01*
X28101Y-29799D01*
X28101Y-29823D01*
X28113Y-29858D01*
X28125Y-29870D01*
X28101Y-30097D02*
X28101Y-29978D01*
X28220Y-29966D01*
X28208Y-29978D01*
X28196Y-30001D01*
X28196Y-30061D01*
X28208Y-30085D01*
X28220Y-30097D01*
X28244Y-30108D01*
X28304Y-30108D01*
X28327Y-30097D01*
X28339Y-30085D01*
X28351Y-30061D01*
X28351Y-30001D01*
X28339Y-29978D01*
X28327Y-29966D01*
X28101Y-30263D02*
X28101Y-30287D01*
X28113Y-30311D01*
X28125Y-30323D01*
X28149Y-30335D01*
X28196Y-30346D01*
X28256Y-30346D01*
X28304Y-30335D01*
X28327Y-30323D01*
X28339Y-30311D01*
X28351Y-30287D01*
X28351Y-30263D01*
X28339Y-30239D01*
X28327Y-30227D01*
X28304Y-30216D01*
X28256Y-30204D01*
X28196Y-30204D01*
X28149Y-30216D01*
X28125Y-30227D01*
X28113Y-30239D01*
X28101Y-30263D01*
X28185Y-30561D02*
X28351Y-30561D01*
X28089Y-30501D02*
X28268Y-30442D01*
X28268Y-30596D01*
X27627Y-29820D02*
X27639Y-29808D01*
X27651Y-29773D01*
X27651Y-29749D01*
X27639Y-29713D01*
X27615Y-29689D01*
X27592Y-29678D01*
X27544Y-29666D01*
X27508Y-29666D01*
X27461Y-29678D01*
X27437Y-29689D01*
X27413Y-29713D01*
X27401Y-29749D01*
X27401Y-29773D01*
X27413Y-29808D01*
X27425Y-29820D01*
X27401Y-30047D02*
X27401Y-29928D01*
X27520Y-29916D01*
X27508Y-29928D01*
X27496Y-29951D01*
X27496Y-30011D01*
X27508Y-30035D01*
X27520Y-30047D01*
X27544Y-30058D01*
X27604Y-30058D01*
X27627Y-30047D01*
X27639Y-30035D01*
X27651Y-30011D01*
X27651Y-29951D01*
X27639Y-29928D01*
X27627Y-29916D01*
X27401Y-30213D02*
X27401Y-30237D01*
X27413Y-30261D01*
X27425Y-30273D01*
X27449Y-30285D01*
X27496Y-30296D01*
X27556Y-30296D01*
X27604Y-30285D01*
X27627Y-30273D01*
X27639Y-30261D01*
X27651Y-30237D01*
X27651Y-30213D01*
X27639Y-30189D01*
X27627Y-30177D01*
X27604Y-30166D01*
X27556Y-30154D01*
X27496Y-30154D01*
X27449Y-30166D01*
X27425Y-30177D01*
X27413Y-30189D01*
X27401Y-30213D01*
X27401Y-30523D02*
X27401Y-30404D01*
X27520Y-30392D01*
X27508Y-30404D01*
X27496Y-30427D01*
X27496Y-30487D01*
X27508Y-30511D01*
X27520Y-30523D01*
X27544Y-30534D01*
X27604Y-30534D01*
X27627Y-30523D01*
X27639Y-30511D01*
X27651Y-30487D01*
X27651Y-30427D01*
X27639Y-30404D01*
X27627Y-30392D01*
X39177Y-32220D02*
X39189Y-32208D01*
X39201Y-32173D01*
X39201Y-32149D01*
X39189Y-32113D01*
X39165Y-32089D01*
X39142Y-32078D01*
X39094Y-32066D01*
X39058Y-32066D01*
X39011Y-32078D01*
X38987Y-32089D01*
X38963Y-32113D01*
X38951Y-32149D01*
X38951Y-32173D01*
X38963Y-32208D01*
X38975Y-32220D01*
X38951Y-32447D02*
X38951Y-32328D01*
X39070Y-32316D01*
X39058Y-32328D01*
X39046Y-32351D01*
X39046Y-32411D01*
X39058Y-32435D01*
X39070Y-32447D01*
X39094Y-32458D01*
X39154Y-32458D01*
X39177Y-32447D01*
X39189Y-32435D01*
X39201Y-32411D01*
X39201Y-32351D01*
X39189Y-32328D01*
X39177Y-32316D01*
X38951Y-32613D02*
X38951Y-32637D01*
X38963Y-32661D01*
X38975Y-32673D01*
X38999Y-32685D01*
X39046Y-32696D01*
X39106Y-32696D01*
X39154Y-32685D01*
X39177Y-32673D01*
X39189Y-32661D01*
X39201Y-32637D01*
X39201Y-32613D01*
X39189Y-32589D01*
X39177Y-32577D01*
X39154Y-32566D01*
X39106Y-32554D01*
X39046Y-32554D01*
X38999Y-32566D01*
X38975Y-32577D01*
X38963Y-32589D01*
X38951Y-32613D01*
X38951Y-32911D02*
X38951Y-32863D01*
X38963Y-32839D01*
X38975Y-32827D01*
X39011Y-32804D01*
X39058Y-32792D01*
X39154Y-32792D01*
X39177Y-32804D01*
X39189Y-32815D01*
X39201Y-32839D01*
X39201Y-32887D01*
X39189Y-32911D01*
X39177Y-32923D01*
X39154Y-32934D01*
X39094Y-32934D01*
X39070Y-32923D01*
X39058Y-32911D01*
X39046Y-32887D01*
X39046Y-32839D01*
X39058Y-32815D01*
X39070Y-32804D01*
X39094Y-32792D01*
X38477Y-32220D02*
X38489Y-32208D01*
X38501Y-32173D01*
X38501Y-32149D01*
X38489Y-32113D01*
X38465Y-32089D01*
X38442Y-32078D01*
X38394Y-32066D01*
X38358Y-32066D01*
X38311Y-32078D01*
X38287Y-32089D01*
X38263Y-32113D01*
X38251Y-32149D01*
X38251Y-32173D01*
X38263Y-32208D01*
X38275Y-32220D01*
X38251Y-32447D02*
X38251Y-32328D01*
X38370Y-32316D01*
X38358Y-32328D01*
X38346Y-32351D01*
X38346Y-32411D01*
X38358Y-32435D01*
X38370Y-32447D01*
X38394Y-32458D01*
X38454Y-32458D01*
X38477Y-32447D01*
X38489Y-32435D01*
X38501Y-32411D01*
X38501Y-32351D01*
X38489Y-32328D01*
X38477Y-32316D01*
X38251Y-32613D02*
X38251Y-32637D01*
X38263Y-32661D01*
X38275Y-32673D01*
X38299Y-32685D01*
X38346Y-32696D01*
X38406Y-32696D01*
X38454Y-32685D01*
X38477Y-32673D01*
X38489Y-32661D01*
X38501Y-32637D01*
X38501Y-32613D01*
X38489Y-32589D01*
X38477Y-32577D01*
X38454Y-32566D01*
X38406Y-32554D01*
X38346Y-32554D01*
X38299Y-32566D01*
X38275Y-32577D01*
X38263Y-32589D01*
X38251Y-32613D01*
X38251Y-32780D02*
X38251Y-32946D01*
X38501Y-32839D01*
G54D10*
X65215Y-29321D02*
X65215Y-29564D01*
X65200Y-29593D01*
X65186Y-29607D01*
X65157Y-29621D01*
X65100Y-29621D01*
X65072Y-29607D01*
X65057Y-29593D01*
X65043Y-29564D01*
X65043Y-29321D01*
X64929Y-29321D02*
X64743Y-29321D01*
X64843Y-29436D01*
X64801Y-29436D01*
X64772Y-29450D01*
X64758Y-29464D01*
X64743Y-29493D01*
X64743Y-29564D01*
X64758Y-29593D01*
X64772Y-29607D01*
X64801Y-29621D01*
X64886Y-29621D01*
X64915Y-29607D01*
X64929Y-29593D01*
X64557Y-29321D02*
X64529Y-29321D01*
X64500Y-29336D01*
X64486Y-29350D01*
X64472Y-29379D01*
X64457Y-29436D01*
X64457Y-29507D01*
X64472Y-29564D01*
X64486Y-29593D01*
X64500Y-29607D01*
X64529Y-29621D01*
X64557Y-29621D01*
X64586Y-29607D01*
X64600Y-29593D01*
X64615Y-29564D01*
X64629Y-29507D01*
X64629Y-29436D01*
X64615Y-29379D01*
X64600Y-29350D01*
X64586Y-29336D01*
X64557Y-29321D01*
X64357Y-29321D02*
X64157Y-29321D01*
X64286Y-29621D01*
X70665Y-20771D02*
X70665Y-21014D01*
X70650Y-21043D01*
X70636Y-21057D01*
X70607Y-21071D01*
X70550Y-21071D01*
X70522Y-21057D01*
X70507Y-21043D01*
X70493Y-21014D01*
X70493Y-20771D01*
X70379Y-20771D02*
X70193Y-20771D01*
X70293Y-20886D01*
X70251Y-20886D01*
X70222Y-20900D01*
X70208Y-20914D01*
X70193Y-20943D01*
X70193Y-21014D01*
X70208Y-21043D01*
X70222Y-21057D01*
X70251Y-21071D01*
X70336Y-21071D01*
X70365Y-21057D01*
X70379Y-21043D01*
X70007Y-20771D02*
X69979Y-20771D01*
X69950Y-20786D01*
X69936Y-20800D01*
X69922Y-20829D01*
X69907Y-20886D01*
X69907Y-20957D01*
X69922Y-21014D01*
X69936Y-21043D01*
X69950Y-21057D01*
X69979Y-21071D01*
X70007Y-21071D01*
X70036Y-21057D01*
X70050Y-21043D01*
X70065Y-21014D01*
X70079Y-20957D01*
X70079Y-20886D01*
X70065Y-20829D01*
X70050Y-20800D01*
X70036Y-20786D01*
X70007Y-20771D01*
X69636Y-20771D02*
X69779Y-20771D01*
X69793Y-20914D01*
X69779Y-20900D01*
X69750Y-20886D01*
X69679Y-20886D01*
X69650Y-20900D01*
X69636Y-20914D01*
X69621Y-20943D01*
X69621Y-21014D01*
X69636Y-21043D01*
X69650Y-21057D01*
X69679Y-21071D01*
X69750Y-21071D01*
X69779Y-21057D01*
X69793Y-21043D01*
X78265Y-27121D02*
X78265Y-27364D01*
X78250Y-27393D01*
X78236Y-27407D01*
X78207Y-27421D01*
X78150Y-27421D01*
X78122Y-27407D01*
X78107Y-27393D01*
X78093Y-27364D01*
X78093Y-27121D01*
X77979Y-27121D02*
X77793Y-27121D01*
X77893Y-27236D01*
X77851Y-27236D01*
X77822Y-27250D01*
X77808Y-27264D01*
X77793Y-27293D01*
X77793Y-27364D01*
X77808Y-27393D01*
X77822Y-27407D01*
X77851Y-27421D01*
X77936Y-27421D01*
X77965Y-27407D01*
X77979Y-27393D01*
X77607Y-27121D02*
X77579Y-27121D01*
X77550Y-27136D01*
X77536Y-27150D01*
X77522Y-27179D01*
X77507Y-27236D01*
X77507Y-27307D01*
X77522Y-27364D01*
X77536Y-27393D01*
X77550Y-27407D01*
X77579Y-27421D01*
X77607Y-27421D01*
X77636Y-27407D01*
X77650Y-27393D01*
X77665Y-27364D01*
X77679Y-27307D01*
X77679Y-27236D01*
X77665Y-27179D01*
X77650Y-27150D01*
X77636Y-27136D01*
X77607Y-27121D01*
X77250Y-27221D02*
X77250Y-27421D01*
X77321Y-27107D02*
X77393Y-27321D01*
X77207Y-27321D01*
X75415Y-22771D02*
X75415Y-23014D01*
X75400Y-23043D01*
X75386Y-23057D01*
X75357Y-23071D01*
X75300Y-23071D01*
X75272Y-23057D01*
X75257Y-23043D01*
X75243Y-23014D01*
X75243Y-22771D01*
X75129Y-22771D02*
X74943Y-22771D01*
X75043Y-22886D01*
X75001Y-22886D01*
X74972Y-22900D01*
X74958Y-22914D01*
X74943Y-22943D01*
X74943Y-23014D01*
X74958Y-23043D01*
X74972Y-23057D01*
X75001Y-23071D01*
X75086Y-23071D01*
X75115Y-23057D01*
X75129Y-23043D01*
X74757Y-22771D02*
X74729Y-22771D01*
X74700Y-22786D01*
X74686Y-22800D01*
X74672Y-22829D01*
X74657Y-22886D01*
X74657Y-22957D01*
X74672Y-23014D01*
X74686Y-23043D01*
X74700Y-23057D01*
X74729Y-23071D01*
X74757Y-23071D01*
X74786Y-23057D01*
X74800Y-23043D01*
X74815Y-23014D01*
X74829Y-22957D01*
X74829Y-22886D01*
X74815Y-22829D01*
X74800Y-22800D01*
X74786Y-22786D01*
X74757Y-22771D01*
X74543Y-22800D02*
X74529Y-22786D01*
X74500Y-22771D01*
X74429Y-22771D01*
X74400Y-22786D01*
X74386Y-22800D01*
X74371Y-22829D01*
X74371Y-22857D01*
X74386Y-22900D01*
X74557Y-23071D01*
X74371Y-23071D01*
X75465Y-27071D02*
X75465Y-27314D01*
X75450Y-27343D01*
X75436Y-27357D01*
X75407Y-27371D01*
X75350Y-27371D01*
X75322Y-27357D01*
X75307Y-27343D01*
X75293Y-27314D01*
X75293Y-27071D01*
X75179Y-27071D02*
X74993Y-27071D01*
X75093Y-27186D01*
X75051Y-27186D01*
X75022Y-27200D01*
X75008Y-27214D01*
X74993Y-27243D01*
X74993Y-27314D01*
X75008Y-27343D01*
X75022Y-27357D01*
X75051Y-27371D01*
X75136Y-27371D01*
X75165Y-27357D01*
X75179Y-27343D01*
X74807Y-27071D02*
X74779Y-27071D01*
X74750Y-27086D01*
X74736Y-27100D01*
X74722Y-27129D01*
X74707Y-27186D01*
X74707Y-27257D01*
X74722Y-27314D01*
X74736Y-27343D01*
X74750Y-27357D01*
X74779Y-27371D01*
X74807Y-27371D01*
X74836Y-27357D01*
X74850Y-27343D01*
X74865Y-27314D01*
X74879Y-27257D01*
X74879Y-27186D01*
X74865Y-27129D01*
X74850Y-27100D01*
X74836Y-27086D01*
X74807Y-27071D01*
X74607Y-27071D02*
X74421Y-27071D01*
X74521Y-27186D01*
X74479Y-27186D01*
X74450Y-27200D01*
X74436Y-27214D01*
X74421Y-27243D01*
X74421Y-27314D01*
X74436Y-27343D01*
X74450Y-27357D01*
X74479Y-27371D01*
X74564Y-27371D01*
X74593Y-27357D01*
X74607Y-27343D01*
X34515Y-28371D02*
X34515Y-28614D01*
X34500Y-28643D01*
X34486Y-28657D01*
X34457Y-28671D01*
X34400Y-28671D01*
X34372Y-28657D01*
X34357Y-28643D01*
X34343Y-28614D01*
X34343Y-28371D01*
X34215Y-28400D02*
X34201Y-28386D01*
X34172Y-28371D01*
X34101Y-28371D01*
X34072Y-28386D01*
X34058Y-28400D01*
X34043Y-28429D01*
X34043Y-28457D01*
X34058Y-28500D01*
X34229Y-28671D01*
X34043Y-28671D01*
X33857Y-28371D02*
X33829Y-28371D01*
X33800Y-28386D01*
X33786Y-28400D01*
X33772Y-28429D01*
X33757Y-28486D01*
X33757Y-28557D01*
X33772Y-28614D01*
X33786Y-28643D01*
X33800Y-28657D01*
X33829Y-28671D01*
X33857Y-28671D01*
X33886Y-28657D01*
X33900Y-28643D01*
X33915Y-28614D01*
X33929Y-28557D01*
X33929Y-28486D01*
X33915Y-28429D01*
X33900Y-28400D01*
X33886Y-28386D01*
X33857Y-28371D01*
X33586Y-28500D02*
X33614Y-28486D01*
X33629Y-28471D01*
X33643Y-28443D01*
X33643Y-28429D01*
X33629Y-28400D01*
X33614Y-28386D01*
X33586Y-28371D01*
X33529Y-28371D01*
X33500Y-28386D01*
X33486Y-28400D01*
X33471Y-28429D01*
X33471Y-28443D01*
X33486Y-28471D01*
X33500Y-28486D01*
X33529Y-28500D01*
X33586Y-28500D01*
X33614Y-28514D01*
X33629Y-28529D01*
X33643Y-28557D01*
X33643Y-28614D01*
X33629Y-28643D01*
X33614Y-28657D01*
X33586Y-28671D01*
X33529Y-28671D01*
X33500Y-28657D01*
X33486Y-28643D01*
X33471Y-28614D01*
X33471Y-28557D01*
X33486Y-28529D01*
X33500Y-28514D01*
X33529Y-28500D01*
X32315Y-29121D02*
X32315Y-29364D01*
X32300Y-29393D01*
X32286Y-29407D01*
X32257Y-29421D01*
X32200Y-29421D01*
X32172Y-29407D01*
X32157Y-29393D01*
X32143Y-29364D01*
X32143Y-29121D01*
X32015Y-29150D02*
X32001Y-29136D01*
X31972Y-29121D01*
X31901Y-29121D01*
X31872Y-29136D01*
X31858Y-29150D01*
X31843Y-29179D01*
X31843Y-29207D01*
X31858Y-29250D01*
X32029Y-29421D01*
X31843Y-29421D01*
X31657Y-29121D02*
X31629Y-29121D01*
X31600Y-29136D01*
X31586Y-29150D01*
X31572Y-29179D01*
X31557Y-29236D01*
X31557Y-29307D01*
X31572Y-29364D01*
X31586Y-29393D01*
X31600Y-29407D01*
X31629Y-29421D01*
X31657Y-29421D01*
X31686Y-29407D01*
X31700Y-29393D01*
X31715Y-29364D01*
X31729Y-29307D01*
X31729Y-29236D01*
X31715Y-29179D01*
X31700Y-29150D01*
X31686Y-29136D01*
X31657Y-29121D01*
X31457Y-29121D02*
X31257Y-29121D01*
X31386Y-29421D01*
X34965Y-20521D02*
X34965Y-20764D01*
X34950Y-20793D01*
X34936Y-20807D01*
X34907Y-20821D01*
X34850Y-20821D01*
X34822Y-20807D01*
X34807Y-20793D01*
X34793Y-20764D01*
X34793Y-20521D01*
X34665Y-20550D02*
X34651Y-20536D01*
X34622Y-20521D01*
X34551Y-20521D01*
X34522Y-20536D01*
X34508Y-20550D01*
X34493Y-20579D01*
X34493Y-20607D01*
X34508Y-20650D01*
X34679Y-20821D01*
X34493Y-20821D01*
X34307Y-20521D02*
X34279Y-20521D01*
X34250Y-20536D01*
X34236Y-20550D01*
X34222Y-20579D01*
X34207Y-20636D01*
X34207Y-20707D01*
X34222Y-20764D01*
X34236Y-20793D01*
X34250Y-20807D01*
X34279Y-20821D01*
X34307Y-20821D01*
X34336Y-20807D01*
X34350Y-20793D01*
X34365Y-20764D01*
X34379Y-20707D01*
X34379Y-20636D01*
X34365Y-20579D01*
X34350Y-20550D01*
X34336Y-20536D01*
X34307Y-20521D01*
X33936Y-20521D02*
X34079Y-20521D01*
X34093Y-20664D01*
X34079Y-20650D01*
X34050Y-20636D01*
X33979Y-20636D01*
X33950Y-20650D01*
X33936Y-20664D01*
X33921Y-20693D01*
X33921Y-20764D01*
X33936Y-20793D01*
X33950Y-20807D01*
X33979Y-20821D01*
X34050Y-20821D01*
X34079Y-20807D01*
X34093Y-20793D01*
X60515Y-27521D02*
X60515Y-27764D01*
X60500Y-27793D01*
X60486Y-27807D01*
X60457Y-27821D01*
X60400Y-27821D01*
X60372Y-27807D01*
X60357Y-27793D01*
X60343Y-27764D01*
X60343Y-27521D01*
X60215Y-27550D02*
X60201Y-27536D01*
X60172Y-27521D01*
X60101Y-27521D01*
X60072Y-27536D01*
X60058Y-27550D01*
X60043Y-27579D01*
X60043Y-27607D01*
X60058Y-27650D01*
X60229Y-27821D01*
X60043Y-27821D01*
X59857Y-27521D02*
X59829Y-27521D01*
X59800Y-27536D01*
X59786Y-27550D01*
X59772Y-27579D01*
X59757Y-27636D01*
X59757Y-27707D01*
X59772Y-27764D01*
X59786Y-27793D01*
X59800Y-27807D01*
X59829Y-27821D01*
X59857Y-27821D01*
X59886Y-27807D01*
X59900Y-27793D01*
X59915Y-27764D01*
X59929Y-27707D01*
X59929Y-27636D01*
X59915Y-27579D01*
X59900Y-27550D01*
X59886Y-27536D01*
X59857Y-27521D01*
X59500Y-27621D02*
X59500Y-27821D01*
X59571Y-27507D02*
X59643Y-27721D01*
X59457Y-27721D01*
X58165Y-22671D02*
X58165Y-22914D01*
X58150Y-22943D01*
X58136Y-22957D01*
X58107Y-22971D01*
X58050Y-22971D01*
X58022Y-22957D01*
X58007Y-22943D01*
X57993Y-22914D01*
X57993Y-22671D01*
X57865Y-22700D02*
X57851Y-22686D01*
X57822Y-22671D01*
X57751Y-22671D01*
X57722Y-22686D01*
X57708Y-22700D01*
X57693Y-22729D01*
X57693Y-22757D01*
X57708Y-22800D01*
X57879Y-22971D01*
X57693Y-22971D01*
X57507Y-22671D02*
X57479Y-22671D01*
X57450Y-22686D01*
X57436Y-22700D01*
X57422Y-22729D01*
X57407Y-22786D01*
X57407Y-22857D01*
X57422Y-22914D01*
X57436Y-22943D01*
X57450Y-22957D01*
X57479Y-22971D01*
X57507Y-22971D01*
X57536Y-22957D01*
X57550Y-22943D01*
X57565Y-22914D01*
X57579Y-22857D01*
X57579Y-22786D01*
X57565Y-22729D01*
X57550Y-22700D01*
X57536Y-22686D01*
X57507Y-22671D01*
X57293Y-22700D02*
X57279Y-22686D01*
X57250Y-22671D01*
X57179Y-22671D01*
X57150Y-22686D01*
X57136Y-22700D01*
X57121Y-22729D01*
X57121Y-22757D01*
X57136Y-22800D01*
X57307Y-22971D01*
X57121Y-22971D01*
X58065Y-28221D02*
X58065Y-28464D01*
X58050Y-28493D01*
X58036Y-28507D01*
X58007Y-28521D01*
X57950Y-28521D01*
X57922Y-28507D01*
X57907Y-28493D01*
X57893Y-28464D01*
X57893Y-28221D01*
X57765Y-28250D02*
X57751Y-28236D01*
X57722Y-28221D01*
X57651Y-28221D01*
X57622Y-28236D01*
X57608Y-28250D01*
X57593Y-28279D01*
X57593Y-28307D01*
X57608Y-28350D01*
X57779Y-28521D01*
X57593Y-28521D01*
X57407Y-28221D02*
X57379Y-28221D01*
X57350Y-28236D01*
X57336Y-28250D01*
X57322Y-28279D01*
X57307Y-28336D01*
X57307Y-28407D01*
X57322Y-28464D01*
X57336Y-28493D01*
X57350Y-28507D01*
X57379Y-28521D01*
X57407Y-28521D01*
X57436Y-28507D01*
X57450Y-28493D01*
X57465Y-28464D01*
X57479Y-28407D01*
X57479Y-28336D01*
X57465Y-28279D01*
X57450Y-28250D01*
X57436Y-28236D01*
X57407Y-28221D01*
X57207Y-28221D02*
X57021Y-28221D01*
X57121Y-28336D01*
X57079Y-28336D01*
X57050Y-28350D01*
X57036Y-28364D01*
X57021Y-28393D01*
X57021Y-28464D01*
X57036Y-28493D01*
X57050Y-28507D01*
X57079Y-28521D01*
X57164Y-28521D01*
X57193Y-28507D01*
X57207Y-28493D01*
X68365Y-29321D02*
X68365Y-29564D01*
X68350Y-29593D01*
X68336Y-29607D01*
X68307Y-29621D01*
X68250Y-29621D01*
X68222Y-29607D01*
X68207Y-29593D01*
X68193Y-29564D01*
X68193Y-29321D01*
X68079Y-29321D02*
X67893Y-29321D01*
X67993Y-29436D01*
X67951Y-29436D01*
X67922Y-29450D01*
X67908Y-29464D01*
X67893Y-29493D01*
X67893Y-29564D01*
X67908Y-29593D01*
X67922Y-29607D01*
X67951Y-29621D01*
X68036Y-29621D01*
X68065Y-29607D01*
X68079Y-29593D01*
X67707Y-29321D02*
X67679Y-29321D01*
X67650Y-29336D01*
X67636Y-29350D01*
X67622Y-29379D01*
X67607Y-29436D01*
X67607Y-29507D01*
X67622Y-29564D01*
X67636Y-29593D01*
X67650Y-29607D01*
X67679Y-29621D01*
X67707Y-29621D01*
X67736Y-29607D01*
X67750Y-29593D01*
X67765Y-29564D01*
X67779Y-29507D01*
X67779Y-29436D01*
X67765Y-29379D01*
X67750Y-29350D01*
X67736Y-29336D01*
X67707Y-29321D01*
X67436Y-29450D02*
X67464Y-29436D01*
X67479Y-29421D01*
X67493Y-29393D01*
X67493Y-29379D01*
X67479Y-29350D01*
X67464Y-29336D01*
X67436Y-29321D01*
X67379Y-29321D01*
X67350Y-29336D01*
X67336Y-29350D01*
X67321Y-29379D01*
X67321Y-29393D01*
X67336Y-29421D01*
X67350Y-29436D01*
X67379Y-29450D01*
X67436Y-29450D01*
X67464Y-29464D01*
X67479Y-29479D01*
X67493Y-29507D01*
X67493Y-29564D01*
X67479Y-29593D01*
X67464Y-29607D01*
X67436Y-29621D01*
X67379Y-29621D01*
X67350Y-29607D01*
X67336Y-29593D01*
X67321Y-29564D01*
X67321Y-29507D01*
X67336Y-29479D01*
X67350Y-29464D01*
X67379Y-29450D01*
X64665Y-20871D02*
X64665Y-21114D01*
X64650Y-21143D01*
X64636Y-21157D01*
X64607Y-21171D01*
X64550Y-21171D01*
X64522Y-21157D01*
X64507Y-21143D01*
X64493Y-21114D01*
X64493Y-20871D01*
X64379Y-20871D02*
X64193Y-20871D01*
X64293Y-20986D01*
X64251Y-20986D01*
X64222Y-21000D01*
X64208Y-21014D01*
X64193Y-21043D01*
X64193Y-21114D01*
X64208Y-21143D01*
X64222Y-21157D01*
X64251Y-21171D01*
X64336Y-21171D01*
X64365Y-21157D01*
X64379Y-21143D01*
X64007Y-20871D02*
X63979Y-20871D01*
X63950Y-20886D01*
X63936Y-20900D01*
X63922Y-20929D01*
X63907Y-20986D01*
X63907Y-21057D01*
X63922Y-21114D01*
X63936Y-21143D01*
X63950Y-21157D01*
X63979Y-21171D01*
X64007Y-21171D01*
X64036Y-21157D01*
X64050Y-21143D01*
X64065Y-21114D01*
X64079Y-21057D01*
X64079Y-20986D01*
X64065Y-20929D01*
X64050Y-20900D01*
X64036Y-20886D01*
X64007Y-20871D01*
X63650Y-20871D02*
X63707Y-20871D01*
X63736Y-20886D01*
X63750Y-20900D01*
X63779Y-20943D01*
X63793Y-21000D01*
X63793Y-21114D01*
X63779Y-21143D01*
X63764Y-21157D01*
X63736Y-21171D01*
X63679Y-21171D01*
X63650Y-21157D01*
X63636Y-21143D01*
X63621Y-21114D01*
X63621Y-21043D01*
X63636Y-21014D01*
X63650Y-21000D01*
X63679Y-20986D01*
X63736Y-20986D01*
X63764Y-21000D01*
X63779Y-21014D01*
X63793Y-21043D01*
X38765Y-28671D02*
X38765Y-28914D01*
X38750Y-28943D01*
X38736Y-28957D01*
X38707Y-28971D01*
X38650Y-28971D01*
X38622Y-28957D01*
X38607Y-28943D01*
X38593Y-28914D01*
X38593Y-28671D01*
X38322Y-28771D02*
X38322Y-28971D01*
X38393Y-28657D02*
X38465Y-28871D01*
X38279Y-28871D01*
X38107Y-28671D02*
X38079Y-28671D01*
X38050Y-28686D01*
X38036Y-28700D01*
X38022Y-28729D01*
X38007Y-28786D01*
X38007Y-28857D01*
X38022Y-28914D01*
X38036Y-28943D01*
X38050Y-28957D01*
X38079Y-28971D01*
X38107Y-28971D01*
X38136Y-28957D01*
X38150Y-28943D01*
X38165Y-28914D01*
X38179Y-28857D01*
X38179Y-28786D01*
X38165Y-28729D01*
X38150Y-28700D01*
X38136Y-28686D01*
X38107Y-28671D01*
X37907Y-28671D02*
X37707Y-28671D01*
X37836Y-28971D01*
X38265Y-21121D02*
X38265Y-21364D01*
X38250Y-21393D01*
X38236Y-21407D01*
X38207Y-21421D01*
X38150Y-21421D01*
X38122Y-21407D01*
X38107Y-21393D01*
X38093Y-21364D01*
X38093Y-21121D01*
X37822Y-21221D02*
X37822Y-21421D01*
X37893Y-21107D02*
X37965Y-21321D01*
X37779Y-21321D01*
X37607Y-21121D02*
X37579Y-21121D01*
X37550Y-21136D01*
X37536Y-21150D01*
X37522Y-21179D01*
X37507Y-21236D01*
X37507Y-21307D01*
X37522Y-21364D01*
X37536Y-21393D01*
X37550Y-21407D01*
X37579Y-21421D01*
X37607Y-21421D01*
X37636Y-21407D01*
X37650Y-21393D01*
X37665Y-21364D01*
X37679Y-21307D01*
X37679Y-21236D01*
X37665Y-21179D01*
X37650Y-21150D01*
X37636Y-21136D01*
X37607Y-21121D01*
X37250Y-21121D02*
X37307Y-21121D01*
X37336Y-21136D01*
X37350Y-21150D01*
X37379Y-21193D01*
X37393Y-21250D01*
X37393Y-21364D01*
X37379Y-21393D01*
X37364Y-21407D01*
X37336Y-21421D01*
X37279Y-21421D01*
X37250Y-21407D01*
X37236Y-21393D01*
X37221Y-21364D01*
X37221Y-21293D01*
X37236Y-21264D01*
X37250Y-21250D01*
X37279Y-21236D01*
X37336Y-21236D01*
X37364Y-21250D01*
X37379Y-21264D01*
X37393Y-21293D01*
X42815Y-28571D02*
X42815Y-28814D01*
X42800Y-28843D01*
X42786Y-28857D01*
X42757Y-28871D01*
X42700Y-28871D01*
X42672Y-28857D01*
X42657Y-28843D01*
X42643Y-28814D01*
X42643Y-28571D01*
X42372Y-28671D02*
X42372Y-28871D01*
X42443Y-28557D02*
X42515Y-28771D01*
X42329Y-28771D01*
X42157Y-28571D02*
X42129Y-28571D01*
X42100Y-28586D01*
X42086Y-28600D01*
X42072Y-28629D01*
X42057Y-28686D01*
X42057Y-28757D01*
X42072Y-28814D01*
X42086Y-28843D01*
X42100Y-28857D01*
X42129Y-28871D01*
X42157Y-28871D01*
X42186Y-28857D01*
X42200Y-28843D01*
X42215Y-28814D01*
X42229Y-28757D01*
X42229Y-28686D01*
X42215Y-28629D01*
X42200Y-28600D01*
X42186Y-28586D01*
X42157Y-28571D01*
X41886Y-28700D02*
X41914Y-28686D01*
X41929Y-28671D01*
X41943Y-28643D01*
X41943Y-28629D01*
X41929Y-28600D01*
X41914Y-28586D01*
X41886Y-28571D01*
X41829Y-28571D01*
X41800Y-28586D01*
X41786Y-28600D01*
X41771Y-28629D01*
X41771Y-28643D01*
X41786Y-28671D01*
X41800Y-28686D01*
X41829Y-28700D01*
X41886Y-28700D01*
X41914Y-28714D01*
X41929Y-28729D01*
X41943Y-28757D01*
X41943Y-28814D01*
X41929Y-28843D01*
X41914Y-28857D01*
X41886Y-28871D01*
X41829Y-28871D01*
X41800Y-28857D01*
X41786Y-28843D01*
X41771Y-28814D01*
X41771Y-28757D01*
X41786Y-28729D01*
X41800Y-28714D01*
X41829Y-28700D01*
X49115Y-28071D02*
X49115Y-28314D01*
X49100Y-28343D01*
X49086Y-28357D01*
X49057Y-28371D01*
X49000Y-28371D01*
X48972Y-28357D01*
X48957Y-28343D01*
X48943Y-28314D01*
X48943Y-28071D01*
X48672Y-28171D02*
X48672Y-28371D01*
X48743Y-28057D02*
X48815Y-28271D01*
X48629Y-28271D01*
X48457Y-28071D02*
X48429Y-28071D01*
X48400Y-28086D01*
X48386Y-28100D01*
X48372Y-28129D01*
X48357Y-28186D01*
X48357Y-28257D01*
X48372Y-28314D01*
X48386Y-28343D01*
X48400Y-28357D01*
X48429Y-28371D01*
X48457Y-28371D01*
X48486Y-28357D01*
X48500Y-28343D01*
X48515Y-28314D01*
X48529Y-28257D01*
X48529Y-28186D01*
X48515Y-28129D01*
X48500Y-28100D01*
X48486Y-28086D01*
X48457Y-28071D01*
X48257Y-28071D02*
X48071Y-28071D01*
X48171Y-28186D01*
X48129Y-28186D01*
X48100Y-28200D01*
X48086Y-28214D01*
X48071Y-28243D01*
X48071Y-28314D01*
X48086Y-28343D01*
X48100Y-28357D01*
X48129Y-28371D01*
X48214Y-28371D01*
X48243Y-28357D01*
X48257Y-28343D01*
X51815Y-27971D02*
X51815Y-28214D01*
X51800Y-28243D01*
X51786Y-28257D01*
X51757Y-28271D01*
X51700Y-28271D01*
X51672Y-28257D01*
X51657Y-28243D01*
X51643Y-28214D01*
X51643Y-27971D01*
X51372Y-28071D02*
X51372Y-28271D01*
X51443Y-27957D02*
X51515Y-28171D01*
X51329Y-28171D01*
X51157Y-27971D02*
X51129Y-27971D01*
X51100Y-27986D01*
X51086Y-28000D01*
X51072Y-28029D01*
X51057Y-28086D01*
X51057Y-28157D01*
X51072Y-28214D01*
X51086Y-28243D01*
X51100Y-28257D01*
X51129Y-28271D01*
X51157Y-28271D01*
X51186Y-28257D01*
X51200Y-28243D01*
X51215Y-28214D01*
X51229Y-28157D01*
X51229Y-28086D01*
X51215Y-28029D01*
X51200Y-28000D01*
X51186Y-27986D01*
X51157Y-27971D01*
X50800Y-28071D02*
X50800Y-28271D01*
X50871Y-27957D02*
X50943Y-28171D01*
X50757Y-28171D01*
X49565Y-22771D02*
X49565Y-23014D01*
X49550Y-23043D01*
X49536Y-23057D01*
X49507Y-23071D01*
X49450Y-23071D01*
X49422Y-23057D01*
X49407Y-23043D01*
X49393Y-23014D01*
X49393Y-22771D01*
X49122Y-22871D02*
X49122Y-23071D01*
X49193Y-22757D02*
X49265Y-22971D01*
X49079Y-22971D01*
X48907Y-22771D02*
X48879Y-22771D01*
X48850Y-22786D01*
X48836Y-22800D01*
X48822Y-22829D01*
X48807Y-22886D01*
X48807Y-22957D01*
X48822Y-23014D01*
X48836Y-23043D01*
X48850Y-23057D01*
X48879Y-23071D01*
X48907Y-23071D01*
X48936Y-23057D01*
X48950Y-23043D01*
X48965Y-23014D01*
X48979Y-22957D01*
X48979Y-22886D01*
X48965Y-22829D01*
X48950Y-22800D01*
X48936Y-22786D01*
X48907Y-22771D01*
X48693Y-22800D02*
X48679Y-22786D01*
X48650Y-22771D01*
X48579Y-22771D01*
X48550Y-22786D01*
X48536Y-22800D01*
X48521Y-22829D01*
X48521Y-22857D01*
X48536Y-22900D01*
X48707Y-23071D01*
X48521Y-23071D01*
X43935Y-20371D02*
X43935Y-20614D01*
X43920Y-20643D01*
X43906Y-20657D01*
X43877Y-20671D01*
X43820Y-20671D01*
X43792Y-20657D01*
X43777Y-20643D01*
X43763Y-20614D01*
X43763Y-20371D01*
X43492Y-20471D02*
X43492Y-20671D01*
X43563Y-20357D02*
X43635Y-20571D01*
X43449Y-20571D01*
X43277Y-20371D02*
X43249Y-20371D01*
X43220Y-20386D01*
X43206Y-20400D01*
X43192Y-20429D01*
X43177Y-20486D01*
X43177Y-20557D01*
X43192Y-20614D01*
X43206Y-20643D01*
X43220Y-20657D01*
X43249Y-20671D01*
X43277Y-20671D01*
X43306Y-20657D01*
X43320Y-20643D01*
X43335Y-20614D01*
X43349Y-20557D01*
X43349Y-20486D01*
X43335Y-20429D01*
X43320Y-20400D01*
X43306Y-20386D01*
X43277Y-20371D01*
X42906Y-20371D02*
X43049Y-20371D01*
X43063Y-20514D01*
X43049Y-20500D01*
X43020Y-20486D01*
X42949Y-20486D01*
X42920Y-20500D01*
X42906Y-20514D01*
X42891Y-20543D01*
X42891Y-20614D01*
X42906Y-20643D01*
X42920Y-20657D01*
X42949Y-20671D01*
X43020Y-20671D01*
X43049Y-20657D01*
X43063Y-20643D01*
G54D15*
X84505Y-26852D02*
X84372Y-27352D01*
X84238Y-26852D01*
X83876Y-27352D02*
X84010Y-27114D01*
X84105Y-27352D02*
X84105Y-26852D01*
X83952Y-26852D01*
X83914Y-26876D01*
X83895Y-26900D01*
X83876Y-26948D01*
X83876Y-27019D01*
X83895Y-27067D01*
X83914Y-27090D01*
X83952Y-27114D01*
X84105Y-27114D01*
X83514Y-26852D02*
X83705Y-26852D01*
X83724Y-27090D01*
X83705Y-27067D01*
X83667Y-27043D01*
X83571Y-27043D01*
X83533Y-27067D01*
X83514Y-27090D01*
X83495Y-27138D01*
X83495Y-27257D01*
X83514Y-27305D01*
X83533Y-27329D01*
X83571Y-27352D01*
X83667Y-27352D01*
X83705Y-27329D01*
X83724Y-27305D01*
X83248Y-26852D02*
X83209Y-26852D01*
X83171Y-26876D01*
X83152Y-26900D01*
X83133Y-26948D01*
X83114Y-27043D01*
X83114Y-27162D01*
X83133Y-27257D01*
X83152Y-27305D01*
X83171Y-27329D01*
X83209Y-27352D01*
X83248Y-27352D01*
X83286Y-27329D01*
X83305Y-27305D01*
X83324Y-27257D01*
X83343Y-27162D01*
X83343Y-27043D01*
X83324Y-26948D01*
X83305Y-26900D01*
X83286Y-26876D01*
X83248Y-26852D01*
X82733Y-27352D02*
X82962Y-27352D01*
X82848Y-27352D02*
X82848Y-26852D01*
X82886Y-26924D01*
X82924Y-26971D01*
X82962Y-26995D01*
G54D14*
X41765Y-21412D02*
X41765Y-21736D01*
X41750Y-21774D01*
X41736Y-21793D01*
X41707Y-21812D01*
X41650Y-21812D01*
X41622Y-21793D01*
X41607Y-21774D01*
X41593Y-21736D01*
X41593Y-21412D01*
X41322Y-21545D02*
X41322Y-21812D01*
X41393Y-21393D02*
X41465Y-21679D01*
X41279Y-21679D01*
X41107Y-21412D02*
X41079Y-21412D01*
X41050Y-21431D01*
X41036Y-21450D01*
X41022Y-21488D01*
X41007Y-21564D01*
X41007Y-21660D01*
X41022Y-21736D01*
X41036Y-21774D01*
X41050Y-21793D01*
X41079Y-21812D01*
X41107Y-21812D01*
X41136Y-21793D01*
X41150Y-21774D01*
X41165Y-21736D01*
X41179Y-21660D01*
X41179Y-21564D01*
X41165Y-21488D01*
X41150Y-21450D01*
X41136Y-21431D01*
X41107Y-21412D01*
X40721Y-21812D02*
X40893Y-21812D01*
X40807Y-21812D02*
X40807Y-21412D01*
X40836Y-21469D01*
X40864Y-21507D01*
X40893Y-21526D01*
X32965Y-21462D02*
X32965Y-21786D01*
X32950Y-21824D01*
X32936Y-21843D01*
X32907Y-21862D01*
X32850Y-21862D01*
X32822Y-21843D01*
X32807Y-21824D01*
X32793Y-21786D01*
X32793Y-21462D01*
X32665Y-21500D02*
X32651Y-21481D01*
X32622Y-21462D01*
X32551Y-21462D01*
X32522Y-21481D01*
X32508Y-21500D01*
X32493Y-21538D01*
X32493Y-21576D01*
X32508Y-21633D01*
X32679Y-21862D01*
X32493Y-21862D01*
X32307Y-21462D02*
X32279Y-21462D01*
X32250Y-21481D01*
X32236Y-21500D01*
X32222Y-21538D01*
X32207Y-21614D01*
X32207Y-21710D01*
X32222Y-21786D01*
X32236Y-21824D01*
X32250Y-21843D01*
X32279Y-21862D01*
X32307Y-21862D01*
X32336Y-21843D01*
X32350Y-21824D01*
X32365Y-21786D01*
X32379Y-21710D01*
X32379Y-21614D01*
X32365Y-21538D01*
X32350Y-21500D01*
X32336Y-21481D01*
X32307Y-21462D01*
X31921Y-21862D02*
X32093Y-21862D01*
X32007Y-21862D02*
X32007Y-21462D01*
X32036Y-21519D01*
X32064Y-21557D01*
X32093Y-21576D01*
X67965Y-21862D02*
X67965Y-22186D01*
X67950Y-22224D01*
X67936Y-22243D01*
X67907Y-22262D01*
X67850Y-22262D01*
X67822Y-22243D01*
X67807Y-22224D01*
X67793Y-22186D01*
X67793Y-21862D01*
X67679Y-21862D02*
X67493Y-21862D01*
X67593Y-22014D01*
X67551Y-22014D01*
X67522Y-22033D01*
X67508Y-22052D01*
X67493Y-22090D01*
X67493Y-22186D01*
X67508Y-22224D01*
X67522Y-22243D01*
X67551Y-22262D01*
X67636Y-22262D01*
X67665Y-22243D01*
X67679Y-22224D01*
X67307Y-21862D02*
X67279Y-21862D01*
X67250Y-21881D01*
X67236Y-21900D01*
X67222Y-21938D01*
X67207Y-22014D01*
X67207Y-22110D01*
X67222Y-22186D01*
X67236Y-22224D01*
X67250Y-22243D01*
X67279Y-22262D01*
X67307Y-22262D01*
X67336Y-22243D01*
X67350Y-22224D01*
X67365Y-22186D01*
X67379Y-22110D01*
X67379Y-22014D01*
X67365Y-21938D01*
X67350Y-21900D01*
X67336Y-21881D01*
X67307Y-21862D01*
X66921Y-22262D02*
X67093Y-22262D01*
X67007Y-22262D02*
X67007Y-21862D01*
X67036Y-21919D01*
X67064Y-21957D01*
X67093Y-21976D01*
X24515Y-32812D02*
X24515Y-33136D01*
X24500Y-33174D01*
X24486Y-33193D01*
X24457Y-33212D01*
X24400Y-33212D01*
X24372Y-33193D01*
X24357Y-33174D01*
X24343Y-33136D01*
X24343Y-32812D01*
X24058Y-32812D02*
X24201Y-32812D01*
X24215Y-33002D01*
X24201Y-32983D01*
X24172Y-32964D01*
X24101Y-32964D01*
X24072Y-32983D01*
X24058Y-33002D01*
X24043Y-33040D01*
X24043Y-33136D01*
X24058Y-33174D01*
X24072Y-33193D01*
X24101Y-33212D01*
X24172Y-33212D01*
X24201Y-33193D01*
X24215Y-33174D01*
X23857Y-32812D02*
X23829Y-32812D01*
X23800Y-32831D01*
X23786Y-32850D01*
X23772Y-32888D01*
X23757Y-32964D01*
X23757Y-33060D01*
X23772Y-33136D01*
X23786Y-33174D01*
X23800Y-33193D01*
X23829Y-33212D01*
X23857Y-33212D01*
X23886Y-33193D01*
X23900Y-33174D01*
X23915Y-33136D01*
X23929Y-33060D01*
X23929Y-32964D01*
X23915Y-32888D01*
X23900Y-32850D01*
X23886Y-32831D01*
X23857Y-32812D01*
X23643Y-32850D02*
X23629Y-32831D01*
X23600Y-32812D01*
X23529Y-32812D01*
X23500Y-32831D01*
X23486Y-32850D01*
X23471Y-32888D01*
X23471Y-32926D01*
X23486Y-32983D01*
X23657Y-33212D01*
X23471Y-33212D01*
G54D16*
X18402Y-31355D02*
X17802Y-31355D01*
X17802Y-31583D01*
X17830Y-31641D01*
X17859Y-31669D01*
X17916Y-31698D01*
X18002Y-31698D01*
X18059Y-31669D01*
X18088Y-31641D01*
X18116Y-31583D01*
X18116Y-31355D01*
X17802Y-32241D02*
X17802Y-31955D01*
X18088Y-31926D01*
X18059Y-31955D01*
X18030Y-32012D01*
X18030Y-32155D01*
X18059Y-32212D01*
X18088Y-32241D01*
X18145Y-32269D01*
X18288Y-32269D01*
X18345Y-32241D01*
X18373Y-32212D01*
X18402Y-32155D01*
X18402Y-32012D01*
X18373Y-31955D01*
X18345Y-31926D01*
X17802Y-32640D02*
X17802Y-32697D01*
X17830Y-32754D01*
X17859Y-32783D01*
X17916Y-32812D01*
X18030Y-32840D01*
X18173Y-32840D01*
X18288Y-32812D01*
X18345Y-32783D01*
X18373Y-32754D01*
X18402Y-32697D01*
X18402Y-32640D01*
X18373Y-32583D01*
X18345Y-32554D01*
X18288Y-32526D01*
X18173Y-32497D01*
X18030Y-32497D01*
X17916Y-32526D01*
X17859Y-32554D01*
X17830Y-32583D01*
X17802Y-32640D01*
X18402Y-33411D02*
X18402Y-33068D01*
X18402Y-33240D02*
X17802Y-33240D01*
X17888Y-33183D01*
X17945Y-33125D01*
X17973Y-33068D01*
X42781Y-35484D02*
X42781Y-34884D01*
X42553Y-34884D01*
X42495Y-34912D01*
X42467Y-34941D01*
X42438Y-34998D01*
X42438Y-35084D01*
X42467Y-35141D01*
X42495Y-35170D01*
X42553Y-35198D01*
X42781Y-35198D01*
X41895Y-34884D02*
X42181Y-34884D01*
X42210Y-35170D01*
X42181Y-35141D01*
X42124Y-35112D01*
X41981Y-35112D01*
X41924Y-35141D01*
X41895Y-35170D01*
X41867Y-35227D01*
X41867Y-35370D01*
X41895Y-35427D01*
X41924Y-35455D01*
X41981Y-35484D01*
X42124Y-35484D01*
X42181Y-35455D01*
X42210Y-35427D01*
X41496Y-34884D02*
X41439Y-34884D01*
X41382Y-34912D01*
X41353Y-34941D01*
X41324Y-34998D01*
X41296Y-35112D01*
X41296Y-35255D01*
X41324Y-35370D01*
X41353Y-35427D01*
X41382Y-35455D01*
X41439Y-35484D01*
X41496Y-35484D01*
X41553Y-35455D01*
X41582Y-35427D01*
X41610Y-35370D01*
X41639Y-35255D01*
X41639Y-35112D01*
X41610Y-34998D01*
X41582Y-34941D01*
X41553Y-34912D01*
X41496Y-34884D01*
X41096Y-34884D02*
X40696Y-34884D01*
X40953Y-35484D01*
X66651Y-35474D02*
X66651Y-34874D01*
X66423Y-34874D01*
X66365Y-34902D01*
X66337Y-34931D01*
X66308Y-34988D01*
X66308Y-35074D01*
X66337Y-35131D01*
X66365Y-35160D01*
X66423Y-35188D01*
X66651Y-35188D01*
X65765Y-34874D02*
X66051Y-34874D01*
X66080Y-35160D01*
X66051Y-35131D01*
X65994Y-35102D01*
X65851Y-35102D01*
X65794Y-35131D01*
X65765Y-35160D01*
X65737Y-35217D01*
X65737Y-35360D01*
X65765Y-35417D01*
X65794Y-35445D01*
X65851Y-35474D01*
X65994Y-35474D01*
X66051Y-35445D01*
X66080Y-35417D01*
X65366Y-34874D02*
X65309Y-34874D01*
X65252Y-34902D01*
X65223Y-34931D01*
X65194Y-34988D01*
X65166Y-35102D01*
X65166Y-35245D01*
X65194Y-35360D01*
X65223Y-35417D01*
X65252Y-35445D01*
X65309Y-35474D01*
X65366Y-35474D01*
X65423Y-35445D01*
X65452Y-35417D01*
X65480Y-35360D01*
X65509Y-35245D01*
X65509Y-35102D01*
X65480Y-34988D01*
X65452Y-34931D01*
X65423Y-34902D01*
X65366Y-34874D01*
X64623Y-34874D02*
X64909Y-34874D01*
X64938Y-35160D01*
X64909Y-35131D01*
X64852Y-35102D01*
X64709Y-35102D01*
X64652Y-35131D01*
X64623Y-35160D01*
X64595Y-35217D01*
X64595Y-35360D01*
X64623Y-35417D01*
X64652Y-35445D01*
X64709Y-35474D01*
X64852Y-35474D01*
X64909Y-35445D01*
X64938Y-35417D01*
G54D13*
X19980Y-21801D02*
X20063Y-21682D01*
X20122Y-21801D02*
X20122Y-21551D01*
X20027Y-21551D01*
X20003Y-21563D01*
X19992Y-21575D01*
X19980Y-21599D01*
X19980Y-21635D01*
X19992Y-21658D01*
X20003Y-21670D01*
X20027Y-21682D01*
X20122Y-21682D01*
X19753Y-21551D02*
X19872Y-21551D01*
X19884Y-21670D01*
X19872Y-21658D01*
X19849Y-21646D01*
X19789Y-21646D01*
X19765Y-21658D01*
X19753Y-21670D01*
X19742Y-21694D01*
X19742Y-21754D01*
X19753Y-21777D01*
X19765Y-21789D01*
X19789Y-21801D01*
X19849Y-21801D01*
X19872Y-21789D01*
X19884Y-21777D01*
X19587Y-21551D02*
X19563Y-21551D01*
X19539Y-21563D01*
X19527Y-21575D01*
X19515Y-21599D01*
X19504Y-21646D01*
X19504Y-21706D01*
X19515Y-21754D01*
X19527Y-21777D01*
X19539Y-21789D01*
X19563Y-21801D01*
X19587Y-21801D01*
X19611Y-21789D01*
X19623Y-21777D01*
X19634Y-21754D01*
X19646Y-21706D01*
X19646Y-21646D01*
X19634Y-21599D01*
X19623Y-21575D01*
X19611Y-21563D01*
X19587Y-21551D01*
X19289Y-21551D02*
X19337Y-21551D01*
X19361Y-21563D01*
X19373Y-21575D01*
X19396Y-21611D01*
X19408Y-21658D01*
X19408Y-21754D01*
X19396Y-21777D01*
X19385Y-21789D01*
X19361Y-21801D01*
X19313Y-21801D01*
X19289Y-21789D01*
X19277Y-21777D01*
X19266Y-21754D01*
X19266Y-21694D01*
X19277Y-21670D01*
X19289Y-21658D01*
X19313Y-21646D01*
X19361Y-21646D01*
X19385Y-21658D01*
X19396Y-21670D01*
X19408Y-21694D01*
M02*
