G04 (created by PCBNEW-RS274X (2012-01-19 BZR 3256)-stable) date 12/4/2012 8:12:11 AM*
G01*
G70*
G90*
%MOIN*%
G04 Gerber Fmt 3.4, Leading zero omitted, Abs format*
%FSLAX34Y34*%
G04 APERTURE LIST*
%ADD10C,0.006000*%
%ADD11C,0.015000*%
%ADD12R,0.019700X0.015700*%
%ADD13R,0.060000X0.060000*%
%ADD14C,0.060000*%
%ADD15R,0.059100X0.021700*%
%ADD16C,0.039400*%
%ADD17R,0.055000X0.035000*%
%ADD18R,0.035000X0.055000*%
%ADD19R,0.091300X0.150000*%
%ADD20R,0.433100X0.379500*%
%ADD21C,0.160000*%
%ADD22R,0.063000X0.027600*%
%ADD23R,0.300000X0.070000*%
%ADD24R,0.070000X0.300000*%
%ADD25C,0.066000*%
%ADD26C,0.035000*%
%ADD27C,0.025000*%
%ADD28C,0.010000*%
%ADD29C,0.045000*%
%ADD30C,0.008000*%
%ADD31C,0.050000*%
G04 APERTURE END LIST*
G54D10*
G54D11*
X14029Y-39370D02*
X92769Y-39370D01*
X14030Y-19685D02*
X14030Y-39370D01*
X92770Y-19685D02*
X14030Y-19685D01*
X92770Y-39370D02*
X92770Y-19685D01*
G54D12*
X29524Y-21844D03*
X29524Y-22100D03*
X29524Y-22356D03*
X28776Y-22356D03*
X28776Y-22100D03*
X28776Y-21844D03*
G54D13*
X91650Y-26650D03*
G54D14*
X91650Y-27650D03*
X91650Y-28650D03*
X91650Y-29650D03*
G54D13*
X91650Y-35450D03*
G54D14*
X91650Y-36450D03*
X91650Y-37450D03*
X91650Y-38450D03*
G54D13*
X91650Y-31050D03*
G54D14*
X91650Y-32050D03*
X91650Y-33050D03*
X91650Y-34050D03*
G54D13*
X91650Y-22250D03*
G54D14*
X91650Y-23250D03*
X91650Y-24250D03*
X91650Y-25250D03*
G54D13*
X89300Y-20800D03*
G54D14*
X90300Y-20800D03*
X91300Y-20800D03*
X92300Y-20800D03*
G54D13*
X15950Y-20800D03*
G54D14*
X16950Y-20800D03*
X17950Y-20800D03*
X18950Y-20800D03*
G54D13*
X27350Y-22850D03*
G54D14*
X26350Y-22850D03*
X27350Y-21850D03*
X26350Y-21850D03*
X27350Y-20850D03*
X26350Y-20850D03*
G54D15*
X42063Y-31000D03*
X42063Y-31500D03*
X42063Y-32000D03*
X42063Y-32500D03*
X42063Y-33000D03*
X42063Y-33500D03*
X42063Y-34000D03*
X42063Y-34500D03*
X39937Y-34500D03*
X39937Y-34000D03*
X39937Y-33500D03*
X39950Y-33000D03*
X39937Y-32500D03*
X39937Y-32000D03*
X39937Y-31500D03*
X39937Y-31000D03*
X31313Y-31000D03*
X31313Y-31500D03*
X31313Y-32000D03*
X31313Y-32500D03*
X31313Y-33000D03*
X31313Y-33500D03*
X31313Y-34000D03*
X31313Y-34500D03*
X29187Y-34500D03*
X29187Y-34000D03*
X29187Y-33500D03*
X29200Y-33000D03*
X29187Y-32500D03*
X29187Y-32000D03*
X29187Y-31500D03*
X29187Y-31000D03*
G54D16*
X22500Y-39000D03*
X86250Y-39000D03*
X22500Y-20000D03*
G54D17*
X86800Y-27875D03*
X86800Y-28625D03*
X88500Y-27875D03*
X88500Y-28625D03*
X80750Y-31875D03*
X80750Y-32625D03*
G54D18*
X82625Y-34750D03*
X83375Y-34750D03*
G54D17*
X21250Y-30125D03*
X21250Y-29375D03*
X25400Y-21575D03*
X25400Y-20825D03*
G54D18*
X27125Y-24000D03*
X26375Y-24000D03*
G54D17*
X20500Y-30125D03*
X20500Y-29375D03*
X28300Y-30875D03*
X28300Y-31625D03*
X27500Y-30875D03*
X27500Y-31625D03*
X39100Y-30975D03*
X39100Y-31725D03*
X38350Y-30975D03*
X38350Y-31725D03*
G54D12*
X65074Y-29944D03*
X65074Y-30200D03*
X65074Y-30456D03*
X64326Y-30456D03*
X64326Y-30200D03*
X64326Y-29944D03*
X70524Y-21394D03*
X70524Y-21650D03*
X70524Y-21906D03*
X69776Y-21906D03*
X69776Y-21650D03*
X69776Y-21394D03*
X77376Y-26856D03*
X77376Y-26600D03*
X77376Y-26344D03*
X78124Y-26344D03*
X78124Y-26600D03*
X78124Y-26856D03*
X75274Y-23394D03*
X75274Y-23650D03*
X75274Y-23906D03*
X74526Y-23906D03*
X74526Y-23650D03*
X74526Y-23394D03*
X74576Y-26806D03*
X74576Y-26550D03*
X74576Y-26294D03*
X75324Y-26294D03*
X75324Y-26550D03*
X75324Y-26806D03*
X34374Y-28994D03*
X34374Y-29250D03*
X34374Y-29506D03*
X33626Y-29506D03*
X33626Y-29250D03*
X33626Y-28994D03*
X32174Y-28344D03*
X32174Y-28600D03*
X32174Y-28856D03*
X31426Y-28856D03*
X31426Y-28600D03*
X31426Y-28344D03*
X34824Y-21144D03*
X34824Y-21400D03*
X34824Y-21656D03*
X34076Y-21656D03*
X34076Y-21400D03*
X34076Y-21144D03*
X59626Y-27256D03*
X59626Y-27000D03*
X59626Y-26744D03*
X60374Y-26744D03*
X60374Y-27000D03*
X60374Y-27256D03*
X58024Y-23294D03*
X58024Y-23550D03*
X58024Y-23806D03*
X57276Y-23806D03*
X57276Y-23550D03*
X57276Y-23294D03*
X57176Y-27956D03*
X57176Y-27700D03*
X57176Y-27444D03*
X57924Y-27444D03*
X57924Y-27700D03*
X57924Y-27956D03*
X68224Y-29944D03*
X68224Y-30200D03*
X68224Y-30456D03*
X67476Y-30456D03*
X67476Y-30200D03*
X67476Y-29944D03*
X64524Y-21494D03*
X64524Y-21750D03*
X64524Y-22006D03*
X63776Y-22006D03*
X63776Y-21750D03*
X63776Y-21494D03*
X38624Y-29194D03*
X38624Y-29450D03*
X38624Y-29706D03*
X37876Y-29706D03*
X37876Y-29450D03*
X37876Y-29194D03*
X38124Y-21744D03*
X38124Y-22000D03*
X38124Y-22256D03*
X37376Y-22256D03*
X37376Y-22000D03*
X37376Y-21744D03*
X42674Y-29194D03*
X42674Y-29450D03*
X42674Y-29706D03*
X41926Y-29706D03*
X41926Y-29450D03*
X41926Y-29194D03*
X48226Y-27806D03*
X48226Y-27550D03*
X48226Y-27294D03*
X48974Y-27294D03*
X48974Y-27550D03*
X48974Y-27806D03*
X50926Y-27706D03*
X50926Y-27450D03*
X50926Y-27194D03*
X51674Y-27194D03*
X51674Y-27450D03*
X51674Y-27706D03*
X49424Y-23394D03*
X49424Y-23650D03*
X49424Y-23906D03*
X48676Y-23906D03*
X48676Y-23650D03*
X48676Y-23394D03*
X43794Y-20994D03*
X43794Y-21250D03*
X43794Y-21506D03*
X43046Y-21506D03*
X43046Y-21250D03*
X43046Y-20994D03*
G54D13*
X68984Y-33159D03*
G54D14*
X67016Y-33159D03*
X68000Y-34144D03*
G54D13*
X90000Y-31500D03*
G54D14*
X90000Y-30500D03*
X90000Y-29500D03*
G54D13*
X88500Y-31500D03*
G54D14*
X88500Y-30500D03*
X88500Y-29500D03*
G54D13*
X86750Y-29500D03*
G54D14*
X86750Y-30500D03*
X86750Y-31500D03*
G54D19*
X84534Y-33348D03*
G54D20*
X83550Y-29498D03*
G54D19*
X82566Y-33348D03*
G54D21*
X86250Y-37500D03*
X22500Y-37500D03*
X86250Y-22500D03*
X22500Y-22500D03*
G54D22*
X43140Y-22300D03*
X43140Y-22800D03*
X43140Y-23300D03*
X43140Y-23800D03*
X43140Y-24300D03*
X43140Y-24800D03*
X43140Y-25300D03*
X43140Y-25800D03*
X43140Y-26300D03*
X43140Y-26800D03*
X43140Y-27300D03*
X43140Y-27800D03*
X39360Y-27800D03*
X39360Y-27300D03*
X39360Y-26800D03*
X39360Y-26300D03*
X39360Y-25800D03*
X39360Y-25300D03*
X39360Y-24800D03*
X39360Y-24300D03*
X39360Y-23800D03*
X39360Y-23300D03*
X39360Y-22800D03*
X39360Y-22300D03*
X34340Y-22300D03*
X34340Y-22800D03*
X34340Y-23300D03*
X34340Y-23800D03*
X34340Y-24300D03*
X34340Y-24800D03*
X34340Y-25300D03*
X34340Y-25800D03*
X34340Y-26300D03*
X34340Y-26800D03*
X34340Y-27300D03*
X34340Y-27800D03*
X30560Y-27800D03*
X30560Y-27300D03*
X30560Y-26800D03*
X30560Y-26300D03*
X30560Y-25800D03*
X30560Y-25300D03*
X30560Y-24800D03*
X30560Y-24300D03*
X30560Y-23800D03*
X30560Y-23300D03*
X30560Y-22800D03*
X30560Y-22300D03*
X69340Y-22700D03*
X69340Y-23200D03*
X69340Y-23700D03*
X69340Y-24200D03*
X69340Y-24700D03*
X69340Y-25200D03*
X69340Y-25700D03*
X69340Y-26200D03*
X69340Y-26700D03*
X69340Y-27200D03*
X69340Y-27700D03*
X69340Y-28200D03*
X65560Y-28200D03*
X65560Y-27700D03*
X65560Y-27200D03*
X65560Y-26700D03*
X65560Y-26200D03*
X65560Y-25700D03*
X65560Y-25200D03*
X65560Y-24700D03*
X65560Y-24200D03*
X65560Y-23700D03*
X65560Y-23200D03*
X65560Y-22700D03*
X22110Y-32500D03*
X22110Y-32000D03*
X22110Y-31500D03*
X22110Y-31000D03*
X22110Y-30500D03*
X22110Y-30000D03*
X22110Y-29500D03*
X22110Y-29000D03*
X22110Y-28500D03*
X22110Y-28000D03*
X22110Y-27500D03*
X22110Y-27000D03*
X22110Y-26500D03*
X22110Y-26000D03*
X25890Y-26000D03*
X25890Y-26500D03*
X25890Y-27000D03*
X25890Y-27500D03*
X25890Y-28000D03*
X25890Y-28500D03*
X25890Y-29000D03*
X25890Y-29500D03*
X25890Y-30000D03*
X25890Y-30500D03*
X25890Y-31000D03*
X25890Y-31500D03*
X25890Y-32000D03*
X25890Y-32500D03*
G54D13*
X88500Y-26000D03*
G54D14*
X88500Y-27000D03*
X47000Y-23250D03*
X47000Y-24250D03*
X47000Y-25250D03*
X47000Y-26250D03*
X47000Y-27250D03*
X47000Y-28250D03*
X53000Y-30250D03*
X53000Y-29250D03*
X53000Y-28250D03*
X53000Y-27250D03*
X53000Y-26250D03*
X53000Y-25250D03*
X53000Y-24250D03*
X53000Y-23250D03*
X55750Y-23250D03*
X55750Y-24250D03*
X55750Y-25250D03*
X55750Y-26250D03*
X55750Y-27250D03*
X55750Y-28250D03*
X61750Y-30250D03*
X61750Y-29250D03*
X61750Y-28250D03*
X61750Y-27250D03*
X61750Y-26250D03*
X61750Y-25250D03*
X61750Y-24250D03*
X61750Y-23250D03*
X38250Y-23250D03*
X38250Y-24250D03*
X38250Y-25250D03*
X38250Y-26250D03*
X38250Y-27250D03*
X38250Y-28250D03*
X44250Y-30250D03*
X44250Y-29250D03*
X44250Y-28250D03*
X44250Y-27250D03*
X44250Y-26250D03*
X44250Y-25250D03*
X44250Y-24250D03*
X44250Y-23250D03*
X64500Y-23250D03*
X64500Y-24250D03*
X64500Y-25250D03*
X64500Y-26250D03*
X64500Y-27250D03*
X64500Y-28250D03*
X70500Y-30250D03*
X70500Y-29250D03*
X70500Y-28250D03*
X70500Y-27250D03*
X70500Y-26250D03*
X70500Y-25250D03*
X70500Y-24250D03*
X70500Y-23250D03*
X73250Y-23250D03*
X73250Y-24250D03*
X73250Y-25250D03*
X73250Y-26250D03*
X73250Y-27250D03*
X73250Y-28250D03*
X79250Y-30250D03*
X79250Y-29250D03*
X79250Y-28250D03*
X79250Y-27250D03*
X79250Y-26250D03*
X79250Y-25250D03*
X79250Y-24250D03*
X79250Y-23250D03*
X29500Y-23250D03*
X29500Y-24250D03*
X29500Y-25250D03*
X29500Y-26250D03*
X29500Y-27250D03*
X29500Y-28250D03*
X35500Y-30250D03*
X35500Y-29250D03*
X35500Y-28250D03*
X35500Y-27250D03*
X35500Y-26250D03*
X35500Y-25250D03*
X35500Y-24250D03*
X35500Y-23250D03*
G54D23*
X15600Y-27540D03*
X15600Y-29110D03*
X15600Y-30680D03*
X15600Y-32250D03*
X15600Y-33820D03*
X15600Y-35390D03*
X15600Y-36960D03*
X15600Y-38530D03*
X15600Y-25970D03*
G54D24*
X29875Y-37800D03*
X31445Y-37800D03*
X33015Y-37800D03*
X34585Y-37800D03*
X36155Y-37800D03*
X37725Y-37800D03*
X39295Y-37800D03*
X40865Y-37800D03*
X42435Y-37800D03*
X44005Y-37800D03*
X45575Y-37800D03*
X47145Y-37800D03*
X48715Y-37800D03*
X50285Y-37800D03*
X51855Y-37800D03*
X53425Y-37800D03*
X54995Y-37800D03*
X28305Y-37800D03*
X61595Y-37790D03*
X63165Y-37790D03*
X64735Y-37790D03*
X66305Y-37790D03*
X67875Y-37790D03*
X69445Y-37790D03*
G54D18*
X18925Y-21700D03*
X18175Y-21700D03*
G54D25*
X18200Y-23450D03*
X19200Y-23450D03*
G54D13*
X57200Y-33300D03*
G54D14*
X58200Y-33300D03*
X59200Y-33300D03*
X60200Y-33300D03*
G54D26*
X19750Y-21000D03*
X57200Y-34600D03*
X36650Y-31750D03*
X79050Y-33350D03*
X32000Y-21600D03*
X30850Y-30550D03*
X65800Y-20350D03*
X49750Y-20500D03*
X40040Y-21850D03*
X30100Y-30850D03*
X88500Y-31500D03*
X23050Y-21000D03*
X40040Y-20300D03*
X87500Y-35500D03*
X22750Y-35250D03*
X87500Y-26000D03*
X32500Y-20700D03*
X65850Y-22150D03*
X83050Y-20150D03*
X51000Y-20500D03*
X83000Y-21500D03*
X19800Y-30900D03*
X35650Y-32750D03*
X66300Y-24250D03*
X78100Y-22350D03*
X40500Y-23230D03*
X64440Y-31350D03*
X74865Y-22330D03*
X53820Y-30430D03*
X66090Y-30220D03*
X42430Y-22760D03*
X42840Y-28240D03*
X45090Y-28750D03*
X55690Y-32300D03*
X67275Y-29520D03*
X55795Y-32780D03*
X42550Y-28590D03*
X53875Y-31010D03*
X77250Y-22700D03*
X43280Y-28825D03*
X41050Y-24800D03*
X35700Y-22650D03*
X64800Y-31665D03*
X75250Y-22700D03*
X42400Y-23400D03*
X68950Y-35650D03*
X84000Y-34750D03*
X32000Y-34500D03*
X20660Y-28880D03*
X69600Y-35650D03*
X45000Y-34000D03*
X40250Y-23950D03*
X34960Y-27520D03*
X36750Y-33250D03*
X31250Y-23750D03*
X27310Y-32200D03*
X42280Y-27880D03*
X23000Y-32750D03*
X24500Y-34500D03*
X30600Y-34000D03*
X24000Y-32350D03*
X27650Y-33100D03*
X25700Y-34150D03*
X40850Y-31300D03*
X31950Y-31150D03*
X37150Y-32100D03*
X27900Y-29850D03*
X38800Y-34400D03*
X27900Y-28550D03*
X41000Y-32500D03*
X43900Y-35410D03*
X41350Y-35600D03*
X41350Y-34300D03*
X24950Y-24050D03*
X21400Y-31000D03*
X20800Y-31100D03*
X21600Y-23400D03*
X25100Y-31450D03*
X30050Y-31850D03*
X81500Y-34000D03*
X81500Y-32500D03*
X30550Y-35650D03*
X30550Y-34550D03*
X39250Y-32500D03*
X39250Y-35600D03*
X41000Y-34000D03*
X40800Y-35600D03*
X44300Y-35100D03*
X43400Y-34800D03*
X37610Y-34500D03*
X37600Y-35300D03*
X44850Y-33000D03*
X43500Y-31000D03*
X25100Y-26900D03*
X25100Y-25400D03*
X52700Y-34750D03*
X52700Y-33100D03*
X50000Y-34000D03*
X43500Y-33500D03*
X40750Y-32000D03*
X50050Y-35100D03*
X51750Y-32750D03*
X51750Y-35050D03*
X37750Y-33500D03*
X27400Y-27500D03*
X27400Y-29950D03*
X36450Y-32500D03*
X27750Y-34750D03*
X23500Y-32500D03*
X21000Y-26500D03*
X21150Y-25650D03*
X21000Y-35250D03*
X21250Y-32000D03*
X20750Y-25250D03*
X20750Y-30650D03*
X43750Y-32550D03*
X43000Y-32000D03*
X43000Y-31100D03*
X37500Y-26950D03*
X37000Y-27550D03*
X38650Y-21750D03*
X42100Y-26750D03*
X45300Y-26750D03*
X46020Y-28990D03*
X41500Y-29760D03*
X42200Y-24970D03*
X37300Y-26500D03*
X36550Y-26500D03*
X40050Y-27600D03*
X41920Y-27440D03*
X41250Y-28400D03*
X40050Y-25800D03*
X40980Y-29770D03*
X40760Y-25800D03*
X40550Y-28800D03*
X42150Y-28800D03*
X39850Y-28450D03*
X43100Y-29350D03*
X42350Y-27250D03*
X45350Y-27750D03*
X51450Y-29650D03*
X52200Y-27450D03*
X42450Y-25750D03*
X45000Y-26150D03*
X46000Y-24750D03*
X49900Y-27050D03*
X45200Y-24750D03*
X49000Y-26200D03*
X75800Y-23700D03*
X72350Y-23750D03*
X73900Y-27000D03*
X76400Y-26000D03*
X71600Y-24750D03*
X72450Y-24750D03*
X74800Y-24700D03*
X71500Y-25750D03*
X72400Y-26600D03*
X67000Y-30500D03*
X66250Y-29000D03*
X66000Y-28600D03*
X68070Y-28515D03*
X64150Y-28800D03*
X63250Y-28450D03*
X70000Y-26750D03*
X71550Y-26650D03*
X69950Y-25600D03*
X75900Y-25700D03*
X72400Y-25300D03*
X75900Y-26800D03*
X68660Y-24290D03*
X71100Y-21500D03*
X67700Y-24700D03*
X68100Y-29500D03*
X65000Y-21500D03*
X76750Y-27750D03*
X69700Y-30600D03*
X77850Y-27750D03*
X69250Y-29400D03*
X66150Y-27950D03*
X67450Y-27900D03*
X64900Y-26700D03*
X63750Y-29950D03*
X33450Y-25250D03*
X39400Y-21400D03*
X48900Y-21750D03*
X50200Y-21050D03*
X43950Y-22200D03*
X41750Y-21450D03*
X57550Y-22600D03*
X35700Y-21850D03*
X58900Y-22600D03*
X62500Y-20750D03*
X36600Y-21450D03*
X30100Y-21650D03*
X30150Y-28300D03*
X28750Y-27250D03*
X28750Y-28850D03*
X33250Y-27450D03*
X31350Y-27450D03*
X59250Y-29700D03*
X35050Y-26750D03*
X60500Y-28700D03*
X44395Y-31100D03*
X43655Y-30325D03*
X56800Y-29400D03*
X56850Y-26750D03*
X36900Y-29750D03*
X32750Y-21550D03*
X32750Y-24550D03*
X33350Y-20700D03*
X33700Y-24650D03*
X57290Y-26370D03*
X59000Y-27170D03*
X36150Y-21450D03*
X36150Y-19950D03*
X41050Y-24290D03*
X40000Y-24400D03*
X33450Y-25850D03*
X45950Y-23100D03*
X51450Y-22350D03*
X44900Y-24400D03*
X32100Y-26800D03*
X34000Y-28450D03*
X34750Y-28700D03*
X33450Y-27000D03*
X32500Y-27800D03*
X33000Y-29350D03*
X32450Y-25800D03*
X31300Y-25800D03*
X41250Y-23550D03*
X24600Y-26700D03*
X67000Y-21750D03*
X53800Y-21600D03*
X32400Y-23650D03*
X51250Y-24050D03*
X60040Y-22665D03*
X26600Y-29350D03*
X26550Y-26600D03*
X24475Y-24775D03*
X27250Y-24950D03*
X64950Y-24750D03*
X90000Y-28500D03*
X29950Y-23750D03*
X90000Y-27500D03*
X67000Y-21000D03*
X49850Y-24400D03*
X37720Y-23900D03*
X26950Y-26000D03*
X64150Y-23750D03*
X29150Y-22750D03*
X66500Y-21750D03*
X26750Y-30250D03*
X44400Y-22600D03*
X41270Y-22110D03*
X32400Y-22350D03*
X49350Y-22000D03*
X27600Y-23550D03*
X60950Y-21750D03*
X37800Y-22750D03*
X35400Y-22200D03*
X66500Y-21000D03*
X51350Y-21050D03*
X22450Y-24400D03*
X23750Y-25750D03*
X33900Y-29950D03*
X37450Y-29000D03*
X59450Y-23800D03*
X62100Y-21200D03*
X74050Y-26150D03*
X63200Y-20800D03*
X74050Y-25300D03*
X44900Y-23050D03*
X37450Y-29800D03*
X60050Y-23200D03*
X44800Y-21550D03*
X34650Y-30700D03*
X39000Y-21000D03*
X29300Y-21450D03*
X30300Y-20800D03*
X37800Y-21350D03*
G54D27*
X40040Y-21850D02*
X40040Y-22210D01*
X40040Y-22210D02*
X39950Y-22300D01*
G54D11*
X26860Y-33220D02*
X26360Y-33720D01*
G54D28*
X26325Y-20825D02*
X26350Y-20850D01*
G54D11*
X29187Y-31000D02*
X29950Y-31000D01*
G54D28*
X64735Y-35865D02*
X63470Y-34600D01*
X26400Y-23550D02*
X26400Y-23975D01*
G54D11*
X22110Y-30000D02*
X22110Y-30500D01*
G54D28*
X18950Y-20800D02*
X18950Y-21675D01*
X18950Y-21675D02*
X18925Y-21700D01*
G54D27*
X39950Y-22300D02*
X39360Y-22300D01*
G54D11*
X39937Y-31000D02*
X39125Y-31000D01*
G54D29*
X64735Y-37790D02*
X64735Y-35865D01*
G54D11*
X26860Y-31180D02*
X26860Y-33220D01*
G54D27*
X40040Y-20300D02*
X49550Y-20300D01*
G54D29*
X70050Y-33350D02*
X68450Y-34950D01*
X68450Y-34950D02*
X65650Y-34950D01*
X79050Y-34800D02*
X80250Y-36000D01*
G54D27*
X35327Y-20250D02*
X35780Y-20250D01*
G54D11*
X65850Y-22150D02*
X65560Y-22440D01*
G54D29*
X65650Y-34950D02*
X64735Y-35865D01*
G54D27*
X23450Y-20200D02*
X25400Y-20200D01*
G54D11*
X21375Y-30000D02*
X21250Y-30125D01*
X28425Y-31000D02*
X28300Y-30875D01*
G54D29*
X70050Y-33350D02*
X79050Y-33350D01*
G54D11*
X39125Y-31000D02*
X39100Y-30975D01*
G54D28*
X26850Y-21600D02*
X26850Y-23100D01*
G54D11*
X27165Y-30875D02*
X27500Y-30875D01*
X82566Y-33348D02*
X82566Y-34691D01*
G54D29*
X79050Y-33348D02*
X82566Y-33348D01*
G54D11*
X28300Y-30875D02*
X27500Y-30875D01*
G54D27*
X23050Y-21000D02*
X19750Y-21000D01*
G54D11*
X61400Y-20350D02*
X65800Y-20350D01*
G54D27*
X35027Y-19950D02*
X35327Y-20250D01*
G54D28*
X25400Y-20825D02*
X26325Y-20825D01*
G54D11*
X29950Y-31000D02*
X30100Y-30850D01*
G54D28*
X26400Y-23975D02*
X26375Y-24000D01*
X26350Y-21100D02*
X26850Y-21600D01*
G54D11*
X21250Y-30125D02*
X20500Y-30125D01*
G54D27*
X39967Y-20227D02*
X40040Y-20300D01*
G54D11*
X22110Y-30000D02*
X21375Y-30000D01*
G54D27*
X25400Y-20200D02*
X32500Y-20200D01*
G54D28*
X63470Y-34600D02*
X57200Y-34600D01*
G54D27*
X49550Y-20300D02*
X49750Y-20500D01*
X33300Y-20200D02*
X33550Y-19950D01*
G54D11*
X82566Y-34691D02*
X82625Y-34750D01*
G54D27*
X79050Y-33350D02*
X79050Y-33348D01*
X32000Y-21600D02*
X31300Y-22300D01*
G54D28*
X26350Y-20850D02*
X26350Y-21100D01*
G54D27*
X23050Y-20600D02*
X23450Y-20200D01*
G54D28*
X26850Y-23100D02*
X26400Y-23550D01*
G54D11*
X88500Y-26000D02*
X87500Y-26000D01*
X34550Y-33200D02*
X35200Y-33200D01*
G54D27*
X35780Y-20250D02*
X35910Y-20380D01*
G54D11*
X35650Y-32750D02*
X35200Y-33200D01*
X86750Y-26000D02*
X87500Y-26000D01*
X61250Y-20500D02*
X61400Y-20350D01*
X83000Y-22250D02*
X86750Y-26000D01*
X34500Y-33150D02*
X34550Y-33200D01*
X83000Y-21500D02*
X83000Y-22250D01*
X29187Y-31000D02*
X28425Y-31000D01*
G54D27*
X36730Y-20380D02*
X36883Y-20227D01*
G54D11*
X66300Y-24250D02*
X65610Y-24250D01*
X38350Y-30975D02*
X37425Y-30975D01*
G54D27*
X32500Y-20200D02*
X32500Y-20700D01*
X51000Y-20500D02*
X61250Y-20500D01*
G54D11*
X65800Y-20350D02*
X66000Y-20150D01*
X24280Y-33720D02*
X22750Y-35250D01*
G54D29*
X87000Y-36000D02*
X80250Y-36000D01*
G54D11*
X37425Y-30975D02*
X36650Y-31750D01*
G54D29*
X79050Y-33350D02*
X79050Y-34800D01*
G54D27*
X32500Y-20200D02*
X32650Y-20200D01*
X31300Y-22300D02*
X30560Y-22300D01*
G54D11*
X30850Y-30550D02*
X31900Y-30550D01*
X20500Y-30125D02*
X20500Y-30200D01*
X65560Y-22440D02*
X65560Y-22700D01*
X26360Y-33720D02*
X24280Y-33720D01*
X20500Y-30200D02*
X19800Y-30900D01*
X65610Y-24250D02*
X65560Y-24200D01*
G54D27*
X19750Y-21000D02*
X19150Y-21000D01*
G54D29*
X87500Y-35500D02*
X87000Y-36000D01*
G54D27*
X35910Y-20380D02*
X36730Y-20380D01*
G54D11*
X66000Y-20150D02*
X83050Y-20150D01*
G54D27*
X33550Y-19950D02*
X35027Y-19950D01*
X32650Y-20200D02*
X33300Y-20200D01*
G54D11*
X27165Y-30875D02*
X26860Y-31180D01*
X39100Y-30975D02*
X38350Y-30975D01*
G54D27*
X19150Y-21000D02*
X18950Y-20800D01*
G54D11*
X31900Y-30550D02*
X34500Y-33150D01*
G54D27*
X23050Y-21000D02*
X23050Y-20600D01*
G54D28*
X25400Y-20825D02*
X25400Y-20200D01*
G54D27*
X36883Y-20227D02*
X39967Y-20227D01*
G54D28*
X41220Y-23990D02*
X41308Y-23990D01*
X78165Y-22285D02*
X79665Y-22285D01*
X67310Y-28325D02*
X67506Y-28325D01*
X41380Y-24062D02*
X41380Y-27420D01*
X70700Y-22330D02*
X74865Y-22330D01*
X86000Y-30000D02*
X86500Y-30500D01*
X67235Y-28400D02*
X67310Y-28325D01*
X43140Y-22800D02*
X42470Y-22800D01*
X45090Y-28750D02*
X47220Y-30880D01*
X79665Y-22285D02*
X79900Y-22520D01*
X63160Y-32300D02*
X64110Y-31350D01*
X69260Y-23280D02*
X69340Y-23200D01*
X41308Y-23990D02*
X41380Y-24062D01*
X53395Y-30880D02*
X53395Y-30875D01*
X41940Y-27980D02*
X41940Y-28050D01*
X40910Y-23510D02*
X40910Y-23680D01*
X85380Y-26130D02*
X86000Y-26750D01*
X68700Y-22350D02*
X68900Y-22150D01*
X40910Y-23680D02*
X41220Y-23990D01*
X66090Y-30220D02*
X67235Y-29075D01*
X79900Y-25400D02*
X80630Y-26130D01*
X86500Y-30500D02*
X86750Y-30500D01*
X67506Y-28325D02*
X68050Y-27781D01*
X78100Y-22350D02*
X78165Y-22285D01*
X68050Y-27781D02*
X68050Y-23540D01*
X42470Y-22800D02*
X42430Y-22760D01*
X80630Y-26130D02*
X85380Y-26130D01*
X68050Y-23540D02*
X68390Y-23200D01*
X40630Y-23230D02*
X40910Y-23510D01*
X53820Y-30430D02*
X53820Y-30455D01*
X69400Y-22150D02*
X69580Y-22330D01*
X79900Y-22520D02*
X79900Y-25400D01*
X42130Y-28240D02*
X42840Y-28240D01*
X68390Y-23200D02*
X68700Y-23200D01*
X68700Y-23200D02*
X69340Y-23200D01*
X41380Y-27420D02*
X41940Y-27980D01*
X40500Y-23230D02*
X40630Y-23230D01*
X55690Y-32300D02*
X63160Y-32300D01*
X41940Y-28050D02*
X42130Y-28240D01*
X67235Y-29075D02*
X67235Y-28596D01*
X47220Y-30880D02*
X53395Y-30880D01*
X69580Y-22330D02*
X70700Y-22330D01*
X68700Y-23200D02*
X68700Y-22350D01*
X67235Y-28596D02*
X67235Y-28400D01*
X68900Y-22150D02*
X69400Y-22150D01*
X41380Y-27420D02*
X41370Y-27430D01*
X64110Y-31350D02*
X64440Y-31350D01*
X86000Y-26750D02*
X86000Y-30000D01*
X53820Y-30455D02*
X53395Y-30880D01*
X70250Y-22700D02*
X75250Y-22700D01*
X81300Y-25750D02*
X85550Y-25750D01*
G54D30*
X86250Y-28050D02*
X86450Y-28250D01*
G54D28*
X41090Y-24840D02*
X41050Y-24800D01*
X41780Y-28460D02*
X42420Y-28460D01*
X41090Y-24900D02*
X41090Y-27900D01*
X78200Y-21700D02*
X79600Y-21700D01*
X53775Y-31110D02*
X53875Y-31010D01*
X68300Y-27820D02*
X68300Y-26900D01*
X56040Y-32535D02*
X63930Y-32535D01*
X43865Y-28825D02*
X43940Y-28750D01*
X67275Y-29520D02*
X67630Y-29165D01*
X35360Y-22650D02*
X35700Y-22650D01*
X87500Y-29500D02*
X88500Y-30500D01*
X41090Y-27900D02*
X41250Y-28060D01*
X43280Y-28825D02*
X43865Y-28825D01*
X69340Y-23700D02*
X69750Y-23700D01*
X77250Y-22700D02*
X77250Y-22650D01*
G54D30*
X86450Y-28250D02*
X87150Y-28250D01*
G54D28*
X44560Y-28750D02*
X46920Y-31110D01*
X42500Y-23300D02*
X43140Y-23300D01*
X68300Y-26900D02*
X68600Y-26600D01*
X68300Y-24600D02*
X68300Y-23980D01*
X69750Y-23700D02*
X69950Y-23500D01*
G54D30*
X68300Y-23980D02*
X68580Y-23700D01*
G54D28*
X63930Y-32535D02*
X64800Y-31665D01*
X69950Y-23500D02*
X69950Y-23000D01*
X68600Y-24900D02*
X68300Y-24600D01*
X41090Y-24900D02*
X41090Y-24840D01*
X77250Y-22650D02*
X78200Y-21700D01*
G54D30*
X86250Y-26450D02*
X86250Y-28050D01*
G54D28*
X79600Y-21700D02*
X80550Y-22650D01*
X46920Y-31110D02*
X53710Y-31110D01*
G54D30*
X68580Y-23700D02*
X69340Y-23700D01*
G54D28*
X41380Y-28060D02*
X41780Y-28460D01*
X42420Y-28460D02*
X42550Y-28590D01*
G54D30*
X87150Y-28250D02*
X87500Y-28600D01*
G54D28*
X41250Y-28060D02*
X41380Y-28060D01*
X87500Y-28600D02*
X87500Y-29500D01*
X55795Y-32780D02*
X56040Y-32535D01*
X80550Y-25000D02*
X81275Y-25725D01*
X89500Y-30500D02*
X88500Y-30500D01*
X81275Y-25725D02*
X81300Y-25750D01*
X69950Y-23000D02*
X70250Y-22700D01*
X88500Y-30500D02*
X90000Y-30500D01*
X42400Y-23400D02*
X42500Y-23300D01*
X80550Y-22650D02*
X80550Y-25000D01*
X34710Y-23300D02*
X35360Y-22650D01*
X34340Y-23300D02*
X34710Y-23300D01*
X67630Y-28490D02*
X68300Y-27820D01*
G54D30*
X85550Y-25750D02*
X86250Y-26450D01*
G54D28*
X67630Y-29165D02*
X67630Y-28490D01*
X53710Y-31110D02*
X53775Y-31110D01*
X68600Y-26600D02*
X68600Y-24900D01*
X43940Y-28750D02*
X44560Y-28750D01*
G54D11*
X28300Y-31625D02*
X27500Y-31625D01*
X22110Y-29000D02*
X22110Y-29500D01*
G54D28*
X39360Y-23800D02*
X39510Y-23950D01*
G54D29*
X69600Y-35650D02*
X68950Y-35650D01*
G54D11*
X31313Y-34500D02*
X32000Y-34500D01*
X21375Y-29500D02*
X21250Y-29375D01*
X42360Y-27800D02*
X43140Y-27800D01*
G54D29*
X68200Y-35650D02*
X68950Y-35650D01*
G54D27*
X70450Y-28200D02*
X69340Y-28200D01*
G54D11*
X22110Y-29500D02*
X21375Y-29500D01*
X39100Y-31725D02*
X38350Y-31725D01*
X20500Y-29040D02*
X20660Y-28880D01*
X20500Y-29375D02*
X20500Y-29040D01*
X27500Y-32010D02*
X27310Y-32200D01*
G54D29*
X67880Y-35970D02*
X67880Y-37785D01*
G54D11*
X29187Y-31500D02*
X28425Y-31500D01*
G54D29*
X67880Y-37785D02*
X67875Y-37790D01*
G54D28*
X39510Y-23950D02*
X40250Y-23950D01*
G54D11*
X42750Y-34500D02*
X43250Y-34000D01*
X27500Y-31625D02*
X27500Y-32010D01*
X38275Y-31725D02*
X36750Y-33250D01*
X42063Y-34500D02*
X42750Y-34500D01*
X30560Y-23800D02*
X31200Y-23800D01*
X28425Y-31500D02*
X28300Y-31625D01*
G54D29*
X68200Y-35650D02*
X67880Y-35970D01*
G54D11*
X39937Y-31500D02*
X39325Y-31500D01*
X43250Y-34000D02*
X45000Y-34000D01*
X38350Y-31725D02*
X38275Y-31725D01*
G54D28*
X34340Y-27800D02*
X34680Y-27800D01*
G54D11*
X83375Y-34750D02*
X84000Y-34750D01*
X31200Y-23800D02*
X31250Y-23750D01*
X21250Y-29375D02*
X20500Y-29375D01*
G54D28*
X34680Y-27800D02*
X34960Y-27520D01*
G54D11*
X42360Y-27800D02*
X42280Y-27880D01*
X39325Y-31500D02*
X39100Y-31725D01*
G54D27*
X70500Y-28250D02*
X70450Y-28200D01*
G54D28*
X22750Y-32500D02*
X22750Y-28750D01*
X29200Y-33000D02*
X28250Y-33000D01*
X25000Y-35000D02*
X24500Y-34500D01*
X26250Y-35000D02*
X25000Y-35000D01*
X28250Y-33000D02*
X26250Y-35000D01*
X23000Y-32750D02*
X22750Y-32500D01*
X22750Y-28750D02*
X22500Y-28500D01*
X22500Y-28500D02*
X22110Y-28500D01*
X24000Y-32350D02*
X23250Y-31600D01*
X26600Y-34150D02*
X25700Y-34150D01*
X22550Y-27500D02*
X22110Y-27500D01*
X27650Y-33100D02*
X26600Y-34150D01*
X23250Y-31600D02*
X23250Y-28200D01*
X31313Y-34000D02*
X30600Y-34000D01*
X23250Y-28200D02*
X22550Y-27500D01*
X41150Y-31000D02*
X40850Y-31300D01*
X31313Y-31000D02*
X30750Y-31000D01*
X42063Y-31000D02*
X41150Y-31000D01*
X26200Y-31500D02*
X25890Y-31500D01*
X30750Y-31000D02*
X30200Y-30450D01*
X31800Y-31000D02*
X31950Y-31150D01*
X26400Y-31300D02*
X26200Y-31500D01*
X30200Y-30450D02*
X27150Y-30450D01*
X31313Y-31000D02*
X31800Y-31000D01*
X26400Y-31080D02*
X26400Y-31300D01*
X26100Y-31500D02*
X25890Y-31500D01*
X27030Y-30450D02*
X26400Y-31080D01*
X27150Y-30450D02*
X27030Y-30450D01*
X32040Y-29950D02*
X28000Y-29950D01*
X39937Y-34500D02*
X38900Y-34500D01*
X27900Y-28500D02*
X27900Y-28550D01*
X38900Y-34500D02*
X38800Y-34400D01*
X37150Y-32100D02*
X34190Y-32100D01*
X28000Y-29950D02*
X27900Y-29850D01*
X26900Y-27500D02*
X25890Y-27500D01*
X26900Y-27500D02*
X27900Y-28500D01*
X34190Y-32100D02*
X32040Y-29950D01*
X41500Y-32000D02*
X41000Y-32500D01*
X43900Y-35410D02*
X43900Y-37695D01*
X42063Y-32000D02*
X41500Y-32000D01*
X43900Y-37695D02*
X44005Y-37800D01*
X42435Y-35935D02*
X42435Y-37800D01*
X41550Y-33500D02*
X41350Y-33700D01*
X42063Y-33500D02*
X41550Y-33500D01*
X41350Y-33700D02*
X41350Y-34300D01*
X41350Y-35600D02*
X42100Y-35600D01*
X42100Y-35600D02*
X42435Y-35935D01*
X25850Y-24050D02*
X25950Y-24150D01*
X24950Y-24050D02*
X25850Y-24050D01*
X27125Y-24000D02*
X27125Y-23075D01*
X25950Y-24150D02*
X25950Y-24450D01*
X27125Y-24475D02*
X27125Y-24000D01*
X27125Y-23075D02*
X27350Y-22850D01*
X22110Y-31000D02*
X21400Y-31000D01*
X25950Y-24450D02*
X26250Y-24750D01*
X26250Y-24750D02*
X26850Y-24750D01*
X26850Y-24750D02*
X27125Y-24475D01*
X24150Y-23650D02*
X21850Y-23650D01*
X21200Y-31500D02*
X20800Y-31100D01*
X25400Y-22400D02*
X25400Y-21575D01*
X24150Y-23650D02*
X25400Y-22400D01*
X21850Y-23650D02*
X21600Y-23400D01*
X25400Y-21575D02*
X26075Y-21575D01*
X26075Y-21575D02*
X26350Y-21850D01*
X22110Y-31500D02*
X21200Y-31500D01*
X24600Y-31450D02*
X23500Y-30350D01*
X31313Y-32500D02*
X30700Y-32500D01*
X25100Y-31450D02*
X24600Y-31450D01*
X22650Y-27000D02*
X22110Y-27000D01*
X23500Y-30350D02*
X23500Y-27850D01*
X23500Y-27850D02*
X22650Y-27000D01*
X30700Y-32500D02*
X30050Y-31850D01*
X37800Y-34900D02*
X38150Y-35250D01*
X38150Y-35250D02*
X43550Y-35250D01*
X33950Y-34500D02*
X33950Y-34300D01*
X52100Y-35500D02*
X50900Y-35500D01*
X50285Y-36115D02*
X50285Y-37800D01*
X52150Y-34725D02*
X52350Y-34925D01*
X44075Y-34725D02*
X52150Y-34725D01*
X33950Y-34500D02*
X34350Y-34900D01*
X52350Y-35250D02*
X52100Y-35500D01*
X43550Y-35250D02*
X44075Y-34725D01*
X34350Y-34900D02*
X37800Y-34900D01*
X50900Y-35500D02*
X50285Y-36115D01*
X44075Y-34725D02*
X44100Y-34700D01*
X31313Y-33000D02*
X32650Y-33000D01*
X52350Y-34925D02*
X52350Y-35250D01*
X33950Y-34300D02*
X32650Y-33000D01*
X35650Y-35200D02*
X36155Y-35705D01*
X31313Y-33500D02*
X32500Y-33500D01*
X32500Y-33500D02*
X32550Y-33500D01*
X36155Y-35705D02*
X36155Y-37800D01*
X32500Y-33500D02*
X34200Y-35200D01*
X34200Y-35200D02*
X35650Y-35200D01*
X84534Y-34966D02*
X84534Y-33348D01*
X82000Y-35500D02*
X84000Y-35500D01*
X81500Y-34000D02*
X81500Y-35000D01*
X81500Y-35000D02*
X82000Y-35500D01*
G54D11*
X80750Y-32625D02*
X67550Y-32625D01*
X67550Y-32625D02*
X67016Y-33159D01*
X81500Y-32500D02*
X81375Y-32625D01*
X81375Y-32625D02*
X80750Y-32625D01*
G54D28*
X84000Y-35500D02*
X84534Y-34966D01*
X30540Y-35040D02*
X33690Y-35040D01*
X33690Y-35040D02*
X34160Y-35510D01*
X29590Y-32500D02*
X30044Y-32954D01*
X29187Y-32500D02*
X29590Y-32500D01*
X34160Y-35510D02*
X34350Y-35510D01*
X34585Y-35745D02*
X34585Y-37800D01*
X34350Y-35510D02*
X34585Y-35745D01*
X30044Y-34544D02*
X30540Y-35040D01*
X30044Y-32954D02*
X30044Y-34544D01*
X31200Y-35650D02*
X31445Y-35895D01*
X31445Y-35895D02*
X31445Y-37800D01*
X30550Y-35650D02*
X31200Y-35650D01*
X29600Y-32000D02*
X30250Y-32650D01*
X30250Y-34250D02*
X30550Y-34550D01*
X30250Y-32650D02*
X30250Y-34250D01*
X29187Y-32000D02*
X29600Y-32000D01*
X20500Y-24750D02*
X19280Y-25970D01*
X19280Y-25970D02*
X15600Y-25970D01*
X23750Y-24750D02*
X20500Y-24750D01*
X25890Y-26000D02*
X25000Y-26000D01*
X25000Y-26000D02*
X23750Y-24750D01*
X39937Y-32500D02*
X39250Y-32500D01*
X39250Y-35600D02*
X39250Y-37755D01*
X39250Y-37755D02*
X39295Y-37800D01*
X39937Y-34000D02*
X41000Y-34000D01*
X40800Y-37735D02*
X40865Y-37800D01*
X40800Y-35600D02*
X40800Y-37735D01*
X20500Y-27500D02*
X21500Y-26500D01*
X20500Y-28500D02*
X18320Y-30680D01*
X22110Y-26500D02*
X21500Y-26500D01*
X20500Y-27500D02*
X20500Y-28500D01*
X18320Y-30680D02*
X15600Y-30680D01*
X22110Y-32500D02*
X20750Y-32500D01*
X19430Y-33820D02*
X15600Y-33820D01*
X20750Y-32500D02*
X19430Y-33820D01*
X26490Y-32140D02*
X26350Y-32000D01*
X18790Y-36960D02*
X15600Y-36960D01*
X24200Y-33250D02*
X26250Y-33250D01*
X26490Y-33010D02*
X26490Y-32140D01*
X22700Y-34750D02*
X21000Y-34750D01*
X22700Y-34750D02*
X24200Y-33250D01*
X21000Y-34750D02*
X18790Y-36960D01*
X26250Y-33250D02*
X26490Y-33010D01*
X25890Y-32000D02*
X26350Y-32000D01*
X31313Y-31500D02*
X32400Y-31500D01*
X44850Y-35100D02*
X45575Y-35825D01*
X42450Y-35002D02*
X43198Y-35002D01*
X44300Y-35100D02*
X44850Y-35100D01*
X34500Y-33600D02*
X32400Y-31500D01*
X34500Y-33750D02*
X34500Y-33600D01*
X37750Y-34150D02*
X38602Y-35002D01*
X34900Y-34150D02*
X37750Y-34150D01*
X38602Y-35002D02*
X42450Y-35002D01*
X45575Y-35825D02*
X45575Y-37800D01*
X43198Y-35002D02*
X43400Y-34800D01*
X34900Y-34150D02*
X34500Y-33750D01*
X42450Y-35002D02*
X42452Y-35002D01*
X34250Y-34000D02*
X34250Y-34150D01*
X31750Y-32000D02*
X31313Y-32000D01*
X31950Y-32200D02*
X31950Y-32350D01*
X37600Y-37675D02*
X37725Y-37800D01*
X33000Y-32750D02*
X34250Y-34000D01*
X37600Y-35300D02*
X37600Y-37675D01*
X32350Y-32750D02*
X33000Y-32750D01*
X34250Y-34150D02*
X34600Y-34500D01*
X34600Y-34500D02*
X37610Y-34500D01*
X31750Y-32000D02*
X31950Y-32200D01*
X31950Y-32350D02*
X32350Y-32750D01*
X25890Y-28000D02*
X25990Y-28100D01*
X49700Y-33000D02*
X44850Y-33000D01*
X28500Y-29450D02*
X32140Y-29450D01*
X42900Y-30400D02*
X36500Y-30400D01*
X27550Y-29250D02*
X28300Y-29250D01*
X26400Y-28100D02*
X25990Y-28100D01*
X50500Y-33800D02*
X56350Y-33800D01*
X32140Y-29450D02*
X34140Y-31450D01*
X56350Y-33800D02*
X56650Y-34100D01*
X56650Y-34100D02*
X59400Y-34100D01*
X60200Y-33300D02*
X59400Y-34100D01*
X49700Y-33000D02*
X50500Y-33800D01*
X43500Y-31000D02*
X42900Y-30400D01*
X43500Y-33000D02*
X43000Y-33500D01*
X28300Y-29250D02*
X28500Y-29450D01*
X36500Y-30400D02*
X35450Y-31450D01*
X27550Y-29250D02*
X26400Y-28100D01*
X44850Y-33000D02*
X43500Y-33000D01*
X42750Y-34000D02*
X42063Y-34000D01*
X42063Y-34000D02*
X42250Y-34000D01*
X35450Y-31450D02*
X34140Y-31450D01*
X43000Y-33750D02*
X42750Y-34000D01*
X43000Y-33500D02*
X43000Y-33750D01*
X24250Y-23850D02*
X19600Y-23850D01*
X25890Y-29000D02*
X25350Y-29000D01*
X25100Y-25400D02*
X25100Y-24700D01*
X25100Y-28750D02*
X25100Y-26900D01*
X25350Y-29000D02*
X25100Y-28750D01*
X19600Y-23850D02*
X19200Y-23450D01*
X24250Y-23850D02*
X25100Y-24700D01*
X43750Y-32000D02*
X45000Y-32000D01*
X50700Y-33100D02*
X52300Y-33100D01*
X42063Y-33000D02*
X42750Y-33000D01*
X45500Y-32500D02*
X50100Y-32500D01*
X52300Y-33100D02*
X52700Y-33100D01*
X52700Y-34750D02*
X52700Y-35250D01*
X52700Y-35250D02*
X51855Y-36095D01*
X45000Y-32000D02*
X45500Y-32500D01*
X42750Y-33000D02*
X43750Y-32000D01*
X51855Y-37800D02*
X51855Y-36095D01*
X50100Y-32500D02*
X50700Y-33100D01*
X53000Y-34350D02*
X53425Y-34775D01*
X39937Y-33500D02*
X38900Y-33500D01*
X43350Y-34350D02*
X53000Y-34350D01*
X53425Y-34775D02*
X53425Y-37800D01*
X42900Y-34800D02*
X38750Y-34800D01*
X43350Y-34350D02*
X42900Y-34800D01*
X38400Y-34000D02*
X38400Y-34450D01*
X38900Y-33500D02*
X38400Y-34000D01*
X38400Y-34450D02*
X38750Y-34800D01*
X50050Y-35100D02*
X47800Y-35100D01*
X43500Y-33500D02*
X49500Y-33500D01*
X39937Y-32000D02*
X40750Y-32000D01*
X47800Y-35100D02*
X47145Y-35755D01*
X47145Y-35755D02*
X47145Y-37800D01*
X49500Y-33500D02*
X50000Y-34000D01*
X50750Y-32750D02*
X51750Y-32750D01*
X51750Y-35050D02*
X51050Y-35050D01*
X50500Y-35600D02*
X49000Y-35600D01*
X50200Y-32200D02*
X50750Y-32750D01*
X45700Y-32200D02*
X50200Y-32200D01*
X49000Y-35600D02*
X48715Y-35885D01*
X45700Y-32200D02*
X45000Y-31500D01*
X42063Y-31500D02*
X45000Y-31500D01*
X48715Y-35885D02*
X48715Y-37800D01*
X51050Y-35050D02*
X50500Y-35600D01*
X28250Y-33500D02*
X27250Y-34500D01*
X29875Y-35775D02*
X29875Y-37800D01*
X29187Y-33500D02*
X28250Y-33500D01*
X27250Y-34850D02*
X27900Y-35500D01*
X29600Y-35500D02*
X29875Y-35775D01*
X27900Y-35500D02*
X29600Y-35500D01*
X27250Y-34500D02*
X27250Y-34850D01*
X29790Y-34590D02*
X30510Y-35310D01*
X30510Y-35310D02*
X32400Y-35310D01*
X29550Y-34000D02*
X29790Y-34240D01*
X29790Y-34240D02*
X29790Y-34590D01*
X29187Y-34000D02*
X29550Y-34000D01*
X33015Y-35925D02*
X33015Y-37800D01*
X32400Y-35310D02*
X33015Y-35925D01*
X27650Y-30200D02*
X27400Y-29950D01*
X39950Y-33000D02*
X38250Y-33000D01*
X26900Y-27000D02*
X25890Y-27000D01*
X31965Y-30175D02*
X30475Y-30175D01*
X34140Y-32350D02*
X31965Y-30175D01*
X36450Y-32500D02*
X36300Y-32350D01*
X36300Y-32350D02*
X34140Y-32350D01*
X27400Y-27500D02*
X26900Y-27000D01*
X38250Y-33000D02*
X37750Y-33500D01*
X30475Y-30175D02*
X30500Y-30200D01*
X30500Y-30200D02*
X27650Y-30200D01*
X29187Y-34500D02*
X28000Y-34500D01*
X22700Y-28000D02*
X22110Y-28000D01*
X23400Y-32500D02*
X23000Y-32100D01*
X23500Y-32500D02*
X23400Y-32500D01*
X28000Y-34500D02*
X27750Y-34750D01*
X23000Y-28300D02*
X22700Y-28000D01*
X23000Y-32100D02*
X23000Y-28300D01*
X23000Y-25500D02*
X24000Y-26500D01*
X24000Y-30250D02*
X24750Y-31000D01*
X21300Y-25500D02*
X23000Y-25500D01*
X24000Y-26500D02*
X24000Y-30250D01*
X25890Y-31000D02*
X24750Y-31000D01*
X21150Y-25650D02*
X21300Y-25500D01*
X21000Y-26500D02*
X18390Y-29110D01*
X18390Y-29110D02*
X15600Y-29110D01*
X19610Y-35390D02*
X15600Y-35390D01*
X23750Y-33250D02*
X24500Y-32500D01*
X21750Y-33250D02*
X19610Y-35390D01*
X23750Y-33250D02*
X21750Y-33250D01*
X25890Y-32500D02*
X24500Y-32500D01*
X19470Y-38530D02*
X15600Y-38530D01*
X21000Y-35250D02*
X21000Y-37000D01*
X21000Y-37000D02*
X19470Y-38530D01*
X22110Y-32000D02*
X21250Y-32000D01*
X20750Y-26000D02*
X19210Y-27540D01*
X19210Y-27540D02*
X15600Y-27540D01*
X22110Y-26000D02*
X20750Y-26000D01*
X23750Y-25250D02*
X25000Y-26500D01*
X20750Y-30650D02*
X19150Y-32250D01*
X25890Y-26500D02*
X25000Y-26500D01*
X19150Y-32250D02*
X15600Y-32250D01*
X20750Y-25250D02*
X23750Y-25250D01*
X43750Y-32550D02*
X45100Y-32550D01*
X37198Y-30602D02*
X35950Y-31850D01*
X50600Y-33450D02*
X55800Y-33450D01*
X45300Y-32750D02*
X49900Y-32750D01*
X49900Y-32750D02*
X50600Y-33450D01*
X45100Y-32550D02*
X45300Y-32750D01*
X55800Y-33450D02*
X56450Y-32800D01*
X56450Y-32800D02*
X57700Y-32800D01*
X57700Y-32800D02*
X58200Y-33300D01*
X27350Y-29500D02*
X28150Y-29500D01*
X28150Y-29500D02*
X28350Y-29700D01*
X42500Y-32500D02*
X43000Y-32000D01*
X42063Y-32500D02*
X42500Y-32500D01*
X42502Y-30602D02*
X37198Y-30602D01*
X25890Y-28500D02*
X26350Y-28500D01*
X27350Y-29500D02*
X26350Y-28500D01*
X43000Y-31100D02*
X42502Y-30602D01*
X35950Y-31850D02*
X34230Y-31850D01*
X32080Y-29700D02*
X34230Y-31850D01*
X28350Y-29700D02*
X32080Y-29700D01*
X18175Y-21700D02*
X18175Y-23425D01*
X18175Y-23425D02*
X18200Y-23450D01*
X88500Y-27000D02*
X88500Y-27875D01*
X88500Y-27875D02*
X86800Y-27875D01*
X38500Y-28800D02*
X38624Y-28924D01*
X38250Y-26250D02*
X37550Y-26950D01*
X37850Y-28800D02*
X38500Y-28800D01*
X38624Y-28924D02*
X38624Y-29194D01*
X37000Y-27950D02*
X37850Y-28800D01*
X37550Y-26950D02*
X37500Y-26950D01*
X37000Y-27550D02*
X37000Y-27950D01*
X44250Y-27250D02*
X43880Y-27250D01*
X43080Y-28550D02*
X43079Y-28550D01*
X43630Y-28000D02*
X43080Y-28550D01*
X43079Y-28550D02*
X42674Y-28955D01*
X42674Y-28955D02*
X42674Y-29194D01*
X43630Y-27500D02*
X43630Y-28000D01*
X43880Y-27250D02*
X43630Y-27500D01*
X38124Y-21744D02*
X38644Y-21744D01*
X38644Y-21744D02*
X38650Y-21750D01*
X42050Y-26700D02*
X42050Y-25550D01*
X42050Y-25550D02*
X42300Y-25300D01*
X49400Y-27950D02*
X49200Y-28150D01*
X49350Y-27550D02*
X49400Y-27600D01*
X47850Y-28150D02*
X47450Y-27750D01*
X48974Y-27550D02*
X49350Y-27550D01*
X49400Y-27600D02*
X49400Y-27950D01*
X49200Y-28150D02*
X47850Y-28150D01*
X46300Y-27750D02*
X45300Y-26750D01*
X42100Y-26750D02*
X42050Y-26700D01*
X42300Y-25300D02*
X43140Y-25300D01*
X47450Y-27750D02*
X46300Y-27750D01*
X39050Y-21550D02*
X38510Y-21010D01*
X37750Y-27750D02*
X39310Y-27750D01*
X38124Y-22000D02*
X38400Y-22000D01*
X36900Y-21600D02*
X36900Y-26900D01*
X38510Y-21010D02*
X37490Y-21010D01*
X39310Y-27750D02*
X39360Y-27800D01*
X38500Y-22100D02*
X38800Y-22100D01*
X38800Y-22100D02*
X39050Y-21850D01*
X38400Y-22000D02*
X38500Y-22100D01*
X39050Y-21850D02*
X39050Y-21550D01*
X36900Y-26900D02*
X37750Y-27750D01*
X37490Y-21010D02*
X36900Y-21600D01*
X45000Y-25750D02*
X44050Y-25750D01*
X45600Y-25150D02*
X45000Y-25750D01*
X47150Y-23750D02*
X46000Y-23750D01*
X43500Y-26300D02*
X43140Y-26300D01*
X44050Y-25750D02*
X43500Y-26300D01*
X45600Y-24150D02*
X45600Y-25150D01*
X47250Y-23650D02*
X47150Y-23750D01*
X46000Y-23750D02*
X45600Y-24150D01*
X48676Y-23650D02*
X47250Y-23650D01*
X44950Y-21900D02*
X44150Y-21900D01*
X42550Y-24300D02*
X43140Y-24300D01*
X42550Y-24300D02*
X42070Y-23820D01*
X44650Y-21250D02*
X44704Y-21196D01*
X43794Y-21250D02*
X44650Y-21250D01*
X45150Y-21350D02*
X45150Y-21700D01*
X45150Y-21700D02*
X44950Y-21900D01*
X44150Y-21900D02*
X44100Y-21850D01*
X44704Y-21196D02*
X44996Y-21196D01*
X42070Y-23820D02*
X42070Y-22580D01*
X44100Y-21850D02*
X42800Y-21850D01*
X44996Y-21196D02*
X45150Y-21350D01*
X42070Y-22580D02*
X42800Y-21850D01*
X41926Y-29706D02*
X41554Y-29706D01*
X44950Y-26950D02*
X44950Y-27920D01*
X44950Y-27920D02*
X46020Y-28990D01*
X44250Y-26250D02*
X44950Y-26950D01*
X41554Y-29706D02*
X41500Y-29760D01*
X48844Y-20994D02*
X51650Y-23800D01*
X52350Y-25250D02*
X53000Y-25250D01*
X43794Y-20994D02*
X48844Y-20994D01*
X51650Y-24550D02*
X52350Y-25250D01*
X51650Y-23800D02*
X51650Y-24550D01*
X49424Y-23394D02*
X49424Y-23174D01*
X49424Y-23174D02*
X49300Y-23050D01*
X49300Y-23050D02*
X47200Y-23050D01*
X47200Y-23050D02*
X47000Y-23250D01*
X50926Y-27926D02*
X51100Y-28100D01*
X51100Y-28100D02*
X52150Y-28100D01*
X52150Y-28100D02*
X53000Y-27250D01*
X50926Y-27706D02*
X50926Y-27926D01*
X47000Y-26300D02*
X47650Y-26950D01*
X47650Y-27650D02*
X47806Y-27806D01*
X47000Y-26250D02*
X47000Y-26300D01*
X47806Y-27806D02*
X48226Y-27806D01*
X47650Y-26950D02*
X47650Y-27650D01*
X42844Y-21506D02*
X41840Y-22510D01*
X43046Y-21506D02*
X42844Y-21506D01*
X41840Y-24610D02*
X42200Y-24970D01*
X41840Y-22510D02*
X41840Y-24610D01*
X43350Y-30150D02*
X44250Y-29250D01*
X38100Y-30150D02*
X43350Y-30150D01*
X37876Y-29926D02*
X38100Y-30150D01*
X37876Y-29706D02*
X37876Y-29926D01*
X37500Y-24250D02*
X38250Y-24250D01*
X37376Y-24126D02*
X37500Y-24250D01*
X37376Y-22256D02*
X37376Y-24126D01*
X47344Y-23906D02*
X47000Y-24250D01*
X48676Y-23906D02*
X47344Y-23906D01*
X50300Y-28050D02*
X50300Y-28650D01*
X48974Y-27294D02*
X49544Y-27294D01*
X50300Y-28650D02*
X50900Y-29250D01*
X50900Y-29250D02*
X53000Y-29250D01*
X49544Y-27294D02*
X50300Y-28050D01*
X37102Y-24352D02*
X37500Y-24750D01*
X37500Y-24750D02*
X38500Y-24750D01*
X38750Y-25000D02*
X38750Y-25150D01*
X37202Y-22000D02*
X37102Y-22100D01*
X37102Y-22100D02*
X37102Y-24352D01*
X37376Y-22000D02*
X37202Y-22000D01*
X38900Y-25300D02*
X39360Y-25300D01*
X38500Y-24750D02*
X38750Y-25000D01*
X38750Y-25150D02*
X38900Y-25300D01*
X36550Y-28700D02*
X37300Y-29450D01*
X39360Y-26300D02*
X39100Y-26300D01*
X38550Y-25750D02*
X38050Y-25750D01*
X39100Y-26300D02*
X38550Y-25750D01*
X38050Y-25750D02*
X37300Y-26500D01*
X39360Y-26300D02*
X39100Y-26300D01*
X36550Y-26500D02*
X36550Y-28700D01*
X37300Y-29450D02*
X37876Y-29450D01*
X39750Y-27300D02*
X40050Y-27600D01*
X41600Y-27120D02*
X41920Y-27440D01*
X39360Y-27300D02*
X39750Y-27300D01*
X42550Y-21250D02*
X43046Y-21250D01*
X41600Y-26890D02*
X41600Y-22200D01*
X41600Y-26890D02*
X41600Y-27120D01*
X41600Y-22200D02*
X42550Y-21250D01*
X38624Y-29450D02*
X39350Y-29450D01*
X40150Y-24800D02*
X39360Y-24800D01*
X40150Y-24800D02*
X40400Y-25050D01*
X40400Y-25050D02*
X40400Y-25070D01*
X40400Y-26940D02*
X40650Y-27190D01*
X40650Y-28150D02*
X40650Y-27190D01*
X39350Y-29450D02*
X40650Y-28150D01*
X40400Y-25070D02*
X40400Y-26940D01*
X40050Y-25800D02*
X39360Y-25800D01*
X41329Y-29421D02*
X40980Y-29770D01*
X41679Y-29450D02*
X41650Y-29421D01*
X40875Y-28025D02*
X41250Y-28400D01*
X41650Y-29421D02*
X41329Y-29421D01*
X40760Y-26960D02*
X40760Y-25800D01*
X40875Y-27075D02*
X40875Y-28025D01*
X40875Y-27075D02*
X40760Y-26960D01*
X41926Y-29450D02*
X41679Y-29450D01*
X40400Y-27900D02*
X40400Y-27400D01*
X43100Y-29350D02*
X43000Y-29450D01*
X42150Y-28800D02*
X40550Y-28800D01*
X43000Y-29450D02*
X42674Y-29450D01*
X40400Y-27400D02*
X39800Y-26800D01*
X39360Y-26800D02*
X39800Y-26800D01*
X39850Y-28450D02*
X40400Y-27900D01*
X42674Y-29450D02*
X42950Y-29450D01*
X45350Y-27750D02*
X47250Y-29650D01*
X51674Y-27450D02*
X52200Y-27450D01*
X43140Y-26800D02*
X42800Y-26800D01*
X42800Y-26800D02*
X42350Y-27250D01*
X47250Y-29650D02*
X51450Y-29650D01*
X42500Y-25800D02*
X43140Y-25800D01*
X48226Y-27550D02*
X47952Y-27550D01*
X42450Y-25750D02*
X42500Y-25800D01*
X47900Y-27498D02*
X47900Y-26200D01*
X47450Y-25750D02*
X45400Y-25750D01*
X47952Y-27550D02*
X47900Y-27498D01*
X45400Y-25750D02*
X45000Y-26150D01*
X47900Y-26200D02*
X47450Y-25750D01*
X45200Y-24750D02*
X43450Y-24750D01*
X47550Y-24750D02*
X46000Y-24750D01*
X43450Y-24750D02*
X43140Y-24800D01*
X50300Y-27450D02*
X49900Y-27050D01*
X49000Y-26200D02*
X47550Y-24750D01*
X50926Y-27450D02*
X50300Y-27450D01*
X49950Y-23450D02*
X49950Y-23050D01*
X49950Y-23050D02*
X49550Y-22650D01*
X43190Y-23750D02*
X43140Y-23800D01*
X49550Y-22650D02*
X45850Y-22650D01*
X49424Y-23650D02*
X49750Y-23650D01*
X44750Y-23750D02*
X43190Y-23750D01*
X49750Y-23650D02*
X49950Y-23450D01*
X45850Y-22650D02*
X44750Y-23750D01*
X51674Y-26776D02*
X52200Y-26250D01*
X52200Y-26250D02*
X53000Y-26250D01*
X51674Y-27194D02*
X51674Y-26776D01*
X78124Y-26344D02*
X79156Y-26344D01*
X79156Y-26344D02*
X79250Y-26250D01*
X69800Y-24200D02*
X69340Y-24200D01*
X69950Y-24050D02*
X69800Y-24200D01*
X72350Y-23750D02*
X70150Y-23750D01*
X75274Y-23650D02*
X75750Y-23650D01*
X75750Y-23650D02*
X75800Y-23700D01*
X69950Y-23950D02*
X69950Y-24050D01*
X70150Y-23750D02*
X69950Y-23950D01*
X74576Y-26806D02*
X74094Y-26806D01*
X74094Y-26806D02*
X73900Y-27000D01*
X74800Y-24700D02*
X74750Y-24750D01*
X77376Y-26600D02*
X77000Y-26600D01*
X74750Y-24750D02*
X72450Y-24750D01*
X70300Y-24750D02*
X69850Y-25200D01*
X71600Y-24750D02*
X70300Y-24750D01*
X77000Y-26600D02*
X76400Y-26000D01*
X69850Y-25200D02*
X69340Y-25200D01*
X73600Y-26750D02*
X72550Y-26750D01*
X69850Y-26200D02*
X69340Y-26200D01*
X72550Y-26750D02*
X72400Y-26600D01*
X71500Y-25750D02*
X70300Y-25750D01*
X70300Y-25750D02*
X69850Y-26200D01*
X73800Y-26550D02*
X73600Y-26750D01*
X74576Y-26550D02*
X73800Y-26550D01*
X75274Y-23394D02*
X75274Y-23174D01*
X75274Y-23174D02*
X75150Y-23050D01*
X75150Y-23050D02*
X73450Y-23050D01*
X73450Y-23050D02*
X73250Y-23250D01*
X77376Y-26856D02*
X77376Y-27026D01*
X77600Y-27250D02*
X79250Y-27250D01*
X77376Y-27026D02*
X77600Y-27250D01*
X66750Y-26900D02*
X66050Y-26200D01*
X66250Y-29000D02*
X66750Y-28500D01*
X67476Y-30200D02*
X67300Y-30200D01*
X67300Y-30200D02*
X67000Y-30500D01*
X66050Y-26200D02*
X65560Y-26200D01*
X66750Y-28500D02*
X66750Y-26900D01*
X68700Y-29550D02*
X68213Y-29063D01*
X66000Y-28600D02*
X66500Y-28100D01*
X66500Y-27750D02*
X65950Y-27200D01*
X68224Y-30200D02*
X68500Y-30200D01*
X65950Y-27200D02*
X65560Y-27200D01*
X66500Y-28100D02*
X66500Y-27750D01*
X68213Y-29063D02*
X68213Y-28658D01*
X68700Y-30000D02*
X68700Y-29550D01*
X68500Y-30200D02*
X68700Y-30000D01*
X68213Y-28658D02*
X68070Y-28515D01*
X64524Y-21750D02*
X64750Y-21750D01*
X65050Y-21950D02*
X65350Y-21650D01*
X63600Y-21050D02*
X63250Y-21400D01*
X65560Y-28640D02*
X65560Y-28200D01*
X65350Y-21300D02*
X65100Y-21050D01*
X64950Y-21950D02*
X65050Y-21950D01*
X65350Y-21650D02*
X65350Y-21300D01*
X64150Y-28800D02*
X65400Y-28800D01*
X63250Y-21400D02*
X63250Y-28450D01*
X65100Y-21050D02*
X63600Y-21050D01*
X65400Y-28800D02*
X65560Y-28640D01*
X64750Y-21750D02*
X64950Y-21950D01*
X72000Y-26200D02*
X71550Y-26650D01*
X72900Y-23750D02*
X72000Y-24650D01*
X74526Y-23650D02*
X73550Y-23650D01*
X72000Y-24650D02*
X72000Y-26200D01*
X69950Y-26700D02*
X69340Y-26700D01*
X73450Y-23750D02*
X72900Y-23750D01*
X73550Y-23650D02*
X73450Y-23750D01*
X70000Y-26750D02*
X69950Y-26700D01*
X69950Y-25600D02*
X69850Y-25700D01*
X75324Y-26550D02*
X75650Y-26550D01*
X69850Y-25700D02*
X69340Y-25700D01*
X75900Y-25700D02*
X75850Y-25750D01*
X75650Y-26550D02*
X75900Y-26800D01*
X75850Y-25750D02*
X72850Y-25750D01*
X72850Y-25750D02*
X72400Y-25300D01*
X70950Y-21650D02*
X70524Y-21650D01*
X69340Y-24700D02*
X68850Y-24700D01*
X70950Y-21650D02*
X71100Y-21500D01*
X68660Y-24510D02*
X68700Y-24550D01*
X68660Y-24290D02*
X68660Y-24510D01*
X68700Y-24550D02*
X68850Y-24700D01*
X66150Y-25200D02*
X65560Y-25200D01*
X67000Y-28820D02*
X67000Y-26050D01*
X67000Y-26050D02*
X66150Y-25200D01*
X65074Y-30200D02*
X65620Y-30200D01*
X65620Y-30200D02*
X67000Y-28820D01*
X68394Y-21906D02*
X67700Y-22600D01*
X67700Y-22600D02*
X67700Y-24700D01*
X69776Y-21906D02*
X68394Y-21906D01*
X70400Y-29250D02*
X70500Y-29250D01*
X64326Y-30456D02*
X64326Y-30626D01*
X64326Y-30626D02*
X65100Y-31400D01*
X65100Y-31400D02*
X68250Y-31400D01*
X68250Y-31400D02*
X70400Y-29250D01*
X63776Y-23976D02*
X64050Y-24250D01*
X63776Y-22006D02*
X63776Y-23976D01*
X64050Y-24250D02*
X64500Y-24250D01*
X74094Y-23906D02*
X73750Y-24250D01*
X74526Y-23906D02*
X74094Y-23906D01*
X73750Y-24250D02*
X73250Y-24250D01*
X77350Y-28050D02*
X78550Y-29250D01*
X75944Y-26294D02*
X77350Y-27700D01*
X77350Y-27700D02*
X77350Y-28050D01*
X75324Y-26294D02*
X75944Y-26294D01*
X78550Y-29250D02*
X79250Y-29250D01*
X77700Y-24600D02*
X78350Y-25250D01*
X70700Y-21050D02*
X75100Y-21050D01*
X77700Y-23650D02*
X77700Y-24600D01*
X70524Y-21394D02*
X70524Y-21226D01*
X78350Y-25250D02*
X79250Y-25250D01*
X70524Y-21226D02*
X70700Y-21050D01*
X75100Y-21050D02*
X77700Y-23650D01*
X69800Y-29400D02*
X69800Y-29000D01*
X69800Y-29000D02*
X70050Y-28750D01*
X68200Y-31000D02*
X69800Y-29400D01*
X71100Y-26850D02*
X70500Y-26250D01*
X67750Y-31000D02*
X68200Y-31000D01*
X67476Y-30726D02*
X67750Y-31000D01*
X70800Y-28750D02*
X71100Y-28450D01*
X67476Y-30456D02*
X67476Y-30726D01*
X71100Y-28450D02*
X71100Y-26850D01*
X70050Y-28750D02*
X70800Y-28750D01*
X64000Y-26250D02*
X64500Y-26250D01*
X63950Y-29150D02*
X63800Y-29000D01*
X64450Y-29150D02*
X63950Y-29150D01*
X65074Y-29944D02*
X65074Y-29774D01*
X65074Y-29774D02*
X64450Y-29150D01*
X63800Y-26450D02*
X64000Y-26250D01*
X63800Y-29000D02*
X63800Y-26450D01*
X68224Y-29944D02*
X68224Y-29624D01*
X68224Y-29624D02*
X68100Y-29500D01*
X64524Y-21494D02*
X64994Y-21494D01*
X64994Y-21494D02*
X65000Y-21500D01*
X68535Y-27365D02*
X68700Y-27200D01*
X79850Y-27550D02*
X79650Y-27750D01*
X78650Y-26600D02*
X78124Y-26600D01*
X68535Y-28685D02*
X68535Y-27365D01*
X71700Y-30200D02*
X70850Y-31050D01*
X69250Y-29400D02*
X68535Y-28685D01*
X78650Y-26600D02*
X78800Y-26750D01*
X71700Y-28650D02*
X71700Y-30200D01*
X78800Y-26750D02*
X79600Y-26750D01*
X79600Y-26750D02*
X79850Y-27000D01*
X79850Y-27000D02*
X79850Y-27550D01*
X70850Y-31050D02*
X70150Y-31050D01*
X69340Y-27200D02*
X68700Y-27200D01*
X76750Y-27750D02*
X72600Y-27750D01*
X70150Y-31050D02*
X69700Y-30600D01*
X72600Y-27750D02*
X71700Y-28650D01*
X79650Y-27750D02*
X77850Y-27750D01*
X67450Y-25250D02*
X67250Y-25050D01*
X67250Y-25050D02*
X67250Y-24300D01*
X68250Y-21650D02*
X69776Y-21650D01*
X67450Y-27900D02*
X67450Y-25250D01*
X65900Y-27700D02*
X66150Y-27950D01*
X67450Y-24100D02*
X67450Y-22450D01*
X67250Y-24300D02*
X67450Y-24100D01*
X67450Y-22450D02*
X68250Y-21650D01*
X65560Y-27700D02*
X65900Y-27700D01*
X63500Y-21850D02*
X63500Y-25250D01*
X63776Y-21750D02*
X63600Y-21750D01*
X64000Y-25750D02*
X65510Y-25750D01*
X63600Y-21750D02*
X63500Y-21850D01*
X63500Y-25250D02*
X64000Y-25750D01*
X65510Y-25750D02*
X65560Y-25700D01*
X65560Y-26700D02*
X64900Y-26700D01*
X64000Y-30200D02*
X64326Y-30200D01*
X63750Y-29950D02*
X64000Y-30200D01*
G54D30*
X28776Y-23526D02*
X29500Y-24250D01*
X28776Y-22356D02*
X28776Y-23526D01*
G54D28*
X58594Y-27444D02*
X60400Y-29250D01*
X60400Y-29250D02*
X61750Y-29250D01*
X57924Y-27444D02*
X58594Y-27444D01*
X31426Y-29026D02*
X31600Y-29200D01*
X31600Y-29200D02*
X32200Y-29200D01*
X34150Y-30600D02*
X35500Y-29250D01*
X33600Y-30600D02*
X34150Y-30600D01*
X32200Y-29200D02*
X33600Y-30600D01*
X31426Y-28856D02*
X31426Y-29026D01*
X33350Y-25150D02*
X33450Y-25250D01*
X33794Y-21656D02*
X33350Y-22100D01*
X34076Y-21656D02*
X33794Y-21656D01*
X33350Y-22100D02*
X33350Y-25150D01*
X51050Y-21900D02*
X53050Y-21900D01*
X45450Y-21750D02*
X48900Y-21750D01*
X45450Y-21750D02*
X45000Y-22200D01*
X60000Y-23700D02*
X60000Y-24350D01*
X58900Y-22600D02*
X60000Y-23700D01*
X35700Y-21850D02*
X35700Y-21500D01*
X50200Y-21050D02*
X51050Y-21900D01*
X53050Y-21900D02*
X53750Y-22600D01*
X61750Y-25250D02*
X60900Y-25250D01*
X35700Y-21500D02*
X35344Y-21144D01*
X41700Y-21400D02*
X39400Y-21400D01*
X60000Y-24350D02*
X60900Y-25250D01*
X35344Y-21144D02*
X34824Y-21144D01*
X41750Y-21450D02*
X41700Y-21400D01*
X45000Y-22200D02*
X43950Y-22200D01*
X53750Y-22600D02*
X57550Y-22600D01*
X57100Y-24250D02*
X57276Y-24074D01*
X55750Y-24250D02*
X57100Y-24250D01*
X57276Y-24074D02*
X57276Y-23806D01*
X35250Y-28750D02*
X35850Y-28750D01*
X35500Y-26250D02*
X36000Y-26750D01*
X35000Y-29350D02*
X35000Y-29000D01*
X33394Y-29506D02*
X33626Y-29506D01*
X35000Y-29350D02*
X35000Y-29400D01*
X33250Y-29900D02*
X33250Y-29650D01*
X35000Y-29000D02*
X35250Y-28750D01*
X33732Y-30382D02*
X33250Y-29900D01*
X36000Y-28600D02*
X36000Y-26750D01*
X35000Y-29400D02*
X34018Y-30382D01*
X35850Y-28750D02*
X36000Y-28600D01*
X33250Y-29650D02*
X33394Y-29506D01*
X34018Y-30382D02*
X33732Y-30382D01*
X33900Y-21950D02*
X33600Y-22250D01*
X34824Y-21400D02*
X35100Y-21400D01*
X33600Y-22250D02*
X33600Y-24100D01*
X33800Y-24300D02*
X34340Y-24300D01*
X35200Y-21500D02*
X35200Y-21850D01*
X35100Y-21400D02*
X35200Y-21500D01*
X35100Y-21950D02*
X33900Y-21950D01*
X33600Y-24100D02*
X33800Y-24300D01*
X35200Y-21850D02*
X35100Y-21950D01*
X62510Y-29350D02*
X62110Y-29750D01*
X35060Y-24920D02*
X35210Y-24770D01*
X35060Y-25070D02*
X35060Y-24920D01*
X62510Y-20750D02*
X62510Y-29350D01*
X34830Y-25300D02*
X35060Y-25070D01*
X35210Y-24770D02*
X35760Y-24770D01*
X60460Y-29750D02*
X58410Y-27700D01*
X57924Y-27700D02*
X58410Y-27700D01*
X62110Y-29750D02*
X60460Y-29750D01*
X36510Y-21540D02*
X36510Y-24020D01*
X62500Y-20750D02*
X62510Y-20750D01*
X36600Y-21450D02*
X36510Y-21540D01*
X34830Y-25300D02*
X34340Y-25300D01*
X35760Y-24770D02*
X36510Y-24020D01*
X29906Y-21844D02*
X30100Y-21650D01*
X29524Y-21844D02*
X29906Y-21844D01*
X34374Y-28576D02*
X35500Y-27450D01*
X34374Y-28994D02*
X34374Y-28576D01*
X35500Y-27450D02*
X35500Y-27250D01*
X31150Y-27950D02*
X30800Y-28300D01*
X32174Y-28124D02*
X32000Y-27950D01*
X32174Y-28344D02*
X32174Y-28124D01*
X32000Y-27950D02*
X31150Y-27950D01*
X30800Y-28300D02*
X30150Y-28300D01*
X31200Y-28600D02*
X30600Y-29200D01*
X30600Y-29200D02*
X29100Y-29200D01*
X30000Y-26200D02*
X30100Y-26300D01*
X28750Y-26250D02*
X28750Y-27250D01*
X29800Y-25750D02*
X29250Y-25750D01*
X30560Y-26300D02*
X30100Y-26300D01*
X29100Y-29200D02*
X28750Y-28850D01*
X30000Y-25950D02*
X30000Y-26200D01*
X31200Y-28600D02*
X31426Y-28600D01*
X29250Y-25750D02*
X28750Y-26250D01*
X29800Y-25750D02*
X30000Y-25950D01*
X28600Y-22100D02*
X28500Y-22200D01*
G54D30*
X30150Y-25300D02*
X30560Y-25300D01*
X29700Y-24750D02*
X30000Y-25050D01*
G54D28*
X28776Y-22100D02*
X28600Y-22100D01*
X28500Y-22200D02*
X28500Y-24200D01*
G54D30*
X30000Y-25050D02*
X30000Y-25150D01*
X29050Y-24750D02*
X29700Y-24750D01*
X28500Y-24200D02*
X29050Y-24750D01*
X30000Y-25150D02*
X30150Y-25300D01*
G54D28*
X31200Y-27300D02*
X31350Y-27450D01*
X33100Y-21950D02*
X33650Y-21400D01*
X33250Y-27450D02*
X33100Y-27300D01*
X33100Y-27300D02*
X33100Y-21950D01*
X31200Y-27300D02*
X30560Y-27300D01*
X34076Y-21400D02*
X33650Y-21400D01*
X61950Y-28750D02*
X62250Y-28450D01*
X46000Y-31950D02*
X57000Y-31950D01*
X45150Y-31100D02*
X46000Y-31950D01*
X44395Y-31100D02*
X45150Y-31100D01*
X35000Y-26800D02*
X35050Y-26750D01*
X57000Y-31950D02*
X59250Y-29700D01*
X60750Y-27000D02*
X60374Y-27000D01*
X60550Y-28750D02*
X61950Y-28750D01*
X61900Y-26750D02*
X61000Y-26750D01*
X35000Y-26800D02*
X34340Y-26800D01*
X62250Y-28450D02*
X62250Y-27100D01*
X62250Y-27100D02*
X61900Y-26750D01*
X60500Y-28700D02*
X60550Y-28750D01*
X61000Y-26750D02*
X60750Y-27000D01*
X56500Y-26400D02*
X56350Y-26250D01*
X56500Y-27650D02*
X56500Y-26400D01*
X57176Y-27956D02*
X56806Y-27956D01*
X56350Y-26250D02*
X55750Y-26250D01*
X56806Y-27956D02*
X56500Y-27650D01*
X61250Y-27750D02*
X61750Y-27250D01*
X59626Y-27476D02*
X59900Y-27750D01*
X59626Y-27256D02*
X59626Y-27476D01*
X59900Y-27750D02*
X61250Y-27750D01*
X58024Y-23124D02*
X57850Y-22950D01*
X56050Y-22950D02*
X55750Y-23250D01*
X58024Y-23294D02*
X58024Y-23124D01*
X57850Y-22950D02*
X56050Y-22950D01*
X36150Y-26100D02*
X36150Y-26600D01*
X56800Y-29500D02*
X56800Y-29400D01*
X36250Y-29100D02*
X36900Y-29750D01*
X45623Y-30773D02*
X44103Y-30773D01*
X56850Y-27600D02*
X56950Y-27700D01*
X34950Y-25750D02*
X35800Y-25750D01*
X46200Y-31350D02*
X54950Y-31350D01*
X56850Y-26750D02*
X56850Y-27600D01*
X45623Y-30773D02*
X46200Y-31350D01*
X34900Y-25800D02*
X34950Y-25750D01*
X57176Y-27700D02*
X56950Y-27700D01*
X44103Y-30773D02*
X43655Y-30325D01*
X54950Y-31350D02*
X56800Y-29500D01*
X36150Y-26600D02*
X36250Y-26700D01*
X34900Y-25800D02*
X34340Y-25800D01*
X36250Y-26700D02*
X36250Y-29100D01*
X35800Y-25750D02*
X36150Y-26100D01*
X32750Y-24550D02*
X32750Y-21550D01*
X33775Y-20275D02*
X34675Y-20275D01*
X35773Y-20823D02*
X36707Y-20823D01*
X52320Y-24330D02*
X52740Y-24750D01*
X33350Y-20700D02*
X33775Y-20275D01*
X56660Y-25740D02*
X57290Y-26370D01*
X49100Y-20650D02*
X52320Y-23870D01*
X36707Y-20823D02*
X37020Y-20510D01*
X35550Y-20600D02*
X35773Y-20823D01*
X59170Y-27000D02*
X59626Y-27000D01*
X35550Y-20600D02*
X35000Y-20600D01*
X52320Y-23870D02*
X52320Y-24330D01*
X33775Y-20275D02*
X33777Y-20273D01*
X52740Y-24750D02*
X54230Y-24750D01*
X54230Y-24750D02*
X55220Y-25740D01*
X39610Y-20650D02*
X49100Y-20650D01*
X59000Y-27170D02*
X59170Y-27000D01*
X35000Y-20600D02*
X34675Y-20275D01*
X34340Y-24800D02*
X33850Y-24800D01*
X37020Y-20510D02*
X39470Y-20510D01*
X33850Y-24800D02*
X33700Y-24650D01*
X39470Y-20510D02*
X39610Y-20650D01*
X55220Y-25740D02*
X56660Y-25740D01*
X53125Y-21525D02*
X51125Y-21525D01*
X35050Y-23750D02*
X35800Y-23750D01*
X58600Y-23000D02*
X58600Y-23350D01*
X51125Y-21525D02*
X50550Y-20950D01*
X58600Y-23350D02*
X58400Y-23550D01*
X53125Y-21525D02*
X53800Y-22200D01*
X53800Y-22200D02*
X57800Y-22200D01*
X35800Y-23750D02*
X36050Y-23500D01*
X35000Y-23800D02*
X35050Y-23750D01*
X36150Y-19950D02*
X49900Y-19950D01*
X58024Y-23550D02*
X58400Y-23550D01*
X50550Y-20600D02*
X49900Y-19950D01*
X50550Y-20950D02*
X50550Y-20600D01*
X36150Y-21450D02*
X36050Y-21550D01*
X36050Y-21550D02*
X36050Y-23500D01*
X35000Y-23800D02*
X34340Y-23800D01*
X57800Y-22200D02*
X58600Y-23000D01*
X60374Y-26744D02*
X60374Y-26576D01*
X60700Y-26250D02*
X61750Y-26250D01*
X60374Y-26576D02*
X60700Y-26250D01*
X33900Y-26300D02*
X33450Y-25850D01*
X40940Y-24400D02*
X40000Y-24400D01*
X57276Y-23550D02*
X56700Y-23550D01*
X54450Y-23750D02*
X56500Y-23750D01*
X45950Y-23350D02*
X44900Y-24400D01*
X56500Y-23750D02*
X56700Y-23550D01*
X33900Y-26300D02*
X34340Y-26300D01*
X41050Y-24290D02*
X40940Y-24400D01*
X51450Y-22350D02*
X53050Y-22350D01*
X45950Y-23100D02*
X45950Y-23350D01*
X53050Y-22350D02*
X54450Y-23750D01*
X30300Y-22000D02*
X30500Y-21800D01*
X30500Y-21550D02*
X30050Y-21100D01*
X30510Y-27750D02*
X30560Y-27800D01*
X28700Y-27750D02*
X30510Y-27750D01*
X29524Y-22100D02*
X30000Y-22100D01*
X30100Y-22000D02*
X30300Y-22000D01*
X28250Y-21750D02*
X28250Y-27300D01*
X30000Y-22100D02*
X30100Y-22000D01*
X28250Y-27300D02*
X28700Y-27750D01*
X30050Y-21100D02*
X28900Y-21100D01*
X28900Y-21100D02*
X28250Y-21750D01*
X30500Y-21800D02*
X30500Y-21550D01*
X34374Y-29250D02*
X34600Y-29250D01*
X34600Y-29250D02*
X34750Y-29100D01*
X32100Y-26800D02*
X30560Y-26800D01*
X33650Y-27200D02*
X33450Y-27000D01*
X33650Y-28100D02*
X33650Y-27200D01*
X34750Y-29100D02*
X34750Y-28700D01*
X34000Y-28450D02*
X33650Y-28100D01*
X31300Y-25800D02*
X30560Y-25800D01*
X32500Y-25850D02*
X32450Y-25800D01*
X33626Y-29250D02*
X33100Y-29250D01*
X33100Y-29250D02*
X33000Y-29350D01*
X32500Y-27800D02*
X32500Y-25850D01*
X32850Y-28450D02*
X32850Y-25500D01*
X32850Y-25500D02*
X32150Y-24800D01*
X32150Y-24800D02*
X30560Y-24800D01*
X32174Y-28600D02*
X32700Y-28600D01*
X32700Y-28600D02*
X32850Y-28450D01*
X25890Y-30000D02*
X24850Y-30000D01*
X59725Y-22350D02*
X59710Y-22350D01*
X17625Y-21475D02*
X16950Y-20800D01*
X64950Y-24750D02*
X65000Y-24700D01*
X26600Y-29800D02*
X26600Y-29350D01*
X65560Y-23700D02*
X66050Y-23700D01*
X24600Y-26700D02*
X24600Y-29750D01*
X90000Y-22000D02*
X90000Y-27500D01*
X65000Y-24700D02*
X65000Y-24000D01*
X87200Y-31950D02*
X87200Y-29700D01*
X65300Y-23700D02*
X65560Y-23700D01*
X26400Y-30000D02*
X26600Y-29800D01*
X41000Y-22900D02*
X41250Y-23150D01*
X30050Y-23400D02*
X30150Y-23300D01*
X26550Y-26600D02*
X26550Y-25650D01*
X32050Y-23300D02*
X32400Y-23650D01*
X39850Y-23300D02*
X40250Y-22900D01*
X67000Y-21000D02*
X67250Y-20750D01*
X40700Y-22900D02*
X40700Y-22900D01*
X60040Y-22665D02*
X59725Y-22350D01*
X89750Y-21750D02*
X90300Y-21200D01*
X26400Y-30000D02*
X25890Y-30000D01*
X67000Y-22750D02*
X67000Y-21750D01*
X59710Y-22350D02*
X59350Y-22350D01*
X65000Y-24000D02*
X65300Y-23700D01*
X29950Y-23750D02*
X30050Y-23650D01*
X90300Y-21200D02*
X90300Y-20800D01*
X40700Y-22900D02*
X41000Y-22900D01*
X90450Y-29700D02*
X90450Y-32050D01*
X87000Y-29500D02*
X87200Y-29700D01*
X38900Y-23300D02*
X39360Y-23300D01*
X30560Y-23300D02*
X32050Y-23300D01*
X24600Y-29750D02*
X24850Y-30000D01*
X67250Y-20750D02*
X77750Y-20750D01*
X86750Y-29500D02*
X87000Y-29500D01*
X49850Y-24400D02*
X50200Y-24050D01*
X38475Y-23725D02*
X38900Y-23300D01*
X37895Y-23725D02*
X37720Y-23900D01*
X78000Y-21000D02*
X87750Y-21000D01*
X24475Y-24775D02*
X23750Y-24050D01*
X23750Y-24050D02*
X20250Y-24050D01*
X90450Y-32050D02*
X90000Y-32500D01*
X90000Y-28500D02*
X90000Y-29500D01*
X87750Y-32500D02*
X87200Y-31950D01*
X90250Y-29500D02*
X90000Y-29500D01*
X39360Y-23300D02*
X39850Y-23300D01*
X40250Y-22900D02*
X40700Y-22900D01*
X87750Y-21000D02*
X88500Y-21750D01*
X77750Y-20750D02*
X78000Y-21000D01*
X53800Y-21600D02*
X53850Y-21550D01*
G54D30*
X86800Y-29450D02*
X86750Y-29500D01*
G54D28*
X86800Y-28625D02*
X86800Y-29450D01*
X26550Y-25650D02*
X27250Y-24950D01*
X17625Y-24125D02*
X18200Y-24700D01*
X30050Y-23650D02*
X30050Y-23400D01*
X90450Y-29700D02*
X90250Y-29500D01*
X30560Y-23300D02*
X30150Y-23300D01*
X50200Y-24050D02*
X51250Y-24050D01*
X41250Y-23150D02*
X41250Y-23550D01*
X38475Y-23725D02*
X37895Y-23725D01*
X88500Y-21750D02*
X89750Y-21750D01*
X59350Y-22350D02*
X58550Y-21550D01*
X53850Y-21550D02*
X58550Y-21550D01*
X19600Y-24700D02*
X20250Y-24050D01*
X38450Y-23750D02*
X38475Y-23725D01*
X66050Y-23700D02*
X67000Y-22750D01*
X89750Y-21750D02*
X90000Y-22000D01*
X17625Y-21475D02*
X17625Y-24125D01*
X18200Y-24700D02*
X19600Y-24700D01*
X90000Y-32500D02*
X87750Y-32500D01*
X88750Y-20500D02*
X89050Y-20800D01*
X44400Y-22600D02*
X44950Y-22600D01*
X89300Y-20800D02*
X89300Y-20450D01*
X65560Y-23200D02*
X65200Y-23200D01*
X38450Y-22650D02*
X38600Y-22800D01*
X64150Y-23750D02*
X64650Y-23750D01*
X66050Y-23200D02*
X66500Y-22750D01*
X40590Y-22110D02*
X41270Y-22110D01*
X29150Y-22750D02*
X30510Y-22750D01*
X27600Y-23550D02*
X27600Y-25350D01*
X44950Y-22600D02*
X45450Y-22100D01*
X51350Y-21050D02*
X60250Y-21050D01*
X37800Y-22750D02*
X37900Y-22650D01*
X25890Y-30500D02*
X26500Y-30500D01*
X37900Y-22650D02*
X38450Y-22650D01*
X39360Y-22800D02*
X39900Y-22800D01*
X34340Y-22800D02*
X34850Y-22800D01*
X31950Y-22800D02*
X30560Y-22800D01*
X30510Y-22750D02*
X30560Y-22800D01*
X35400Y-22250D02*
X35400Y-22200D01*
X66500Y-22750D02*
X66500Y-21750D01*
X35400Y-22250D02*
X34850Y-22800D01*
X66500Y-21000D02*
X67000Y-20500D01*
X64650Y-23750D02*
X65200Y-23200D01*
X89050Y-20800D02*
X89300Y-20800D01*
X89500Y-20250D02*
X89300Y-20450D01*
X26950Y-26000D02*
X27600Y-25350D01*
X45450Y-22100D02*
X49250Y-22100D01*
X67000Y-20500D02*
X88750Y-20500D01*
X89250Y-28450D02*
X89250Y-29300D01*
X90350Y-27650D02*
X90000Y-28000D01*
X24250Y-26250D02*
X23750Y-25750D01*
X90350Y-21650D02*
X90750Y-21250D01*
X90350Y-27650D02*
X90350Y-21650D01*
X90750Y-20500D02*
X90500Y-20250D01*
X65560Y-23200D02*
X66050Y-23200D01*
X89250Y-29300D02*
X89050Y-29500D01*
X90500Y-20250D02*
X89500Y-20250D01*
X89050Y-29500D02*
X88500Y-29500D01*
X32400Y-22350D02*
X31950Y-22800D01*
X17375Y-24275D02*
X18100Y-25000D01*
X18100Y-25000D02*
X19650Y-25000D01*
X19650Y-25000D02*
X20250Y-24400D01*
X24750Y-30500D02*
X24250Y-30000D01*
X60250Y-21050D02*
X60950Y-21750D01*
X26750Y-30250D02*
X26500Y-30500D01*
X39360Y-22800D02*
X38600Y-22800D01*
X17375Y-22225D02*
X15950Y-20800D01*
X49250Y-22100D02*
X49350Y-22000D01*
X25890Y-30500D02*
X24750Y-30500D01*
X24250Y-30000D02*
X24250Y-26250D01*
X22450Y-24400D02*
X20250Y-24400D01*
X90000Y-28000D02*
X89700Y-28000D01*
X89700Y-28000D02*
X89250Y-28450D01*
X39900Y-22800D02*
X40590Y-22110D01*
X88500Y-28625D02*
X88500Y-29500D01*
X17375Y-22225D02*
X17375Y-24275D01*
X90750Y-21250D02*
X90750Y-20500D01*
G54D29*
X91650Y-27650D02*
X90900Y-27650D01*
G54D11*
X76250Y-23950D02*
X76250Y-23050D01*
X57494Y-23294D02*
X57650Y-23450D01*
X48226Y-26974D02*
X48550Y-26650D01*
G54D29*
X85750Y-31500D02*
X85750Y-32250D01*
X90900Y-33000D02*
X91600Y-33000D01*
G54D11*
X80250Y-26500D02*
X79500Y-25750D01*
X83550Y-27690D02*
X83550Y-29498D01*
G54D29*
X90900Y-24250D02*
X90900Y-23600D01*
X91250Y-23250D02*
X91650Y-23250D01*
X90900Y-23600D02*
X91250Y-23250D01*
X91650Y-36450D02*
X90900Y-36450D01*
X90900Y-33000D02*
X90900Y-36450D01*
X90900Y-36450D02*
X90900Y-37200D01*
X91150Y-37450D02*
X91650Y-37450D01*
X90900Y-37200D02*
X91150Y-37450D01*
X86500Y-33000D02*
X90900Y-33000D01*
G54D11*
X77906Y-26856D02*
X78124Y-26856D01*
G54D29*
X91650Y-24250D02*
X90900Y-24250D01*
X83748Y-29498D02*
X85750Y-31500D01*
X85750Y-32250D02*
X86500Y-33000D01*
G54D31*
X83550Y-29498D02*
X83748Y-29498D01*
X91600Y-33000D02*
X91650Y-33050D01*
G54D11*
X74950Y-26650D02*
X75106Y-26806D01*
X31426Y-28344D02*
X31134Y-28344D01*
X66400Y-30600D02*
X67056Y-29944D01*
X31134Y-28344D02*
X30578Y-28900D01*
G54D29*
X90900Y-27650D02*
X90900Y-24250D01*
G54D11*
X28850Y-28400D02*
X28850Y-28350D01*
X38094Y-29194D02*
X38250Y-29350D01*
X83550Y-27690D02*
X82360Y-26500D01*
X29350Y-28900D02*
X28850Y-28400D01*
X28550Y-20800D02*
X30300Y-20800D01*
X37100Y-30150D02*
X37450Y-29800D01*
X28850Y-28350D02*
X27850Y-27350D01*
X37644Y-29194D02*
X37876Y-29194D01*
X27850Y-23900D02*
X28000Y-23750D01*
X34650Y-30700D02*
X34900Y-30950D01*
X65450Y-20800D02*
X63200Y-20800D01*
X35650Y-21050D02*
X36900Y-21050D01*
X75106Y-26806D02*
X75324Y-26806D01*
X30578Y-28900D02*
X29350Y-28900D01*
X36350Y-30150D02*
X37100Y-30150D01*
X43506Y-21506D02*
X43794Y-21506D01*
X34000Y-29400D02*
X34000Y-29850D01*
X48226Y-27294D02*
X48226Y-26974D01*
X28000Y-23750D02*
X28000Y-21350D01*
X57756Y-23806D02*
X58024Y-23806D01*
X27850Y-27350D02*
X27850Y-23900D01*
X37750Y-22150D02*
X37856Y-22256D01*
G54D29*
X91650Y-32050D02*
X90900Y-32050D01*
G54D11*
X67476Y-29944D02*
X67744Y-29944D01*
X38250Y-29600D02*
X38356Y-29706D01*
X64200Y-29500D02*
X64326Y-29626D01*
X50750Y-26650D02*
X51650Y-25750D01*
X64326Y-29626D02*
X64326Y-29944D01*
X58676Y-28526D02*
X61050Y-30900D01*
X64326Y-29944D02*
X64544Y-29944D01*
X28000Y-21350D02*
X28550Y-20800D01*
X43294Y-20994D02*
X43420Y-21120D01*
X75700Y-24150D02*
X76050Y-24150D01*
X63450Y-29500D02*
X64200Y-29500D01*
X42194Y-29194D02*
X42350Y-29350D01*
X62050Y-30900D02*
X63450Y-29500D01*
X37200Y-20750D02*
X38750Y-20750D01*
X34076Y-20874D02*
X34350Y-20600D01*
X64700Y-30100D02*
X64700Y-30350D01*
X37856Y-22256D02*
X38124Y-22256D01*
X66044Y-21394D02*
X65450Y-20800D01*
X35550Y-30950D02*
X36350Y-30150D01*
X34850Y-20850D02*
X34600Y-20600D01*
X34000Y-29400D02*
X34106Y-29506D01*
X34000Y-29850D02*
X33900Y-29950D01*
X45575Y-22375D02*
X44900Y-23050D01*
X42350Y-29650D02*
X42406Y-29706D01*
X38624Y-29706D02*
X40544Y-29706D01*
X37376Y-21524D02*
X37550Y-21350D01*
X50300Y-23600D02*
X50300Y-22950D01*
X60156Y-27256D02*
X60374Y-27256D01*
X74844Y-26294D02*
X74950Y-26400D01*
X59444Y-23806D02*
X58024Y-23806D01*
X57176Y-27444D02*
X57444Y-27444D01*
G54D29*
X90900Y-32050D02*
X90900Y-28650D01*
G54D11*
X39006Y-20994D02*
X43046Y-20994D01*
X49424Y-26650D02*
X50750Y-26650D01*
X49050Y-23500D02*
X49050Y-23750D01*
X29256Y-22356D02*
X29524Y-22356D01*
X44756Y-21506D02*
X44800Y-21550D01*
X48650Y-27700D02*
X48756Y-27806D01*
X57600Y-27600D02*
X57600Y-27900D01*
X74050Y-25300D02*
X75274Y-25300D01*
G54D29*
X90900Y-33000D02*
X90900Y-32050D01*
G54D11*
X68006Y-30456D02*
X68224Y-30456D01*
X50926Y-26826D02*
X50926Y-27194D01*
X29150Y-22250D02*
X29256Y-22356D01*
X64044Y-21494D02*
X63776Y-21494D01*
X64150Y-21600D02*
X64044Y-21494D01*
X57924Y-28526D02*
X57924Y-27956D01*
X64524Y-22274D02*
X64650Y-22400D01*
X64150Y-21900D02*
X64150Y-21600D01*
X57176Y-26974D02*
X57406Y-26744D01*
X51650Y-25750D02*
X54000Y-25750D01*
X29044Y-21844D02*
X29150Y-21950D01*
X57500Y-28950D02*
X57924Y-28526D01*
X75274Y-23906D02*
X75274Y-25300D01*
X48226Y-27294D02*
X48444Y-27294D01*
X50750Y-26650D02*
X50926Y-26826D01*
X58024Y-26744D02*
X59626Y-26744D01*
X54700Y-26450D02*
X54700Y-28400D01*
X51300Y-27300D02*
X51300Y-27600D01*
X48676Y-23394D02*
X48944Y-23394D01*
X74576Y-26294D02*
X74844Y-26294D01*
X31906Y-28856D02*
X32174Y-28856D01*
X75274Y-25300D02*
X77000Y-25300D01*
X66056Y-21394D02*
X69776Y-21394D01*
G54D29*
X91650Y-28650D02*
X90900Y-28650D01*
G54D11*
X77800Y-26750D02*
X77906Y-26856D01*
X29150Y-21950D02*
X29150Y-22250D01*
X42406Y-29706D02*
X42674Y-29706D01*
X67056Y-29944D02*
X67476Y-29944D01*
X77800Y-26450D02*
X77800Y-26750D01*
X57406Y-26744D02*
X58024Y-26744D01*
X49206Y-23906D02*
X49424Y-23906D01*
X67850Y-30300D02*
X68006Y-30456D01*
G54D29*
X90900Y-28650D02*
X90900Y-27650D01*
G54D11*
X65074Y-30456D02*
X65356Y-30456D01*
X48756Y-27806D02*
X48974Y-27806D01*
X30644Y-21144D02*
X34076Y-21144D01*
X30300Y-20800D02*
X30644Y-21144D01*
X37376Y-21744D02*
X37644Y-21744D01*
X70200Y-21550D02*
X70200Y-21800D01*
X41926Y-29194D02*
X42194Y-29194D01*
X69776Y-21394D02*
X70044Y-21394D01*
X57650Y-23450D02*
X57650Y-23700D01*
X64650Y-22400D02*
X65050Y-22400D01*
X64524Y-22006D02*
X64524Y-22274D01*
X37750Y-21850D02*
X37750Y-22150D01*
X36900Y-21050D02*
X37200Y-20750D01*
X60050Y-26900D02*
X60050Y-27150D01*
X35450Y-20850D02*
X35650Y-21050D01*
X31694Y-28344D02*
X31850Y-28500D01*
X75106Y-21906D02*
X70524Y-21906D01*
X34500Y-21550D02*
X34606Y-21656D01*
X35450Y-20850D02*
X34850Y-20850D01*
X41056Y-29194D02*
X41926Y-29194D01*
X74900Y-23450D02*
X74900Y-23800D01*
X57276Y-23294D02*
X57494Y-23294D01*
X32174Y-28856D02*
X33006Y-28856D01*
X37550Y-21350D02*
X37800Y-21350D01*
X67850Y-30050D02*
X67850Y-30300D01*
X39000Y-21000D02*
X39006Y-20994D01*
X49424Y-23906D02*
X49424Y-26650D01*
X62100Y-21200D02*
X60100Y-23200D01*
X70044Y-21394D02*
X70200Y-21550D01*
X70200Y-21800D02*
X70306Y-21906D01*
X54700Y-28400D02*
X55250Y-28950D01*
X38356Y-29706D02*
X38624Y-29706D01*
X75274Y-23906D02*
X75456Y-23906D01*
X57176Y-27444D02*
X57176Y-26974D01*
X31850Y-28800D02*
X31906Y-28856D01*
X43046Y-20994D02*
X43294Y-20994D01*
X70306Y-21906D02*
X70524Y-21906D01*
X31850Y-28500D02*
X31850Y-28800D01*
X67744Y-29944D02*
X67850Y-30050D01*
X40544Y-29706D02*
X41056Y-29194D01*
X74194Y-26294D02*
X74576Y-26294D01*
X58024Y-23806D02*
X58024Y-26744D01*
X34294Y-21144D02*
X34500Y-21350D01*
X65050Y-22400D02*
X66056Y-21394D01*
X74526Y-23394D02*
X74844Y-23394D01*
X34606Y-21656D02*
X34824Y-21656D01*
X48650Y-27500D02*
X48650Y-27700D01*
X57650Y-23700D02*
X57756Y-23806D01*
X74844Y-23394D02*
X74900Y-23450D01*
X39000Y-21000D02*
X39000Y-21000D01*
X83550Y-29498D02*
X81002Y-29498D01*
X78876Y-25676D02*
X78950Y-25750D01*
X77376Y-25676D02*
X78876Y-25676D01*
X74900Y-23800D02*
X75006Y-23906D01*
X59450Y-23800D02*
X59444Y-23806D01*
X50926Y-27194D02*
X51194Y-27194D01*
X74050Y-26150D02*
X74194Y-26294D01*
X48444Y-27294D02*
X48650Y-27500D01*
X80750Y-29750D02*
X80750Y-31875D01*
X59894Y-26744D02*
X60050Y-26900D01*
X57600Y-27900D02*
X57656Y-27956D01*
X51300Y-27600D02*
X51406Y-27706D01*
X64256Y-22006D02*
X64150Y-21900D01*
X34500Y-21350D02*
X34500Y-21550D01*
X54000Y-25750D02*
X54700Y-26450D01*
X28776Y-21844D02*
X29044Y-21844D01*
X77376Y-26344D02*
X77694Y-26344D01*
X77376Y-25676D02*
X77376Y-26344D01*
X33626Y-28994D02*
X33894Y-28994D01*
X57924Y-28526D02*
X58676Y-28526D01*
X76050Y-24150D02*
X76250Y-23950D01*
X64700Y-30350D02*
X64806Y-30456D01*
X43420Y-21120D02*
X43420Y-21420D01*
X77000Y-25300D02*
X77376Y-25676D01*
X37876Y-29194D02*
X38094Y-29194D01*
X38750Y-20750D02*
X39000Y-21000D01*
X34106Y-29506D02*
X34374Y-29506D01*
X43420Y-21420D02*
X43506Y-21506D01*
X64544Y-29944D02*
X64700Y-30100D01*
X81002Y-29498D02*
X80750Y-29750D01*
X37376Y-21744D02*
X37376Y-21524D01*
X33894Y-28994D02*
X34000Y-29100D01*
X48550Y-26650D02*
X49424Y-26650D01*
X50300Y-22950D02*
X49725Y-22375D01*
X43794Y-21506D02*
X44756Y-21506D01*
X61050Y-30900D02*
X62050Y-30900D01*
X64806Y-30456D02*
X65074Y-30456D01*
X57656Y-27956D02*
X57924Y-27956D01*
X64524Y-22006D02*
X64256Y-22006D01*
X37644Y-21744D02*
X37750Y-21850D01*
X42350Y-29350D02*
X42350Y-29650D01*
X55250Y-28950D02*
X57500Y-28950D01*
X51194Y-27194D02*
X51300Y-27300D01*
X78950Y-25750D02*
X79500Y-25750D01*
X49050Y-23750D02*
X49206Y-23906D01*
X74950Y-26400D02*
X74950Y-26650D01*
X65500Y-30600D02*
X66400Y-30600D01*
X49725Y-22375D02*
X45575Y-22375D01*
X48944Y-23394D02*
X49050Y-23500D01*
X33006Y-28856D02*
X33144Y-28994D01*
X37450Y-29000D02*
X37644Y-29194D01*
X65356Y-30456D02*
X65500Y-30600D01*
X82360Y-26500D02*
X80250Y-26500D01*
X76250Y-23050D02*
X75106Y-21906D01*
X34076Y-21144D02*
X34294Y-21144D01*
X51406Y-27706D02*
X51674Y-27706D01*
X33144Y-28994D02*
X33626Y-28994D01*
X34350Y-20600D02*
X34600Y-20600D01*
X60100Y-23200D02*
X60050Y-23200D01*
X31426Y-28344D02*
X31694Y-28344D01*
X34900Y-30950D02*
X35550Y-30950D01*
X57444Y-27444D02*
X57600Y-27600D01*
X66056Y-21394D02*
X66044Y-21394D01*
X49994Y-23906D02*
X50300Y-23600D01*
X77694Y-26344D02*
X77800Y-26450D01*
X34076Y-20874D02*
X34076Y-21144D01*
X59626Y-26744D02*
X59894Y-26744D01*
X75456Y-23906D02*
X75700Y-24150D01*
X49725Y-22375D02*
X49700Y-22350D01*
X49994Y-23906D02*
X49424Y-23906D01*
X60050Y-27150D02*
X60156Y-27256D01*
X38250Y-29350D02*
X38250Y-29600D01*
X44056Y-21506D02*
X43794Y-21506D01*
X34000Y-29100D02*
X34000Y-29400D01*
X75006Y-23906D02*
X75274Y-23906D01*
X29044Y-21706D02*
X29300Y-21450D01*
X29044Y-21844D02*
X29044Y-21706D01*
M02*
