G04 (created by PCBNEW-RS274X (2012-01-19 BZR 3256)-stable) date 12/4/2012 8:12:11 AM*
G01*
G70*
G90*
%MOIN*%
G04 Gerber Fmt 3.4, Leading zero omitted, Abs format*
%FSLAX34Y34*%
G04 APERTURE LIST*
%ADD10C,0.006000*%
%ADD11C,0.015000*%
%ADD12R,0.039700X0.035700*%
%ADD13R,0.080000X0.080000*%
%ADD14C,0.080000*%
%ADD15R,0.079100X0.041700*%
%ADD16C,0.157600*%
%ADD17R,0.075000X0.055000*%
%ADD18R,0.055000X0.075000*%
%ADD19R,0.111300X0.170000*%
%ADD20R,0.453100X0.399500*%
%ADD21C,0.180000*%
%ADD22R,0.083000X0.047600*%
%ADD23R,0.320000X0.090000*%
%ADD24R,0.090000X0.320000*%
%ADD25C,0.086000*%
G04 APERTURE END LIST*
G54D10*
G54D11*
X14029Y-39370D02*
X92769Y-39370D01*
X14030Y-19685D02*
X14030Y-39370D01*
X92770Y-19685D02*
X14030Y-19685D01*
X92770Y-39370D02*
X92770Y-19685D01*
G54D12*
X29524Y-21844D03*
X29524Y-22100D03*
X29524Y-22356D03*
X28776Y-22356D03*
X28776Y-22100D03*
X28776Y-21844D03*
G54D13*
X91650Y-26650D03*
G54D14*
X91650Y-27650D03*
X91650Y-28650D03*
X91650Y-29650D03*
G54D13*
X91650Y-35450D03*
G54D14*
X91650Y-36450D03*
X91650Y-37450D03*
X91650Y-38450D03*
G54D13*
X91650Y-31050D03*
G54D14*
X91650Y-32050D03*
X91650Y-33050D03*
X91650Y-34050D03*
G54D13*
X91650Y-22250D03*
G54D14*
X91650Y-23250D03*
X91650Y-24250D03*
X91650Y-25250D03*
G54D13*
X89300Y-20800D03*
G54D14*
X90300Y-20800D03*
X91300Y-20800D03*
X92300Y-20800D03*
G54D13*
X15950Y-20800D03*
G54D14*
X16950Y-20800D03*
X17950Y-20800D03*
X18950Y-20800D03*
G54D13*
X27350Y-22850D03*
G54D14*
X26350Y-22850D03*
X27350Y-21850D03*
X26350Y-21850D03*
X27350Y-20850D03*
X26350Y-20850D03*
G54D15*
X42063Y-31000D03*
X42063Y-31500D03*
X42063Y-32000D03*
X42063Y-32500D03*
X42063Y-33000D03*
X42063Y-33500D03*
X42063Y-34000D03*
X42063Y-34500D03*
X39937Y-34500D03*
X39937Y-34000D03*
X39937Y-33500D03*
X39950Y-33000D03*
X39937Y-32500D03*
X39937Y-32000D03*
X39937Y-31500D03*
X39937Y-31000D03*
X31313Y-31000D03*
X31313Y-31500D03*
X31313Y-32000D03*
X31313Y-32500D03*
X31313Y-33000D03*
X31313Y-33500D03*
X31313Y-34000D03*
X31313Y-34500D03*
X29187Y-34500D03*
X29187Y-34000D03*
X29187Y-33500D03*
X29200Y-33000D03*
X29187Y-32500D03*
X29187Y-32000D03*
X29187Y-31500D03*
X29187Y-31000D03*
G54D16*
X22500Y-39000D03*
X86250Y-39000D03*
X22500Y-20000D03*
G54D17*
X86800Y-27875D03*
X86800Y-28625D03*
X88500Y-27875D03*
X88500Y-28625D03*
X80750Y-31875D03*
X80750Y-32625D03*
G54D18*
X82625Y-34750D03*
X83375Y-34750D03*
G54D17*
X21250Y-30125D03*
X21250Y-29375D03*
X25400Y-21575D03*
X25400Y-20825D03*
G54D18*
X27125Y-24000D03*
X26375Y-24000D03*
G54D17*
X20500Y-30125D03*
X20500Y-29375D03*
X28300Y-30875D03*
X28300Y-31625D03*
X27500Y-30875D03*
X27500Y-31625D03*
X39100Y-30975D03*
X39100Y-31725D03*
X38350Y-30975D03*
X38350Y-31725D03*
G54D12*
X65074Y-29944D03*
X65074Y-30200D03*
X65074Y-30456D03*
X64326Y-30456D03*
X64326Y-30200D03*
X64326Y-29944D03*
X70524Y-21394D03*
X70524Y-21650D03*
X70524Y-21906D03*
X69776Y-21906D03*
X69776Y-21650D03*
X69776Y-21394D03*
X77376Y-26856D03*
X77376Y-26600D03*
X77376Y-26344D03*
X78124Y-26344D03*
X78124Y-26600D03*
X78124Y-26856D03*
X75274Y-23394D03*
X75274Y-23650D03*
X75274Y-23906D03*
X74526Y-23906D03*
X74526Y-23650D03*
X74526Y-23394D03*
X74576Y-26806D03*
X74576Y-26550D03*
X74576Y-26294D03*
X75324Y-26294D03*
X75324Y-26550D03*
X75324Y-26806D03*
X34374Y-28994D03*
X34374Y-29250D03*
X34374Y-29506D03*
X33626Y-29506D03*
X33626Y-29250D03*
X33626Y-28994D03*
X32174Y-28344D03*
X32174Y-28600D03*
X32174Y-28856D03*
X31426Y-28856D03*
X31426Y-28600D03*
X31426Y-28344D03*
X34824Y-21144D03*
X34824Y-21400D03*
X34824Y-21656D03*
X34076Y-21656D03*
X34076Y-21400D03*
X34076Y-21144D03*
X59626Y-27256D03*
X59626Y-27000D03*
X59626Y-26744D03*
X60374Y-26744D03*
X60374Y-27000D03*
X60374Y-27256D03*
X58024Y-23294D03*
X58024Y-23550D03*
X58024Y-23806D03*
X57276Y-23806D03*
X57276Y-23550D03*
X57276Y-23294D03*
X57176Y-27956D03*
X57176Y-27700D03*
X57176Y-27444D03*
X57924Y-27444D03*
X57924Y-27700D03*
X57924Y-27956D03*
X68224Y-29944D03*
X68224Y-30200D03*
X68224Y-30456D03*
X67476Y-30456D03*
X67476Y-30200D03*
X67476Y-29944D03*
X64524Y-21494D03*
X64524Y-21750D03*
X64524Y-22006D03*
X63776Y-22006D03*
X63776Y-21750D03*
X63776Y-21494D03*
X38624Y-29194D03*
X38624Y-29450D03*
X38624Y-29706D03*
X37876Y-29706D03*
X37876Y-29450D03*
X37876Y-29194D03*
X38124Y-21744D03*
X38124Y-22000D03*
X38124Y-22256D03*
X37376Y-22256D03*
X37376Y-22000D03*
X37376Y-21744D03*
X42674Y-29194D03*
X42674Y-29450D03*
X42674Y-29706D03*
X41926Y-29706D03*
X41926Y-29450D03*
X41926Y-29194D03*
X48226Y-27806D03*
X48226Y-27550D03*
X48226Y-27294D03*
X48974Y-27294D03*
X48974Y-27550D03*
X48974Y-27806D03*
X50926Y-27706D03*
X50926Y-27450D03*
X50926Y-27194D03*
X51674Y-27194D03*
X51674Y-27450D03*
X51674Y-27706D03*
X49424Y-23394D03*
X49424Y-23650D03*
X49424Y-23906D03*
X48676Y-23906D03*
X48676Y-23650D03*
X48676Y-23394D03*
X43794Y-20994D03*
X43794Y-21250D03*
X43794Y-21506D03*
X43046Y-21506D03*
X43046Y-21250D03*
X43046Y-20994D03*
G54D13*
X68984Y-33159D03*
G54D14*
X67016Y-33159D03*
X68000Y-34144D03*
G54D13*
X90000Y-31500D03*
G54D14*
X90000Y-30500D03*
X90000Y-29500D03*
G54D13*
X88500Y-31500D03*
G54D14*
X88500Y-30500D03*
X88500Y-29500D03*
G54D13*
X86750Y-29500D03*
G54D14*
X86750Y-30500D03*
X86750Y-31500D03*
G54D19*
X84534Y-33348D03*
G54D20*
X83550Y-29498D03*
G54D19*
X82566Y-33348D03*
G54D21*
X86250Y-37500D03*
X22500Y-37500D03*
X86250Y-22500D03*
X22500Y-22500D03*
G54D22*
X43140Y-22300D03*
X43140Y-22800D03*
X43140Y-23300D03*
X43140Y-23800D03*
X43140Y-24300D03*
X43140Y-24800D03*
X43140Y-25300D03*
X43140Y-25800D03*
X43140Y-26300D03*
X43140Y-26800D03*
X43140Y-27300D03*
X43140Y-27800D03*
X39360Y-27800D03*
X39360Y-27300D03*
X39360Y-26800D03*
X39360Y-26300D03*
X39360Y-25800D03*
X39360Y-25300D03*
X39360Y-24800D03*
X39360Y-24300D03*
X39360Y-23800D03*
X39360Y-23300D03*
X39360Y-22800D03*
X39360Y-22300D03*
X34340Y-22300D03*
X34340Y-22800D03*
X34340Y-23300D03*
X34340Y-23800D03*
X34340Y-24300D03*
X34340Y-24800D03*
X34340Y-25300D03*
X34340Y-25800D03*
X34340Y-26300D03*
X34340Y-26800D03*
X34340Y-27300D03*
X34340Y-27800D03*
X30560Y-27800D03*
X30560Y-27300D03*
X30560Y-26800D03*
X30560Y-26300D03*
X30560Y-25800D03*
X30560Y-25300D03*
X30560Y-24800D03*
X30560Y-24300D03*
X30560Y-23800D03*
X30560Y-23300D03*
X30560Y-22800D03*
X30560Y-22300D03*
X69340Y-22700D03*
X69340Y-23200D03*
X69340Y-23700D03*
X69340Y-24200D03*
X69340Y-24700D03*
X69340Y-25200D03*
X69340Y-25700D03*
X69340Y-26200D03*
X69340Y-26700D03*
X69340Y-27200D03*
X69340Y-27700D03*
X69340Y-28200D03*
X65560Y-28200D03*
X65560Y-27700D03*
X65560Y-27200D03*
X65560Y-26700D03*
X65560Y-26200D03*
X65560Y-25700D03*
X65560Y-25200D03*
X65560Y-24700D03*
X65560Y-24200D03*
X65560Y-23700D03*
X65560Y-23200D03*
X65560Y-22700D03*
X22110Y-32500D03*
X22110Y-32000D03*
X22110Y-31500D03*
X22110Y-31000D03*
X22110Y-30500D03*
X22110Y-30000D03*
X22110Y-29500D03*
X22110Y-29000D03*
X22110Y-28500D03*
X22110Y-28000D03*
X22110Y-27500D03*
X22110Y-27000D03*
X22110Y-26500D03*
X22110Y-26000D03*
X25890Y-26000D03*
X25890Y-26500D03*
X25890Y-27000D03*
X25890Y-27500D03*
X25890Y-28000D03*
X25890Y-28500D03*
X25890Y-29000D03*
X25890Y-29500D03*
X25890Y-30000D03*
X25890Y-30500D03*
X25890Y-31000D03*
X25890Y-31500D03*
X25890Y-32000D03*
X25890Y-32500D03*
G54D13*
X88500Y-26000D03*
G54D14*
X88500Y-27000D03*
X47000Y-23250D03*
X47000Y-24250D03*
X47000Y-25250D03*
X47000Y-26250D03*
X47000Y-27250D03*
X47000Y-28250D03*
X53000Y-30250D03*
X53000Y-29250D03*
X53000Y-28250D03*
X53000Y-27250D03*
X53000Y-26250D03*
X53000Y-25250D03*
X53000Y-24250D03*
X53000Y-23250D03*
X55750Y-23250D03*
X55750Y-24250D03*
X55750Y-25250D03*
X55750Y-26250D03*
X55750Y-27250D03*
X55750Y-28250D03*
X61750Y-30250D03*
X61750Y-29250D03*
X61750Y-28250D03*
X61750Y-27250D03*
X61750Y-26250D03*
X61750Y-25250D03*
X61750Y-24250D03*
X61750Y-23250D03*
X38250Y-23250D03*
X38250Y-24250D03*
X38250Y-25250D03*
X38250Y-26250D03*
X38250Y-27250D03*
X38250Y-28250D03*
X44250Y-30250D03*
X44250Y-29250D03*
X44250Y-28250D03*
X44250Y-27250D03*
X44250Y-26250D03*
X44250Y-25250D03*
X44250Y-24250D03*
X44250Y-23250D03*
X64500Y-23250D03*
X64500Y-24250D03*
X64500Y-25250D03*
X64500Y-26250D03*
X64500Y-27250D03*
X64500Y-28250D03*
X70500Y-30250D03*
X70500Y-29250D03*
X70500Y-28250D03*
X70500Y-27250D03*
X70500Y-26250D03*
X70500Y-25250D03*
X70500Y-24250D03*
X70500Y-23250D03*
X73250Y-23250D03*
X73250Y-24250D03*
X73250Y-25250D03*
X73250Y-26250D03*
X73250Y-27250D03*
X73250Y-28250D03*
X79250Y-30250D03*
X79250Y-29250D03*
X79250Y-28250D03*
X79250Y-27250D03*
X79250Y-26250D03*
X79250Y-25250D03*
X79250Y-24250D03*
X79250Y-23250D03*
X29500Y-23250D03*
X29500Y-24250D03*
X29500Y-25250D03*
X29500Y-26250D03*
X29500Y-27250D03*
X29500Y-28250D03*
X35500Y-30250D03*
X35500Y-29250D03*
X35500Y-28250D03*
X35500Y-27250D03*
X35500Y-26250D03*
X35500Y-25250D03*
X35500Y-24250D03*
X35500Y-23250D03*
G54D23*
X15600Y-27540D03*
X15600Y-29110D03*
X15600Y-30680D03*
X15600Y-32250D03*
X15600Y-33820D03*
X15600Y-35390D03*
X15600Y-36960D03*
X15600Y-38530D03*
X15600Y-25970D03*
G54D24*
X29875Y-37800D03*
X31445Y-37800D03*
X33015Y-37800D03*
X34585Y-37800D03*
X36155Y-37800D03*
X37725Y-37800D03*
X39295Y-37800D03*
X40865Y-37800D03*
X42435Y-37800D03*
X44005Y-37800D03*
X45575Y-37800D03*
X47145Y-37800D03*
X48715Y-37800D03*
X50285Y-37800D03*
X51855Y-37800D03*
X53425Y-37800D03*
X54995Y-37800D03*
X28305Y-37800D03*
X61595Y-37790D03*
X63165Y-37790D03*
X64735Y-37790D03*
X66305Y-37790D03*
X67875Y-37790D03*
X69445Y-37790D03*
G54D18*
X18925Y-21700D03*
X18175Y-21700D03*
G54D25*
X18200Y-23450D03*
X19200Y-23450D03*
G54D13*
X57200Y-33300D03*
G54D14*
X58200Y-33300D03*
X59200Y-33300D03*
X60200Y-33300D03*
M02*
